G04 MADE WITH FRITZING*
G04 WWW.FRITZING.ORG*
G04 SINGLE SIDED*
G04 HOLES NOT PLATED*
G04 CONTOUR ON CENTER OF CONTOUR VECTOR*
%ASAXBY*%
%FSLAX23Y23*%
%MOIN*%
%OFA0B0*%
%SFA1.0B1.0*%
%ADD10C,0.039370*%
%ADD11R,0.070866X0.112205*%
%ADD12R,0.236221X0.204725*%
%ADD13R,0.106299X0.070866*%
%ADD14R,0.311023X0.355512*%
%ADD15C,0.024000*%
%ADD16R,0.001000X0.001000*%
%LNCOPPER0*%
G90*
G70*
G54D10*
X3986Y2495D03*
X3828Y3322D03*
X3907Y3400D03*
X3947Y4936D03*
X4065Y3243D03*
X3986Y4070D03*
X3907Y5054D03*
X3868Y3282D03*
X3986Y684D03*
X3947Y2456D03*
X4025Y4030D03*
X4065Y5802D03*
X4025Y881D03*
X3868Y1629D03*
X3986Y4818D03*
X3828Y2495D03*
X3947Y6511D03*
X4065Y4896D03*
X4025Y3282D03*
X3947Y3361D03*
X3986Y5054D03*
X3828Y4148D03*
X3947Y881D03*
X3868Y4936D03*
X3986Y6707D03*
X4065Y4148D03*
X3828Y3243D03*
X3947Y4188D03*
X3986Y3400D03*
X3828Y6629D03*
X3947Y1707D03*
X4025Y4109D03*
X3868Y2377D03*
X3986Y920D03*
X4025Y5763D03*
X3907Y4975D03*
X3947Y3282D03*
X4065Y841D03*
X3828Y1668D03*
X3907Y3991D03*
X3907Y4818D03*
X3828Y841D03*
X3947Y1550D03*
X3907Y1589D03*
X3986Y3322D03*
X3986Y1668D03*
X3868Y6589D03*
X3986Y1747D03*
X3986Y2416D03*
X3828Y2416D03*
X3868Y1707D03*
X4025Y5841D03*
X3828Y6550D03*
X3828Y4896D03*
X4025Y1707D03*
X3986Y1511D03*
X3947Y802D03*
X3868Y6668D03*
X3947Y5841D03*
X3868Y2534D03*
X3947Y4857D03*
X3947Y5684D03*
X4025Y4936D03*
X3986Y5881D03*
X3868Y1550D03*
X3828Y4975D03*
X3828Y5723D03*
X3907Y1511D03*
X3947Y2534D03*
X4025Y6589D03*
X4065Y2416D03*
X3868Y3204D03*
X4025Y2534D03*
X10482Y5841D03*
X11388Y6589D03*
X9655Y4070D03*
X4065Y1668D03*
X9773Y802D03*
X9773Y5015D03*
X10561Y4188D03*
X9695Y1707D03*
X9695Y4936D03*
X10443Y920D03*
X8907Y4148D03*
X11309Y1550D03*
X9577Y3243D03*
X8986Y4070D03*
X8829Y920D03*
X11309Y6668D03*
X9734Y4896D03*
X9695Y4109D03*
X10521Y5723D03*
X11269Y5645D03*
X11427Y6550D03*
X8986Y5723D03*
X10482Y1550D03*
X8750Y6550D03*
X8986Y2416D03*
X10561Y2456D03*
X8947Y4857D03*
X8829Y6550D03*
X11348Y5881D03*
X9734Y841D03*
X8907Y1511D03*
X10561Y4030D03*
X10443Y3322D03*
X9577Y4070D03*
X3907Y841D03*
X8750Y5723D03*
X11230Y723D03*
X9813Y4896D03*
X4065Y2495D03*
X4025Y4188D03*
X10561Y1550D03*
X3907Y2416D03*
X4025Y723D03*
X3828Y5802D03*
X3907Y4070D03*
X3947Y6589D03*
X3828Y763D03*
X3907Y3243D03*
X4065Y6629D03*
X3986Y3164D03*
X3907Y3164D03*
X3986Y4227D03*
X4065Y763D03*
X3868Y4188D03*
X3907Y4148D03*
X3907Y684D03*
X9616Y5841D03*
X10364Y1668D03*
X3868Y5763D03*
X10600Y4896D03*
X8907Y6550D03*
X8947Y4030D03*
X10521Y5802D03*
X11230Y5763D03*
X9655Y6471D03*
X9577Y6629D03*
X4065Y1589D03*
X3986Y1589D03*
X3986Y4896D03*
X4025Y3361D03*
X3986Y3991D03*
X3947Y723D03*
X3907Y4227D03*
X3947Y5763D03*
X3868Y3361D03*
X3080Y3361D03*
X3199Y4896D03*
X4025Y802D03*
X3080Y881D03*
X3120Y6707D03*
X3002Y3204D03*
X3199Y4148D03*
X3002Y4936D03*
X3159Y3282D03*
X3120Y3400D03*
X3159Y4109D03*
X2962Y3243D03*
X3002Y2377D03*
X3159Y5763D03*
X3080Y4188D03*
X3041Y4975D03*
X3120Y920D03*
X3199Y1668D03*
X3041Y2416D03*
X3159Y723D03*
X3041Y3243D03*
X3041Y4070D03*
X3080Y6589D03*
X3002Y5763D03*
X2962Y5802D03*
X3041Y684D03*
X3159Y4188D03*
X3199Y2495D03*
X3120Y4227D03*
X3199Y6629D03*
X3041Y3164D03*
X3002Y4188D03*
X3041Y4148D03*
X2962Y763D03*
X3199Y763D03*
X3120Y3164D03*
X3080Y1707D03*
X3080Y802D03*
X3080Y5841D03*
X2962Y6629D03*
X3002Y2534D03*
X3080Y5684D03*
X3041Y3991D03*
X3159Y4936D03*
X3080Y4857D03*
X3120Y1511D03*
X2962Y4975D03*
X3080Y2534D03*
X3120Y5881D03*
X3159Y6589D03*
X3080Y3282D03*
X3002Y1550D03*
X3159Y2534D03*
X3199Y2416D03*
X2962Y4148D03*
X3120Y2495D03*
X3199Y3243D03*
X3080Y2456D03*
X3041Y5054D03*
X3080Y4936D03*
X3120Y5054D03*
X3120Y4070D03*
X3120Y4818D03*
X2962Y3322D03*
X3041Y3400D03*
X3002Y1629D03*
X3159Y4030D03*
X3159Y881D03*
X2962Y2495D03*
X3080Y6511D03*
X3002Y3282D03*
X3120Y684D03*
X3199Y5802D03*
X3120Y1589D03*
X3868Y4857D03*
X4065Y6550D03*
X3120Y4896D03*
X3907Y6550D03*
X4025Y1629D03*
X3868Y5015D03*
X4025Y4857D03*
X3907Y5723D03*
X3907Y6707D03*
X3986Y5802D03*
X3986Y4148D03*
X4025Y6668D03*
X3868Y2456D03*
X3907Y763D03*
X3986Y2574D03*
X3907Y1668D03*
X3947Y4030D03*
X3907Y1747D03*
X3868Y4030D03*
X3907Y6629D03*
X4025Y6511D03*
X3868Y4109D03*
X3986Y6550D03*
X3986Y5723D03*
X3828Y4070D03*
X3947Y5015D03*
X3986Y841D03*
X4065Y4070D03*
X3868Y723D03*
X3986Y3243D03*
X4065Y3322D03*
X3907Y2337D03*
X4025Y5015D03*
X3868Y802D03*
X4025Y5684D03*
X4065Y4975D03*
X3947Y6668D03*
X10443Y4070D03*
X3907Y5881D03*
X3907Y920D03*
X3907Y5645D03*
X3907Y6471D03*
X3907Y3322D03*
X3986Y763D03*
X3868Y881D03*
X3868Y5684D03*
X3199Y1589D03*
X3159Y3361D03*
X4065Y5723D03*
X3120Y3991D03*
X3041Y4227D03*
X3907Y2574D03*
X3080Y5763D03*
X3080Y723D03*
X3986Y5645D03*
X3907Y2495D03*
X3947Y1629D03*
X3868Y6511D03*
X3986Y2337D03*
X3986Y6471D03*
X3907Y4896D03*
X3947Y2377D03*
X4025Y2377D03*
X3947Y4109D03*
X4025Y3204D03*
X4025Y2456D03*
X3986Y4975D03*
X4025Y1550D03*
X3986Y6629D03*
X3828Y1589D03*
X3907Y5802D03*
X3947Y3204D03*
X3868Y5841D03*
X10482Y4188D03*
X8829Y2495D03*
X9773Y4936D03*
X8829Y4896D03*
X11388Y1550D03*
X8947Y2534D03*
X10482Y881D03*
X8907Y684D03*
X11309Y5763D03*
X8907Y5054D03*
X9773Y3282D03*
X9616Y6511D03*
X11388Y2456D03*
X9695Y5841D03*
X11230Y5841D03*
X10403Y4109D03*
X8868Y4936D03*
X11191Y6550D03*
X11191Y1668D03*
X11230Y4109D03*
X10482Y6668D03*
X11348Y5802D03*
X8789Y3361D03*
X8829Y1668D03*
X9577Y763D03*
X9695Y881D03*
X11269Y684D03*
X9773Y1629D03*
X9655Y2495D03*
X11269Y2574D03*
X9655Y763D03*
X8789Y6668D03*
X11348Y5054D03*
X10561Y5684D03*
X10443Y6629D03*
X8868Y5763D03*
X9813Y4975D03*
X11269Y1747D03*
X8907Y3322D03*
X8907Y2416D03*
X8750Y2416D03*
X10600Y3322D03*
X10364Y6629D03*
X9577Y6550D03*
X9655Y3164D03*
X10561Y3361D03*
X11230Y4936D03*
X11191Y4896D03*
X11388Y2534D03*
X8986Y4975D03*
X10443Y3991D03*
X9616Y6589D03*
X11191Y5802D03*
X10600Y841D03*
X8789Y5763D03*
X10561Y4109D03*
X8907Y5881D03*
X11230Y881D03*
X8947Y3282D03*
X8868Y881D03*
X8750Y1589D03*
X11191Y841D03*
X11269Y3243D03*
X9616Y2534D03*
X10521Y4070D03*
X8868Y6589D03*
X8789Y3204D03*
X9734Y4227D03*
X9616Y4857D03*
X10403Y3282D03*
X8907Y1747D03*
X10521Y3991D03*
X11269Y4818D03*
X11348Y6707D03*
X11309Y6511D03*
X10521Y4818D03*
X10482Y802D03*
X10561Y723D03*
X8829Y5802D03*
X9655Y5802D03*
X9773Y4109D03*
X8907Y1668D03*
X10443Y4227D03*
X9616Y881D03*
X9813Y3322D03*
X8947Y5763D03*
X8750Y841D03*
X10443Y841D03*
X9655Y920D03*
X11269Y920D03*
X10443Y3243D03*
X10561Y3204D03*
X8947Y5684D03*
X9813Y6550D03*
X10561Y5763D03*
X9655Y684D03*
X8750Y4975D03*
X11269Y1668D03*
X11230Y5684D03*
X9734Y1747D03*
X10561Y5015D03*
X11348Y920D03*
X9577Y5723D03*
X9695Y723D03*
X9655Y1668D03*
X10403Y1708D03*
X11269Y1589D03*
X8868Y4030D03*
X10561Y6511D03*
X9734Y2495D03*
X10443Y4975D03*
X9734Y1589D03*
X10521Y4975D03*
X11269Y5881D03*
X10561Y5841D03*
X8750Y3243D03*
X8947Y6668D03*
X11230Y4030D03*
X9734Y5723D03*
X11388Y4109D03*
X9616Y1550D03*
X8907Y920D03*
X10443Y4148D03*
X10482Y2377D03*
X8750Y2495D03*
X11269Y2495D03*
X11348Y3243D03*
X9695Y802D03*
X10443Y2337D03*
X8829Y5054D03*
X9773Y6589D03*
X9813Y4070D03*
X11309Y1707D03*
X10521Y920D03*
X10364Y6550D03*
X11191Y4975D03*
X11427Y3243D03*
X10521Y763D03*
X10521Y2416D03*
X8829Y4070D03*
X9773Y4030D03*
X10403Y4030D03*
X11388Y4857D03*
X8947Y4936D03*
X11427Y2416D03*
X11388Y4030D03*
X8907Y6707D03*
X11348Y1589D03*
X8947Y5015D03*
X8986Y1668D03*
X11388Y3282D03*
X9734Y5054D03*
X9695Y5684D03*
X8986Y2495D03*
X8789Y723D03*
X8907Y4975D03*
X11427Y4070D03*
X10600Y2416D03*
X11309Y3361D03*
X11269Y6471D03*
X8868Y723D03*
X9813Y763D03*
X11230Y6511D03*
X8907Y3164D03*
X10403Y5763D03*
X9655Y3322D03*
X8750Y1668D03*
X10521Y1747D03*
X10443Y6708D03*
X9695Y2534D03*
X11388Y5015D03*
X9655Y6629D03*
X10403Y4936D03*
X8986Y1589D03*
X10482Y4030D03*
X11309Y4109D03*
X11348Y2495D03*
X11427Y6629D03*
X8789Y2534D03*
X10364Y4148D03*
X8829Y3322D03*
X8868Y2456D03*
X3041Y1511D03*
X9734Y5881D03*
X8829Y1589D03*
X10600Y2495D03*
X8789Y4188D03*
X10600Y1668D03*
X8907Y4818D03*
X10443Y1511D03*
X8986Y6550D03*
X9655Y2574D03*
X11388Y881D03*
X10482Y4936D03*
X10403Y6668D03*
X9655Y1511D03*
X10403Y1550D03*
X9577Y4975D03*
X9773Y6668D03*
X8947Y1707D03*
X8829Y5723D03*
X11230Y2534D03*
X10600Y5723D03*
X8750Y763D03*
X11348Y6629D03*
X9616Y3361D03*
X11427Y2495D03*
X11309Y1629D03*
X8789Y5841D03*
X11309Y3204D03*
X8789Y4936D03*
X8868Y3361D03*
X11348Y4975D03*
X11230Y802D03*
X8947Y881D03*
X8750Y4070D03*
X9577Y3322D03*
X10521Y6550D03*
X11230Y3204D03*
X9773Y5841D03*
X10482Y6589D03*
X8829Y2574D03*
X11269Y6629D03*
X11348Y4896D03*
X9734Y4148D03*
X9773Y4188D03*
X11269Y4227D03*
X8907Y1589D03*
X9734Y1511D03*
X11309Y4188D03*
X9655Y6707D03*
X8986Y4148D03*
X11427Y763D03*
X10600Y763D03*
X11230Y6589D03*
X9813Y2416D03*
X9734Y4070D03*
X8789Y6511D03*
X9655Y5645D03*
X9616Y802D03*
X8907Y4896D03*
X9695Y4188D03*
X11191Y2495D03*
X8868Y2534D03*
X8829Y4975D03*
X9616Y6668D03*
X10521Y6629D03*
X8829Y3164D03*
X10482Y3204D03*
X10521Y6471D03*
X11269Y4070D03*
X11191Y4070D03*
X8868Y4188D03*
X9773Y1550D03*
X10482Y3282D03*
X11348Y2416D03*
X11388Y3361D03*
X10403Y881D03*
X8907Y5645D03*
X11230Y2456D03*
X9616Y2456D03*
X11348Y3991D03*
X8868Y6511D03*
X9655Y1747D03*
X10443Y6550D03*
X8907Y3243D03*
X9616Y1707D03*
X11348Y2337D03*
X9616Y4936D03*
X8829Y4227D03*
X11309Y802D03*
X11309Y2456D03*
X11427Y4975D03*
X9655Y4227D03*
X9655Y4896D03*
X8829Y1511D03*
X9734Y6707D03*
X10364Y2495D03*
X10482Y4857D03*
X8907Y3400D03*
X11230Y2377D03*
X10521Y3164D03*
X8868Y1550D03*
X10521Y684D03*
X9616Y4188D03*
X11269Y4975D03*
X11348Y1511D03*
X9655Y841D03*
X10521Y2495D03*
X11230Y4857D03*
X8829Y2337D03*
X11427Y4896D03*
X8986Y6629D03*
X10443Y5723D03*
X11427Y5723D03*
X11269Y4896D03*
X3080Y1629D03*
X1466Y2377D03*
X1545Y2377D03*
X2962Y5723D03*
X1427Y4896D03*
X1427Y920D03*
X1506Y4148D03*
X1466Y6668D03*
X1506Y5802D03*
X1506Y6471D03*
X1466Y3204D03*
X1388Y5841D03*
X1506Y2337D03*
X1427Y5802D03*
X1545Y3204D03*
X1466Y1629D03*
X1466Y4109D03*
X1427Y2495D03*
X1388Y2456D03*
X1427Y5723D03*
X1388Y5015D03*
X1427Y763D03*
X1427Y1747D03*
X1545Y6511D03*
X1388Y723D03*
X1506Y3243D03*
X1584Y3322D03*
X1545Y4857D03*
X1545Y1629D03*
X1506Y2574D03*
X1427Y1668D03*
X1466Y4030D03*
X1545Y6668D03*
X1427Y6707D03*
X1427Y6550D03*
X1388Y4857D03*
X1584Y6550D03*
X1348Y1589D03*
X600Y920D03*
X640Y1629D03*
X1506Y6629D03*
X758Y763D03*
X679Y684D03*
X600Y763D03*
X679Y920D03*
X640Y1550D03*
X561Y1629D03*
X640Y723D03*
X521Y1589D03*
X640Y1707D03*
X561Y881D03*
X758Y1589D03*
X679Y1668D03*
X600Y1668D03*
X718Y723D03*
X679Y763D03*
X1388Y881D03*
X1427Y3322D03*
X521Y1668D03*
X1506Y5645D03*
X1388Y6511D03*
X1545Y2456D03*
X1506Y4975D03*
X1545Y1550D03*
X1506Y763D03*
X1427Y6471D03*
X1427Y2574D03*
X679Y1747D03*
X600Y1511D03*
X1584Y5723D03*
X1388Y5684D03*
X1427Y5645D03*
X1388Y3361D03*
X1427Y5881D03*
X1427Y2337D03*
X1466Y5684D03*
X1545Y4936D03*
X1545Y5015D03*
X1466Y4857D03*
X1427Y3991D03*
X1545Y4030D03*
X1348Y4148D03*
X1466Y2456D03*
X1388Y2534D03*
X1466Y3282D03*
X1545Y2534D03*
X1466Y5841D03*
X1584Y2416D03*
X1388Y1550D03*
X1466Y802D03*
X1506Y5881D03*
X1506Y1511D03*
X1545Y881D03*
X1466Y4936D03*
X1506Y4070D03*
X1388Y1629D03*
X1506Y4818D03*
X1506Y5054D03*
X1506Y3400D03*
X1348Y6629D03*
X1466Y1707D03*
X1427Y5054D03*
X1584Y3243D03*
X1506Y684D03*
X1348Y2495D03*
X1466Y6511D03*
X1584Y5802D03*
X1388Y3282D03*
X1506Y2495D03*
X1427Y3400D03*
X1348Y3322D03*
X1545Y6589D03*
X1348Y4070D03*
X1466Y5015D03*
X1466Y2534D03*
X1506Y5723D03*
X1545Y802D03*
X1506Y1747D03*
X1427Y841D03*
X1388Y6589D03*
X1506Y6550D03*
X1545Y5684D03*
X1584Y4975D03*
X1388Y4109D03*
X1388Y802D03*
X1584Y4070D03*
X1427Y6629D03*
X1506Y841D03*
X1388Y4030D03*
X1348Y2416D03*
X1506Y3322D03*
X1466Y1550D03*
X1388Y1707D03*
X1545Y1707D03*
X1388Y6668D03*
X1348Y4975D03*
X1348Y5723D03*
X1427Y1511D03*
X1427Y1589D03*
X1348Y841D03*
X1545Y5841D03*
X1348Y6550D03*
X1348Y4896D03*
X1506Y2416D03*
X1506Y1668D03*
X1427Y4818D03*
X1584Y841D03*
X1348Y1668D03*
X640Y802D03*
X679Y4896D03*
X679Y5054D03*
X600Y841D03*
X561Y4936D03*
X521Y4896D03*
X561Y4857D03*
X561Y5015D03*
X758Y4896D03*
X758Y4975D03*
X640Y5684D03*
X600Y5645D03*
X640Y4857D03*
X521Y5802D03*
X640Y5763D03*
X600Y4818D03*
X718Y5684D03*
X640Y5015D03*
X679Y4818D03*
X640Y4030D03*
X758Y4148D03*
X718Y4936D03*
X679Y4070D03*
X679Y4227D03*
X561Y4188D03*
X561Y4109D03*
X521Y4070D03*
X600Y3991D03*
X640Y4188D03*
X600Y4896D03*
X679Y4975D03*
X640Y4936D03*
X718Y5015D03*
X600Y5054D03*
X521Y4975D03*
X718Y4857D03*
X600Y4975D03*
X679Y5645D03*
X521Y6550D03*
X600Y6550D03*
X679Y5881D03*
X718Y6589D03*
X679Y6550D03*
X640Y6511D03*
X758Y6550D03*
X561Y6511D03*
X640Y6589D03*
X718Y6668D03*
X640Y6668D03*
X561Y6589D03*
X561Y6668D03*
X679Y6629D03*
X758Y6629D03*
X600Y6629D03*
X521Y6629D03*
X718Y6511D03*
X561Y5684D03*
X718Y5763D03*
X600Y6471D03*
X600Y5723D03*
X758Y5802D03*
X600Y5802D03*
X679Y5723D03*
X561Y5763D03*
X758Y5723D03*
X521Y5723D03*
X679Y6707D03*
X679Y6471D03*
X600Y6707D03*
X561Y5841D03*
X679Y5802D03*
X600Y5881D03*
X718Y5841D03*
X640Y5841D03*
X758Y4070D03*
X640Y3204D03*
X600Y2416D03*
X561Y4030D03*
X679Y2416D03*
X521Y3322D03*
X718Y1550D03*
X679Y3400D03*
X600Y3164D03*
X679Y2574D03*
X718Y2377D03*
X679Y3322D03*
X679Y2337D03*
X640Y3361D03*
X561Y3282D03*
X758Y2416D03*
X600Y2574D03*
X640Y3282D03*
X718Y881D03*
X561Y802D03*
X758Y841D03*
X679Y1511D03*
X521Y841D03*
X679Y841D03*
X640Y881D03*
X718Y1629D03*
X600Y684D03*
X718Y1707D03*
X561Y1707D03*
X718Y802D03*
X521Y763D03*
X758Y1668D03*
X600Y1747D03*
X561Y723D03*
X561Y1550D03*
X679Y1589D03*
X600Y1589D03*
X600Y3322D03*
X521Y4148D03*
X718Y3204D03*
X758Y3243D03*
X718Y2534D03*
X679Y3164D03*
X718Y2456D03*
X521Y2416D03*
X758Y3322D03*
X600Y4148D03*
X679Y3991D03*
X718Y4109D03*
X718Y4030D03*
X679Y4148D03*
X640Y4109D03*
X600Y4227D03*
X600Y4070D03*
X718Y4188D03*
X600Y3400D03*
X600Y2337D03*
X640Y2534D03*
X561Y2377D03*
X600Y2495D03*
X640Y2456D03*
X561Y2534D03*
X640Y2377D03*
X521Y3243D03*
X718Y3282D03*
X679Y2495D03*
X561Y3204D03*
X679Y3243D03*
X600Y3243D03*
X561Y3361D03*
X718Y3361D03*
X521Y2495D03*
X561Y2456D03*
X758Y2495D03*
X1545Y4109D03*
X2332Y723D03*
X2214Y4070D03*
X1388Y2377D03*
X2254Y6589D03*
X2136Y5802D03*
X2293Y1589D03*
X2214Y684D03*
X2175Y5763D03*
X2214Y2416D03*
X2293Y4227D03*
X2175Y4188D03*
X2332Y4188D03*
X2214Y4148D03*
X2372Y763D03*
X2372Y2495D03*
X2293Y3164D03*
X2136Y763D03*
X2293Y4896D03*
X3041Y5645D03*
X3041Y6471D03*
X2372Y1589D03*
X3120Y763D03*
X3002Y881D03*
X3002Y6511D03*
X3041Y3322D03*
X3120Y5645D03*
X3041Y5881D03*
X3002Y3361D03*
X2214Y4227D03*
X2332Y3361D03*
X2293Y3991D03*
X2254Y5763D03*
X2254Y723D03*
X3002Y5684D03*
X3041Y2574D03*
X3199Y5723D03*
X2214Y3164D03*
X2372Y3243D03*
X2214Y5054D03*
X2372Y6629D03*
X2254Y4936D03*
X2293Y4070D03*
X2136Y6629D03*
X2293Y4818D03*
X2293Y5054D03*
X2293Y2495D03*
X2175Y1629D03*
X2136Y2495D03*
X2136Y3322D03*
X2254Y6511D03*
X2293Y684D03*
X2214Y3400D03*
X2372Y5802D03*
X2175Y3282D03*
X2254Y1708D03*
X2254Y881D03*
X2293Y6708D03*
X2293Y3400D03*
X2372Y4148D03*
X2175Y4936D03*
X2214Y3243D03*
X2175Y3204D03*
X2372Y1668D03*
X2372Y4896D03*
X2254Y3361D03*
X2332Y5763D03*
X2332Y4109D03*
X2175Y2377D03*
X2214Y4975D03*
X2293Y920D03*
X2332Y3282D03*
X2254Y4188D03*
X2136Y3243D03*
X3120Y4975D03*
X3041Y6629D03*
X3002Y4109D03*
X3159Y1550D03*
X3120Y6550D03*
X2962Y4070D03*
X3159Y802D03*
X3080Y5015D03*
X3120Y5723D03*
X3002Y4030D03*
X3002Y723D03*
X3041Y2337D03*
X3120Y841D03*
X3159Y5015D03*
X3159Y5684D03*
X3199Y4070D03*
X3199Y4975D03*
X3002Y802D03*
X3041Y841D03*
X3041Y4818D03*
X2962Y841D03*
X3002Y6589D03*
X3041Y1589D03*
X3120Y3322D03*
X3002Y6668D03*
X3080Y1550D03*
X3159Y1707D03*
X2962Y1668D03*
X3199Y841D03*
X3002Y1707D03*
X3120Y1747D03*
X2962Y2416D03*
X2962Y6550D03*
X2962Y4896D03*
X3120Y1668D03*
X3159Y5841D03*
X3120Y2416D03*
X3199Y3322D03*
X11269Y2337D03*
X3120Y2337D03*
X3120Y3243D03*
X3120Y6471D03*
X3080Y2377D03*
X3041Y920D03*
X3159Y2377D03*
X3041Y4896D03*
X3041Y2495D03*
X3159Y2456D03*
X3120Y6629D03*
X3080Y4109D03*
X2962Y1589D03*
X3080Y3204D03*
X3159Y3204D03*
X3002Y5841D03*
X3041Y5802D03*
X3080Y6668D03*
X3041Y6550D03*
X3159Y1629D03*
X3120Y5802D03*
X3159Y4857D03*
X3041Y5723D03*
X3159Y6511D03*
X3002Y5015D03*
X3041Y1747D03*
X3199Y6550D03*
X3002Y4857D03*
X3041Y763D03*
X3120Y4148D03*
X3002Y2456D03*
X3041Y1668D03*
X3080Y4030D03*
X3041Y6707D03*
X3120Y2574D03*
X3159Y6668D03*
X2332Y881D03*
X2214Y6471D03*
X2293Y763D03*
X2332Y4030D03*
X2175Y881D03*
X2214Y3322D03*
X2293Y4975D03*
X2293Y5645D03*
X2175Y6511D03*
X2214Y5645D03*
X1427Y4227D03*
X1466Y5763D03*
X2214Y5881D03*
X1466Y723D03*
X2214Y2574D03*
X2175Y3361D03*
X2372Y5723D03*
X2175Y5684D03*
X2332Y1550D03*
X2293Y6471D03*
X2254Y2377D03*
X2332Y2456D03*
X2332Y2377D03*
X2214Y4896D03*
X2293Y5802D03*
X2214Y920D03*
X2254Y6668D03*
X2293Y2337D03*
X2254Y1629D03*
X2254Y3204D03*
X2293Y6629D03*
X2136Y1589D03*
X2175Y5841D03*
X2214Y5802D03*
X2214Y2495D03*
X2332Y3204D03*
X2254Y4109D03*
X1506Y3991D03*
X1506Y6707D03*
X1584Y4148D03*
X1545Y3361D03*
X1388Y4936D03*
X1388Y3204D03*
X1584Y6629D03*
X1584Y1668D03*
X1427Y3243D03*
X1466Y881D03*
X1545Y5763D03*
X1427Y4975D03*
X1584Y4896D03*
X1506Y920D03*
X1466Y4188D03*
X1466Y3361D03*
X1348Y3243D03*
X1545Y3282D03*
X1427Y3164D03*
X1466Y6589D03*
X1348Y5802D03*
X1506Y4227D03*
X1427Y684D03*
X1388Y5763D03*
X1584Y1589D03*
X1506Y1589D03*
X1506Y4896D03*
X1427Y4070D03*
X1545Y723D03*
X1584Y763D03*
X1388Y4188D03*
X1427Y4148D03*
X1506Y3164D03*
X1348Y763D03*
X1427Y2416D03*
X1584Y2495D03*
X1545Y4188D03*
X2293Y4148D03*
X2136Y841D03*
X2214Y1589D03*
X2175Y2456D03*
X2293Y3322D03*
X2254Y1550D03*
X2136Y5723D03*
X2332Y1708D03*
X2175Y6668D03*
X2214Y4818D03*
X2175Y1708D03*
X2136Y6550D03*
X2136Y1668D03*
X2136Y4896D03*
X2332Y5841D03*
X2372Y841D03*
X2293Y2416D03*
X2293Y1668D03*
X2214Y1511D03*
X2175Y2534D03*
X2254Y5684D03*
X2136Y4975D03*
X2332Y4936D03*
X2254Y4857D03*
X2254Y2456D03*
X2214Y3991D03*
X2136Y4148D03*
X2254Y5841D03*
X2254Y802D03*
X2254Y3282D03*
X2254Y2534D03*
X2332Y6589D03*
X2332Y2534D03*
X2372Y2416D03*
X2293Y1511D03*
X2175Y1550D03*
X2293Y5881D03*
X2136Y2416D03*
X2332Y1629D03*
X2332Y4857D03*
X2293Y1747D03*
X2214Y5723D03*
X2175Y5015D03*
X2293Y3243D03*
X2214Y1747D03*
X2332Y6511D03*
X2214Y6550D03*
X2214Y763D03*
X2214Y1668D03*
X2372Y6550D03*
X2254Y4030D03*
X2293Y2574D03*
X2175Y4857D03*
X2332Y6668D03*
X2214Y6708D03*
X2372Y3322D03*
X2293Y6550D03*
X2136Y4070D03*
X2175Y723D03*
X2254Y5015D03*
X2293Y5723D03*
X2175Y6589D03*
X2332Y802D03*
X2214Y841D03*
X2175Y4109D03*
X2214Y6629D03*
X2332Y5684D03*
X2214Y2337D03*
X2332Y5015D03*
X2372Y4975D03*
X2175Y802D03*
X2175Y4030D03*
X2372Y4070D03*
X2293Y841D03*
X8829Y841D03*
X5600Y5881D03*
X7293Y1668D03*
X6230Y5723D03*
X7962Y6511D03*
X7254Y5015D03*
X4773Y841D03*
X5482Y6589D03*
X5679Y5723D03*
X6388Y4896D03*
X4773Y4148D03*
X7923Y4148D03*
X8002Y841D03*
X7293Y4975D03*
X7096Y1629D03*
X5679Y3243D03*
X7096Y5684D03*
X5521Y2495D03*
X8080Y1747D03*
X5521Y5723D03*
X4813Y5684D03*
X6348Y4857D03*
X7057Y4070D03*
X7175Y1629D03*
X5482Y5684D03*
X5640Y5015D03*
X6348Y1550D03*
X8080Y2337D03*
X5600Y3164D03*
X6388Y6550D03*
X5521Y4896D03*
X4734Y6511D03*
X5443Y2416D03*
X6309Y6629D03*
X8159Y4896D03*
X6427Y5684D03*
X6348Y881D03*
X8080Y1589D03*
X8120Y1550D03*
X8120Y6668D03*
X5679Y4070D03*
X4773Y1589D03*
X6269Y2377D03*
X4695Y6708D03*
X5521Y3164D03*
X5521Y4975D03*
X6309Y3322D03*
X5482Y4030D03*
X7923Y3243D03*
X5521Y5054D03*
X4655Y1707D03*
X5640Y6589D03*
X6388Y2416D03*
X6348Y4109D03*
X7214Y5802D03*
X8080Y5645D03*
X4813Y3282D03*
X5521Y6629D03*
X5561Y1550D03*
X8120Y4936D03*
X6309Y3400D03*
X5640Y3361D03*
X4734Y2534D03*
X6348Y723D03*
X6230Y763D03*
X5521Y5645D03*
X5640Y4857D03*
X7254Y802D03*
X5521Y4227D03*
X6309Y5723D03*
X4655Y6511D03*
X5443Y5723D03*
X8080Y6707D03*
X7136Y763D03*
X7254Y723D03*
X8002Y2574D03*
X7293Y3243D03*
X6427Y4936D03*
X6388Y3164D03*
X4695Y2574D03*
X7214Y4227D03*
X7096Y723D03*
X6427Y4109D03*
X4852Y1668D03*
X7214Y5881D03*
X5561Y4936D03*
X6388Y1511D03*
X7254Y5763D03*
X5600Y6550D03*
X5521Y3322D03*
X5600Y6629D03*
X8080Y4818D03*
X4852Y3243D03*
X5521Y1668D03*
X8002Y6550D03*
X8080Y1668D03*
X7962Y5684D03*
X4695Y4148D03*
X4773Y6629D03*
X8120Y4857D03*
X5600Y841D03*
X7254Y4936D03*
X8120Y5684D03*
X7962Y4109D03*
X5600Y1668D03*
X4773Y1747D03*
X6466Y1589D03*
X8041Y4936D03*
X5640Y4109D03*
X7293Y841D03*
X5482Y6511D03*
X7962Y723D03*
X7962Y6589D03*
X5521Y4818D03*
X6269Y4857D03*
X6309Y2337D03*
X7214Y4148D03*
X7923Y4070D03*
X4695Y2495D03*
X6230Y2416D03*
X7057Y4975D03*
X6269Y3204D03*
X4655Y4936D03*
X7923Y763D03*
X4695Y763D03*
X5600Y5645D03*
X8080Y4227D03*
X7057Y2495D03*
X7962Y1629D03*
X4813Y5763D03*
X6388Y5723D03*
X4616Y5723D03*
X7136Y1747D03*
X8159Y841D03*
X4773Y3243D03*
X8080Y920D03*
X8120Y6511D03*
X5482Y802D03*
X5640Y723D03*
X8080Y684D03*
X8080Y3322D03*
X4695Y3991D03*
X6348Y6511D03*
X7923Y3322D03*
X7214Y4975D03*
X7293Y6550D03*
X6269Y3282D03*
X5600Y6471D03*
X6230Y4896D03*
X6388Y763D03*
X8041Y6589D03*
X4734Y2377D03*
X6269Y5015D03*
X5679Y763D03*
X6388Y4818D03*
X6466Y5723D03*
X8080Y6550D03*
X5521Y6707D03*
X7254Y5841D03*
X4655Y4188D03*
X4695Y5802D03*
X7175Y881D03*
X7175Y6511D03*
X5561Y3282D03*
X7293Y5723D03*
X7136Y6550D03*
X7293Y6629D03*
X4655Y3204D03*
X6309Y5881D03*
X6388Y5881D03*
X7254Y1550D03*
X7136Y6629D03*
X5600Y4896D03*
X8002Y1589D03*
X7175Y4188D03*
X6348Y6668D03*
X6348Y5684D03*
X7254Y2456D03*
X4813Y723D03*
X5561Y4857D03*
X7136Y5881D03*
X7096Y881D03*
X8002Y4975D03*
X7096Y2456D03*
X8002Y5645D03*
X6309Y2574D03*
X8002Y3322D03*
X6269Y3361D03*
X4773Y3400D03*
X5482Y2534D03*
X4813Y4188D03*
X6466Y4148D03*
X7096Y2377D03*
X6269Y6589D03*
X7136Y4148D03*
X8041Y6511D03*
X5521Y3991D03*
X6269Y5684D03*
X8041Y3282D03*
X7175Y6589D03*
X7214Y2416D03*
X6309Y6550D03*
X7214Y5723D03*
X6348Y2456D03*
X8080Y5054D03*
X5640Y5841D03*
X5561Y6589D03*
X7096Y5015D03*
X6466Y5802D03*
X5640Y2534D03*
X4695Y4896D03*
X8041Y2456D03*
X5482Y3361D03*
X8041Y802D03*
X4734Y2456D03*
X4616Y5802D03*
X6388Y3322D03*
X5521Y5881D03*
X8080Y6471D03*
X4655Y723D03*
X7214Y6708D03*
X5482Y4109D03*
X4695Y3164D03*
X6427Y802D03*
X5521Y3243D03*
X6427Y5015D03*
X6427Y6668D03*
X6348Y5841D03*
X8080Y3164D03*
X4813Y802D03*
X4734Y4936D03*
X8120Y1707D03*
X4695Y6550D03*
X5482Y723D03*
X7214Y2574D03*
X6230Y4148D03*
X4734Y5015D03*
X7962Y4936D03*
X5679Y5802D03*
X7057Y4148D03*
X4616Y2495D03*
X4695Y3322D03*
X5600Y5054D03*
X4852Y763D03*
X7254Y1707D03*
X7057Y6550D03*
X8041Y5015D03*
X6309Y4148D03*
X7214Y3164D03*
X7096Y4857D03*
X7136Y2574D03*
X6388Y2337D03*
X4813Y5015D03*
X4773Y4818D03*
X7057Y3243D03*
X4616Y6629D03*
X6427Y6589D03*
X5679Y2416D03*
X6466Y2495D03*
X7923Y5723D03*
X4734Y3361D03*
X8041Y1550D03*
X7136Y3991D03*
X5482Y4936D03*
X5679Y4896D03*
X5521Y6550D03*
X6388Y4227D03*
X7214Y684D03*
X5600Y1589D03*
X5600Y2416D03*
X4773Y4227D03*
X4773Y6550D03*
X8159Y2416D03*
X6427Y881D03*
X5521Y5802D03*
X4655Y5684D03*
X5521Y920D03*
X7293Y4896D03*
X4616Y4070D03*
X8159Y3322D03*
X4734Y4188D03*
X4695Y920D03*
X7214Y3322D03*
X7175Y3282D03*
X5443Y3322D03*
X5679Y841D03*
X5482Y2456D03*
X4655Y5841D03*
X8041Y2534D03*
X6466Y1668D03*
X6269Y5763D03*
X5561Y5015D03*
X5640Y3204D03*
X5561Y1629D03*
X7175Y2534D03*
X6269Y4109D03*
X5521Y684D03*
X7136Y684D03*
X4655Y2534D03*
X5443Y3243D03*
X5679Y4148D03*
X4655Y1629D03*
X4813Y2534D03*
X4813Y1707D03*
X5482Y1629D03*
X5482Y6668D03*
X5600Y3991D03*
X8080Y2574D03*
X7175Y5841D03*
X6309Y3991D03*
X4813Y4030D03*
X4655Y5763D03*
X6466Y4070D03*
X5561Y5763D03*
X7057Y6629D03*
X4616Y4148D03*
X6269Y2456D03*
X5561Y3361D03*
X8080Y763D03*
X4695Y1668D03*
X5521Y2574D03*
X4773Y6471D03*
X8120Y2456D03*
X7057Y3322D03*
X6427Y6511D03*
X7254Y1629D03*
X6466Y763D03*
X7175Y2456D03*
X5640Y5684D03*
X5443Y5802D03*
X7923Y4975D03*
X5679Y1589D03*
X4813Y5841D03*
X7962Y5841D03*
X5482Y5015D03*
X5600Y5802D03*
X5482Y4188D03*
X8002Y3243D03*
X6269Y723D03*
X5640Y2377D03*
X8002Y2416D03*
X6269Y4188D03*
X5443Y4148D03*
X6348Y2377D03*
X7175Y5015D03*
X7214Y4818D03*
X6309Y920D03*
X6427Y723D03*
X6427Y5841D03*
X8080Y5802D03*
X7136Y1668D03*
X5600Y4975D03*
X6348Y1629D03*
X7096Y3282D03*
X4852Y2495D03*
X8041Y6668D03*
X7136Y2495D03*
X5561Y5841D03*
X5600Y684D03*
X4773Y3164D03*
X4655Y4109D03*
X4695Y4818D03*
X5600Y3322D03*
X8159Y4975D03*
X5521Y6471D03*
X6269Y1550D03*
X4773Y5802D03*
X4616Y1668D03*
X7214Y1747D03*
X6309Y5645D03*
X5679Y6629D03*
X6269Y802D03*
X6388Y6471D03*
X8120Y5015D03*
X4773Y2495D03*
X6466Y6550D03*
X5443Y4975D03*
X8080Y5881D03*
X5600Y4148D03*
X6388Y684D03*
X8041Y4857D03*
X8002Y1668D03*
X7096Y4188D03*
X7214Y2337D03*
X7254Y881D03*
X5443Y6629D03*
X5443Y1589D03*
X8080Y5723D03*
X6309Y3243D03*
X8002Y3400D03*
X6230Y2495D03*
X7057Y1668D03*
X6269Y5841D03*
X4655Y6668D03*
X6388Y4975D03*
X8159Y1589D03*
X6348Y4936D03*
X5600Y920D03*
X6427Y2377D03*
X5561Y3204D03*
X4734Y723D03*
X5561Y2534D03*
X4655Y3361D03*
X7962Y4188D03*
X5600Y2337D03*
X8120Y3361D03*
X7057Y841D03*
X7254Y6511D03*
X8002Y6707D03*
X4655Y5015D03*
X6309Y1747D03*
X4695Y5054D03*
X7136Y5645D03*
X4852Y841D03*
X5640Y3282D03*
X8159Y5802D03*
X8041Y2377D03*
X8159Y763D03*
X5443Y763D03*
X7136Y3400D03*
X4773Y4070D03*
X8002Y3991D03*
X6269Y6511D03*
X7175Y5763D03*
X7096Y6511D03*
X7175Y3204D03*
X7923Y1589D03*
X5521Y1747D03*
X4695Y4227D03*
X7962Y802D03*
X6466Y4896D03*
X4695Y6629D03*
X4734Y1707D03*
X7175Y4936D03*
X6388Y1589D03*
X6230Y4070D03*
X5600Y3400D03*
X6348Y6589D03*
X5561Y2456D03*
X7254Y6589D03*
X7962Y3361D03*
X5443Y6550D03*
X8120Y3204D03*
X4616Y4975D03*
X7214Y1668D03*
X7254Y2377D03*
X7057Y5802D03*
X4695Y684D03*
X7962Y2377D03*
X5482Y5763D03*
X7136Y2337D03*
X4695Y841D03*
X8002Y2495D03*
X6348Y3204D03*
X5561Y881D03*
X7175Y4857D03*
X7923Y6629D03*
X4616Y3322D03*
X4813Y2456D03*
X7096Y1550D03*
X7923Y4896D03*
X4813Y2377D03*
X7136Y1511D03*
X7175Y2377D03*
X6388Y1747D03*
X4734Y4109D03*
X6269Y4030D03*
X8002Y5802D03*
X7254Y4188D03*
X4773Y5723D03*
X7962Y2456D03*
X7962Y4030D03*
X4773Y684D03*
X7214Y6550D03*
X7096Y4936D03*
X8002Y920D03*
X7096Y4030D03*
X4813Y6668D03*
X8041Y3204D03*
X7136Y4227D03*
X7254Y2534D03*
X4734Y1550D03*
X6466Y2416D03*
X7096Y3204D03*
X8041Y1629D03*
X8080Y2495D03*
X4813Y4857D03*
X4852Y6629D03*
X5600Y1511D03*
X4655Y2377D03*
X6348Y2534D03*
X7923Y2416D03*
X5443Y4070D03*
X8120Y6589D03*
X4852Y5802D03*
X7293Y4148D03*
X5443Y4896D03*
X5561Y2377D03*
X8080Y3243D03*
X7214Y2495D03*
X5482Y1550D03*
X5640Y6511D03*
X7293Y5802D03*
X4813Y4936D03*
X5561Y1707D03*
X6388Y841D03*
X5640Y881D03*
X4773Y5881D03*
X4773Y2574D03*
X5640Y1707D03*
X7962Y2534D03*
X8159Y4148D03*
X7136Y2416D03*
X4773Y1668D03*
X7136Y5054D03*
X7923Y1668D03*
X6348Y5763D03*
X6230Y1668D03*
X7096Y802D03*
X8080Y1511D03*
X6427Y4030D03*
X6427Y1708D03*
X7923Y2495D03*
X6427Y2534D03*
X7096Y3361D03*
X4616Y4896D03*
X7214Y4896D03*
X7136Y920D03*
X6388Y3991D03*
X7293Y763D03*
X4852Y5723D03*
X8002Y684D03*
X6388Y920D03*
X5561Y6668D03*
X7962Y3204D03*
X4695Y3243D03*
X7175Y1550D03*
X6230Y841D03*
X8159Y6629D03*
X7136Y4818D03*
X8041Y4030D03*
X8120Y723D03*
X8002Y4070D03*
X7214Y3400D03*
X4695Y1511D03*
X6427Y3204D03*
X8002Y4148D03*
X7175Y723D03*
X8120Y2534D03*
X4616Y1589D03*
X8120Y881D03*
X4655Y802D03*
X4734Y5841D03*
X5482Y1707D03*
X6230Y6550D03*
X8120Y5763D03*
X6388Y6708D03*
X4852Y1589D03*
X5640Y4030D03*
X5640Y5763D03*
X8080Y4975D03*
X5640Y6668D03*
X4813Y4109D03*
X4616Y841D03*
X4695Y2416D03*
X6309Y4070D03*
X7962Y1550D03*
X4813Y3361D03*
X5600Y763D03*
X8080Y4148D03*
X7962Y1707D03*
X7136Y5802D03*
X5561Y4109D03*
X7254Y6668D03*
X8159Y6550D03*
X5600Y6707D03*
X4773Y6708D03*
X5640Y4936D03*
X7293Y3322D03*
X8002Y4818D03*
X8002Y5881D03*
X6269Y881D03*
X7962Y4857D03*
X6388Y6629D03*
X5482Y3204D03*
X8829Y3243D03*
X8868Y5684D03*
X11269Y1511D03*
X8829Y2416D03*
X10403Y2377D03*
X9695Y1629D03*
X8868Y5015D03*
X9773Y2377D03*
X10364Y2416D03*
X8829Y5881D03*
X11348Y4148D03*
X9734Y3164D03*
X8868Y4109D03*
X10443Y684D03*
X10443Y5054D03*
X8868Y3204D03*
X8868Y1629D03*
X8947Y1629D03*
X9616Y2377D03*
X8829Y6707D03*
X10521Y5054D03*
X11230Y1707D03*
X8829Y763D03*
X9734Y920D03*
X10482Y1708D03*
X9695Y5015D03*
X11269Y5054D03*
X10403Y3204D03*
X10521Y3243D03*
X10600Y1589D03*
X11348Y4818D03*
X9577Y1589D03*
X8868Y6668D03*
X8986Y3243D03*
X11388Y1629D03*
X8907Y2495D03*
X9773Y5763D03*
X9655Y3991D03*
X9616Y5763D03*
X9655Y5054D03*
X9695Y4030D03*
X10482Y6511D03*
X9734Y4975D03*
X8750Y4148D03*
X11191Y4148D03*
X9577Y4148D03*
X10403Y3361D03*
X9655Y4818D03*
X9577Y5802D03*
X8829Y4148D03*
X10521Y3400D03*
X9616Y3204D03*
X10443Y3164D03*
X11348Y6550D03*
X9695Y3282D03*
X10521Y1589D03*
X8907Y4227D03*
X8947Y723D03*
X11348Y3322D03*
X10561Y1629D03*
X10443Y3400D03*
X9655Y2416D03*
X11269Y6550D03*
X10600Y5802D03*
X10443Y4896D03*
X11388Y4936D03*
X9734Y6629D03*
X11269Y841D03*
X11309Y2377D03*
X9655Y4148D03*
X8986Y3322D03*
X10403Y5015D03*
X9773Y4857D03*
X8868Y4857D03*
X10403Y5684D03*
X11427Y841D03*
X9616Y3282D03*
X8789Y4857D03*
X8750Y3322D03*
X11269Y763D03*
X10443Y5802D03*
X9655Y5881D03*
X11388Y2377D03*
X11388Y5763D03*
X11388Y802D03*
X10561Y4936D03*
X9734Y2337D03*
X9577Y2495D03*
X8789Y5684D03*
X10561Y2534D03*
X9773Y881D03*
X11427Y1589D03*
X8907Y6471D03*
X11309Y4936D03*
X10403Y6589D03*
X9655Y1589D03*
X9773Y6511D03*
X8829Y6471D03*
X11230Y3282D03*
X10443Y5645D03*
X10443Y1668D03*
X9616Y4030D03*
X10561Y881D03*
X8907Y3991D03*
X10561Y2377D03*
X8947Y6511D03*
X10482Y3361D03*
X9734Y3322D03*
X10561Y1708D03*
X9655Y6550D03*
X9734Y3991D03*
X10482Y5763D03*
X10600Y6550D03*
X8868Y802D03*
X10521Y5881D03*
X11348Y684D03*
X9734Y6550D03*
X8947Y4188D03*
X6230Y4975D03*
X11348Y5723D03*
X9813Y5802D03*
X8750Y4896D03*
X9773Y2456D03*
X9655Y4975D03*
X9734Y763D03*
X8907Y2574D03*
X9695Y4857D03*
X11388Y5841D03*
X9734Y2416D03*
X9734Y6471D03*
X8829Y3991D03*
X9577Y841D03*
X8789Y802D03*
X9773Y3361D03*
X11309Y6589D03*
X9813Y5723D03*
X10521Y1668D03*
X11309Y3282D03*
X10364Y4070D03*
X10482Y5015D03*
X8907Y6629D03*
X11388Y1707D03*
X11230Y4188D03*
X10443Y2574D03*
X10561Y6589D03*
X10600Y3243D03*
X10521Y5645D03*
X11427Y5802D03*
X8947Y2456D03*
X8907Y4070D03*
X9813Y841D03*
X8829Y6629D03*
X10443Y4818D03*
X9655Y3400D03*
X10364Y5802D03*
X8750Y5802D03*
X9734Y4818D03*
X10482Y2534D03*
X11230Y1629D03*
X11269Y5802D03*
X11309Y4857D03*
X10443Y6471D03*
X9616Y5684D03*
X11230Y5015D03*
X9616Y723D03*
X10600Y4148D03*
X9695Y3204D03*
X8986Y763D03*
X8789Y881D03*
X11230Y1550D03*
X9695Y3361D03*
X9695Y2377D03*
X10403Y6511D03*
X10364Y5723D03*
X9695Y6668D03*
X9655Y3243D03*
X11191Y5723D03*
X9813Y4148D03*
X8789Y1629D03*
X10561Y3282D03*
X11348Y841D03*
X9577Y1668D03*
X11348Y3400D03*
X10600Y4070D03*
X8907Y5802D03*
X9616Y4109D03*
X8829Y4818D03*
X10482Y4109D03*
X11348Y2574D03*
X10521Y6708D03*
X10561Y6668D03*
X10482Y2456D03*
X10364Y3243D03*
X11269Y3400D03*
X8829Y3400D03*
X11348Y1668D03*
X10521Y3322D03*
X8789Y2456D03*
X9616Y5015D03*
X11348Y763D03*
X10443Y5881D03*
X11388Y723D03*
X11427Y3322D03*
X10443Y2416D03*
X11309Y4030D03*
X11309Y723D03*
X11427Y4148D03*
X11230Y6668D03*
X8868Y3282D03*
X11309Y881D03*
X11348Y5645D03*
X8947Y3361D03*
X8789Y1707D03*
X10482Y723D03*
X8868Y5841D03*
X9577Y4896D03*
X9773Y2534D03*
X11230Y3361D03*
X11191Y763D03*
X10482Y5684D03*
X8947Y2377D03*
X8947Y4109D03*
X8868Y1707D03*
X8947Y6589D03*
X11269Y3991D03*
X10521Y2574D03*
X9773Y723D03*
X10403Y4857D03*
X10443Y1747D03*
X11191Y3243D03*
X8829Y5645D03*
X10364Y3322D03*
X10521Y4227D03*
X11388Y6668D03*
X10561Y4857D03*
X10600Y6629D03*
X9773Y3204D03*
X10443Y2495D03*
X8789Y2377D03*
X10403Y5841D03*
X9734Y1668D03*
X11269Y3322D03*
X8947Y1550D03*
X10521Y1511D03*
X10521Y2337D03*
X8829Y1747D03*
X9734Y5645D03*
X8789Y4109D03*
X8907Y2337D03*
X9773Y5684D03*
X8789Y1550D03*
X8947Y802D03*
X11269Y5723D03*
X10364Y841D03*
X9773Y1707D03*
X11348Y4070D03*
X10521Y4896D03*
X8986Y5802D03*
X11269Y6707D03*
X8947Y5841D03*
X10443Y763D03*
X9655Y5723D03*
X9813Y2495D03*
X11309Y5841D03*
X10364Y4896D03*
X11309Y5015D03*
X9813Y1668D03*
X10561Y802D03*
X10521Y4148D03*
X9695Y5763D03*
X10364Y4975D03*
X9695Y6511D03*
X11388Y6511D03*
X11309Y2534D03*
X11309Y5684D03*
X9655Y2337D03*
X9734Y3243D03*
X11388Y3204D03*
X9577Y2416D03*
X8829Y684D03*
X8947Y3204D03*
X10403Y1629D03*
X9813Y6629D03*
X10482Y1629D03*
X9695Y1550D03*
X8907Y841D03*
X8907Y5723D03*
X11269Y2416D03*
X11191Y3322D03*
X10443Y1589D03*
X11269Y4148D03*
X10403Y2456D03*
X9813Y1589D03*
X7136Y4896D03*
X6309Y6471D03*
X4734Y3204D03*
X5521Y4070D03*
X8041Y1707D03*
X4734Y881D03*
X7254Y4857D03*
X8041Y881D03*
X6230Y1589D03*
X8159Y1668D03*
X7057Y1589D03*
X5561Y802D03*
X6309Y5802D03*
X8159Y5723D03*
X4773Y3322D03*
X5640Y1550D03*
X6230Y3322D03*
X8080Y4070D03*
X6309Y4896D03*
X4616Y2416D03*
X4773Y4896D03*
X8080Y3991D03*
X8120Y802D03*
X6269Y4936D03*
X4734Y802D03*
X5640Y2456D03*
X7293Y2416D03*
X7214Y6629D03*
X6309Y2495D03*
X6309Y4818D03*
X4655Y1550D03*
X6388Y5802D03*
X5640Y802D03*
X8080Y3400D03*
X5679Y3322D03*
X4695Y5723D03*
X6348Y5015D03*
X7962Y881D03*
X5443Y2495D03*
X4852Y4148D03*
X5443Y1668D03*
X7214Y3243D03*
X8002Y6471D03*
X7293Y2495D03*
X7136Y1589D03*
X5640Y4188D03*
X8120Y4109D03*
X7136Y841D03*
X8002Y2337D03*
X4813Y3204D03*
X8080Y4896D03*
X7962Y5763D03*
X5600Y5723D03*
X5521Y2337D03*
X7214Y3991D03*
X8002Y4896D03*
X4852Y4896D03*
X6348Y3361D03*
X6309Y5054D03*
X6309Y4227D03*
X6388Y5645D03*
X6388Y3243D03*
X8041Y4188D03*
X8002Y3164D03*
X7254Y3282D03*
X5600Y4070D03*
X6348Y802D03*
X6269Y1708D03*
X6348Y4188D03*
X6466Y3322D03*
X5482Y3282D03*
X8002Y5054D03*
X8986Y4896D03*
X7175Y3361D03*
X8159Y4070D03*
X8041Y5684D03*
X5521Y3400D03*
X6309Y1511D03*
X6427Y1550D03*
X4655Y4857D03*
X8159Y2495D03*
X6427Y1629D03*
X6309Y684D03*
X4813Y6511D03*
X4773Y3991D03*
X7096Y4109D03*
X4695Y6471D03*
X5561Y6511D03*
X6388Y2574D03*
X8080Y841D03*
X7136Y6708D03*
X8041Y723D03*
X4734Y4030D03*
X7136Y3164D03*
X4734Y6668D03*
X7175Y1707D03*
X7096Y5763D03*
X6388Y5054D03*
X5561Y4188D03*
X6309Y3164D03*
X4734Y6589D03*
X7214Y1589D03*
X6427Y3282D03*
X6427Y5763D03*
X5482Y2377D03*
X4655Y6589D03*
X4773Y1511D03*
X6309Y1589D03*
X5482Y881D03*
X6269Y2534D03*
X4734Y5763D03*
X7962Y6668D03*
X7136Y6471D03*
X6348Y3282D03*
X8120Y3282D03*
X7214Y920D03*
X7293Y4070D03*
X7096Y6589D03*
X8120Y4030D03*
X7096Y5841D03*
X7214Y1511D03*
X8159Y3243D03*
X7175Y802D03*
X7096Y6668D03*
X7136Y3322D03*
X8002Y1747D03*
X4616Y6550D03*
X5600Y2495D03*
X4695Y2337D03*
X8080Y2416D03*
X5561Y5684D03*
X4852Y6550D03*
X8002Y763D03*
X7293Y1589D03*
X7254Y3361D03*
X4734Y5684D03*
X8041Y3361D03*
X5600Y4227D03*
X8002Y1511D03*
X6388Y4070D03*
X6388Y2495D03*
X6230Y5802D03*
X4734Y4857D03*
X8120Y4188D03*
X4852Y2416D03*
X6309Y841D03*
X4773Y5054D03*
X7057Y763D03*
X6388Y3400D03*
X7923Y6550D03*
X7254Y4109D03*
X6466Y3243D03*
X8041Y4109D03*
X7214Y4070D03*
X6230Y6629D03*
X4813Y1629D03*
X4655Y2456D03*
X4695Y1747D03*
X4852Y3322D03*
X6309Y6708D03*
X7096Y2534D03*
X7214Y763D03*
X4695Y5645D03*
X8080Y6629D03*
X6309Y1668D03*
X6427Y3361D03*
X8041Y5763D03*
X6348Y1708D03*
X7923Y841D03*
X8002Y4227D03*
X7254Y5684D03*
X4852Y4070D03*
X5561Y4030D03*
X4773Y763D03*
X6427Y4188D03*
X6388Y4148D03*
X6269Y1629D03*
X7175Y4109D03*
X5521Y1511D03*
X4773Y2416D03*
X7254Y4030D03*
X5482Y4857D03*
X11348Y6471D03*
X8789Y6589D03*
X8120Y1629D03*
X8868Y2377D03*
X9695Y2456D03*
X10403Y723D03*
X8789Y5015D03*
X10403Y802D03*
X9616Y1629D03*
X5679Y2495D03*
X11348Y3164D03*
X11269Y3164D03*
X9695Y6589D03*
X9734Y3400D03*
X11191Y2416D03*
X10364Y1589D03*
X8789Y4030D03*
X8907Y763D03*
X11388Y5684D03*
X9734Y684D03*
X10600Y4975D03*
X10364Y763D03*
X9734Y5802D03*
X8750Y6629D03*
X8789Y3282D03*
X10521Y841D03*
X11388Y4188D03*
X11348Y4227D03*
X11191Y6629D03*
X8986Y841D03*
X11191Y1589D03*
X11348Y1747D03*
X9813Y3243D03*
X10403Y4188D03*
X11427Y1668D03*
X9734Y2574D03*
X10403Y2534D03*
X4616Y3243D03*
X4773Y920D03*
X5521Y841D03*
X7057Y5723D03*
X4852Y4975D03*
X6427Y4857D03*
X6466Y4975D03*
X5600Y1747D03*
X7057Y4896D03*
X4813Y881D03*
X5482Y5841D03*
X5600Y2574D03*
X5561Y723D03*
X5600Y3243D03*
X5521Y1589D03*
X4734Y1629D03*
X4655Y4030D03*
X5521Y2416D03*
X5679Y6550D03*
X7214Y6471D03*
X5679Y1668D03*
X8120Y2377D03*
X5521Y4148D03*
X6309Y2416D03*
X4773Y2337D03*
X6388Y1668D03*
X7254Y3204D03*
X7214Y5054D03*
X4695Y1589D03*
X4734Y3282D03*
X8002Y6629D03*
X7136Y4070D03*
X7214Y841D03*
X6427Y2456D03*
X6466Y841D03*
X6230Y3243D03*
X4695Y4070D03*
X6269Y6668D03*
X4695Y4975D03*
X7136Y3243D03*
X7175Y4030D03*
X4655Y881D03*
X4695Y3400D03*
X5679Y4975D03*
X8002Y5723D03*
X4695Y5881D03*
X4813Y6589D03*
X7057Y2416D03*
X8120Y5841D03*
X7175Y6668D03*
X6348Y4030D03*
X5443Y841D03*
X4813Y1550D03*
X7096Y1707D03*
X7136Y5723D03*
X4655Y3282D03*
X7923Y5802D03*
X7214Y5645D03*
X7962Y5015D03*
X4773Y5645D03*
X5600Y4818D03*
X4773Y4975D03*
X5521Y763D03*
X6466Y6629D03*
X6309Y763D03*
X8041Y5841D03*
X7962Y3282D03*
X6309Y4975D03*
X5640Y1629D03*
X7175Y5684D03*
X4616Y763D03*
X7136Y4975D03*
G54D11*
X8920Y1049D03*
X8833Y569D03*
G54D12*
X8877Y809D03*
G54D11*
X8915Y4348D03*
X8829Y3867D03*
G54D12*
X8872Y4108D03*
G54D11*
X7267Y1869D03*
X7181Y1388D03*
G54D12*
X7224Y1628D03*
G54D11*
X7268Y6821D03*
X7181Y6341D03*
G54D12*
X7224Y6581D03*
G54D11*
X7264Y1048D03*
X7178Y568D03*
G54D12*
X7221Y808D03*
G54D11*
X10568Y1868D03*
X10481Y1387D03*
G54D12*
X10524Y1628D03*
G54D11*
X8084Y1044D03*
X7997Y564D03*
G54D12*
X8041Y804D03*
G54D11*
X10567Y5994D03*
X10481Y5513D03*
G54D12*
X10524Y5753D03*
G54D11*
X10559Y3519D03*
X10473Y3039D03*
G54D12*
X10516Y3279D03*
G54D11*
X8087Y1865D03*
X8000Y1385D03*
G54D12*
X8044Y1625D03*
G54D11*
X9734Y3517D03*
X9648Y3037D03*
G54D12*
X9691Y3277D03*
G54D11*
X9743Y1866D03*
X9656Y1386D03*
G54D12*
X9699Y1626D03*
G54D11*
X7267Y5994D03*
X7180Y5514D03*
G54D12*
X7224Y5754D03*
G54D11*
X8076Y2696D03*
X7989Y2216D03*
G54D12*
X8032Y2456D03*
G54D11*
X8923Y1869D03*
X8836Y1389D03*
G54D12*
X8880Y1629D03*
G54D11*
X8923Y5995D03*
X8836Y5515D03*
G54D12*
X8879Y5755D03*
G54D11*
X8915Y3521D03*
X8828Y3041D03*
G54D12*
X8871Y3281D03*
G54D11*
X10564Y1047D03*
X10478Y567D03*
G54D12*
X10521Y807D03*
G54D11*
X11379Y4342D03*
X11293Y3862D03*
G54D12*
X11336Y4102D03*
G54D11*
X11376Y2695D03*
X11289Y2215D03*
G54D12*
X11332Y2455D03*
G54D11*
X11384Y1043D03*
X11297Y563D03*
G54D12*
X11341Y803D03*
G54D11*
X8084Y5170D03*
X7997Y4690D03*
G54D12*
X8040Y4930D03*
G54D11*
X8923Y6822D03*
X8837Y6342D03*
G54D12*
X8880Y6582D03*
G54D11*
X10568Y6820D03*
X10481Y6340D03*
G54D12*
X10524Y6580D03*
G54D11*
X9740Y1045D03*
X9653Y565D03*
G54D12*
X9696Y805D03*
G54D11*
X11384Y5169D03*
X11297Y4689D03*
G54D12*
X11340Y4929D03*
G54D11*
X7259Y3520D03*
X7172Y3040D03*
G54D12*
X7216Y3280D03*
G54D11*
X10564Y5173D03*
X10477Y4693D03*
G54D12*
X10521Y4933D03*
G54D11*
X7256Y2700D03*
X7169Y2219D03*
G54D12*
X7213Y2459D03*
G54D11*
X9743Y6818D03*
X9656Y6338D03*
G54D12*
X9700Y6578D03*
G54D11*
X8920Y5175D03*
X8833Y4695D03*
G54D12*
X8876Y4935D03*
G54D11*
X8087Y5991D03*
X8000Y5511D03*
G54D12*
X8043Y5751D03*
G54D11*
X7260Y4347D03*
X7173Y3867D03*
G54D12*
X7216Y4107D03*
G54D11*
X9742Y5992D03*
X9656Y5511D03*
G54D12*
X9699Y5752D03*
G54D11*
X11387Y1864D03*
X11301Y1384D03*
G54D12*
X11344Y1624D03*
G54D11*
X8079Y4343D03*
X7993Y3863D03*
G54D12*
X8036Y4103D03*
G54D11*
X8079Y3517D03*
X7992Y3036D03*
G54D12*
X8035Y3276D03*
G54D11*
X11387Y6817D03*
X11301Y6336D03*
G54D12*
X11344Y6576D03*
G54D11*
X9739Y5171D03*
X9653Y4691D03*
G54D12*
X9696Y4931D03*
G54D11*
X10560Y4346D03*
X10473Y3866D03*
G54D12*
X10516Y4106D03*
G54D11*
X8087Y6818D03*
X8001Y6337D03*
G54D12*
X8044Y6577D03*
G54D11*
X7264Y5174D03*
X7177Y4694D03*
G54D12*
X7221Y4934D03*
G54D11*
X8912Y2701D03*
X8825Y2220D03*
G54D12*
X8868Y2460D03*
G54D11*
X11387Y5990D03*
X11300Y5510D03*
G54D12*
X11344Y5750D03*
G54D11*
X10556Y2699D03*
X10469Y2218D03*
G54D12*
X10513Y2459D03*
G54D11*
X9735Y4344D03*
X9648Y3864D03*
G54D12*
X9692Y4104D03*
G54D11*
X9731Y2697D03*
X9645Y2217D03*
G54D12*
X9688Y2457D03*
G54D11*
X11379Y3516D03*
X11292Y3035D03*
G54D12*
X11336Y3276D03*
G54D11*
X5609Y5173D03*
X5523Y4693D03*
G54D12*
X5566Y4933D03*
G54D11*
X6432Y6817D03*
X6346Y6336D03*
G54D12*
X6389Y6576D03*
G54D11*
X4785Y1045D03*
X4698Y565D03*
G54D12*
X4741Y805D03*
G54D11*
X6432Y1864D03*
X6346Y1384D03*
G54D12*
X6389Y1624D03*
G54D11*
X6429Y5169D03*
X6342Y4689D03*
G54D12*
X6386Y4929D03*
G54D11*
X4776Y2697D03*
X4690Y2217D03*
G54D12*
X4733Y2457D03*
G54D11*
X5617Y6821D03*
X5531Y6341D03*
G54D12*
X5574Y6581D03*
G54D11*
X3957Y2701D03*
X3870Y2220D03*
G54D12*
X3913Y2460D03*
G54D11*
X4780Y4344D03*
X4693Y3864D03*
G54D12*
X4737Y4104D03*
G54D11*
X3968Y6822D03*
X3882Y6342D03*
G54D12*
X3925Y6582D03*
G54D11*
X5605Y4346D03*
X5518Y3866D03*
G54D12*
X5562Y4106D03*
G54D11*
X4784Y5171D03*
X4698Y4691D03*
G54D12*
X4741Y4931D03*
G54D11*
X6432Y5990D03*
X6345Y5510D03*
G54D12*
X6389Y5750D03*
G54D11*
X3965Y5175D03*
X3878Y4695D03*
G54D12*
X3921Y4935D03*
G54D11*
X3965Y1049D03*
X3879Y569D03*
G54D12*
X3922Y809D03*
G54D11*
X6424Y3516D03*
X6337Y3035D03*
G54D12*
X6381Y3276D03*
G54D11*
X4788Y1866D03*
X4701Y1386D03*
G54D12*
X4745Y1626D03*
G54D11*
X5604Y3519D03*
X5518Y3039D03*
G54D12*
X5561Y3279D03*
G54D11*
X4780Y3517D03*
X4693Y3037D03*
G54D12*
X4736Y3277D03*
G54D11*
X5612Y5994D03*
X5526Y5513D03*
G54D12*
X5569Y5753D03*
G54D11*
X3968Y5995D03*
X3881Y5515D03*
G54D12*
X3925Y5755D03*
G54D11*
X5613Y1868D03*
X5526Y1387D03*
G54D12*
X5569Y1628D03*
G54D11*
X3960Y4348D03*
X3874Y3867D03*
G54D12*
X3917Y4108D03*
G54D11*
X6429Y1043D03*
X6343Y563D03*
G54D12*
X6386Y803D03*
G54D11*
X3960Y3521D03*
X3873Y3041D03*
G54D12*
X3917Y3281D03*
G54D11*
X4788Y5992D03*
X4701Y5511D03*
G54D12*
X4744Y5752D03*
G54D11*
X6421Y2695D03*
X6334Y2215D03*
G54D12*
X6378Y2455D03*
G54D11*
X4788Y6818D03*
X4701Y6338D03*
G54D12*
X4745Y6578D03*
G54D11*
X6424Y4342D03*
X6338Y3862D03*
G54D12*
X6381Y4102D03*
G54D11*
X5601Y2699D03*
X5515Y2218D03*
G54D12*
X5558Y2459D03*
G54D11*
X3968Y1869D03*
X3882Y1389D03*
G54D12*
X3925Y1629D03*
G54D11*
X5610Y1047D03*
X5523Y567D03*
G54D12*
X5566Y807D03*
G54D11*
X3132Y6818D03*
X3046Y6337D03*
G54D12*
X3089Y6577D03*
G54D11*
X3124Y3517D03*
X3037Y3036D03*
G54D12*
X3080Y3276D03*
G54D11*
X2304Y3520D03*
X2218Y3040D03*
G54D12*
X2261Y3280D03*
G54D11*
X3124Y4343D03*
X3038Y3863D03*
G54D12*
X3081Y4103D03*
G54D11*
X2313Y6821D03*
X2226Y6341D03*
G54D12*
X2269Y6581D03*
G54D11*
X3132Y1865D03*
X3046Y1385D03*
G54D12*
X3089Y1625D03*
G54D11*
X3129Y1044D03*
X3042Y564D03*
G54D12*
X3086Y804D03*
G54D11*
X2309Y1048D03*
X2223Y568D03*
G54D12*
X2266Y808D03*
G54D11*
X2312Y5994D03*
X2226Y5514D03*
G54D12*
X2269Y5754D03*
G54D11*
X2301Y2700D03*
X2214Y2219D03*
G54D12*
X2258Y2459D03*
G54D11*
X2305Y4347D03*
X2218Y3867D03*
G54D12*
X2261Y4107D03*
G54D11*
X3132Y5991D03*
X3045Y5511D03*
G54D12*
X3088Y5751D03*
G54D11*
X2309Y5174D03*
X2222Y4694D03*
G54D12*
X2266Y4934D03*
G54D11*
X3121Y2696D03*
X3034Y2216D03*
G54D12*
X3077Y2456D03*
G54D11*
X2312Y1869D03*
X2226Y1388D03*
G54D12*
X2269Y1628D03*
G54D11*
X3129Y5170D03*
X3042Y4690D03*
G54D12*
X3085Y4930D03*
G54D11*
X1480Y4345D03*
X1393Y3865D03*
G54D12*
X1437Y4105D03*
G54D11*
X1484Y5172D03*
X1398Y4692D03*
G54D12*
X1441Y4932D03*
G54D11*
X1479Y3518D03*
X1393Y3038D03*
G54D12*
X1436Y3278D03*
G54D11*
X1476Y2698D03*
X1390Y2217D03*
G54D12*
X1433Y2458D03*
G54D11*
X1488Y1867D03*
X1401Y1386D03*
G54D12*
X1444Y1627D03*
G54D11*
X1485Y1046D03*
X1398Y566D03*
G54D12*
X1441Y806D03*
G54D11*
X1487Y5993D03*
X1401Y5512D03*
G54D12*
X1444Y5753D03*
G54D11*
X1488Y6819D03*
X1401Y6339D03*
G54D12*
X1445Y6579D03*
G54D11*
X670Y1050D03*
X583Y569D03*
G54D12*
X626Y810D03*
G54D11*
X673Y1870D03*
X586Y1390D03*
G54D12*
X629Y1630D03*
G54D11*
X665Y4349D03*
X578Y3868D03*
G54D12*
X622Y4108D03*
G54D11*
X664Y3522D03*
X578Y3042D03*
G54D12*
X621Y3282D03*
G54D11*
X661Y2701D03*
X575Y2221D03*
G54D12*
X618Y2461D03*
G54D11*
X669Y5176D03*
X583Y4695D03*
G54D12*
X626Y4936D03*
G54D11*
X672Y5996D03*
X586Y5516D03*
G54D12*
X629Y5756D03*
G54D11*
X673Y6823D03*
X586Y6343D03*
G54D12*
X630Y6583D03*
G54D13*
X4695Y306D03*
X4695Y133D03*
X3868Y306D03*
X3868Y133D03*
X3041Y306D03*
X3041Y133D03*
X1388Y306D03*
X1388Y133D03*
X600Y306D03*
X600Y133D03*
X5521Y306D03*
X5521Y133D03*
X2214Y306D03*
X2214Y133D03*
X11309Y306D03*
X11309Y133D03*
X10482Y306D03*
X10482Y133D03*
X9655Y306D03*
X9655Y133D03*
X6348Y306D03*
X6348Y133D03*
X8828Y306D03*
X8828Y133D03*
X8002Y306D03*
X8002Y133D03*
X7175Y306D03*
X7175Y133D03*
G54D14*
X246Y6196D03*
X246Y6747D03*
G54D15*
X657Y5226D02*
X598Y5465D01*
D02*
X653Y4399D02*
X595Y4645D01*
D02*
X652Y3573D02*
X591Y3818D01*
D02*
X649Y2752D02*
X590Y2991D01*
D02*
X659Y1921D02*
X589Y2171D01*
D02*
X657Y1100D02*
X599Y1340D01*
D02*
X1475Y6043D02*
X1414Y6288D01*
D02*
X1472Y5223D02*
X1413Y5462D01*
D02*
X1468Y4396D02*
X1410Y4641D01*
D02*
X1467Y3569D02*
X1406Y3814D01*
D02*
X1464Y2748D02*
X1405Y2988D01*
D02*
X1474Y1917D02*
X1404Y2167D01*
D02*
X1472Y1097D02*
X1414Y1336D01*
D02*
X2300Y6045D02*
X2239Y6290D01*
D02*
X2297Y5224D02*
X2238Y5464D01*
D02*
X2293Y4397D02*
X2234Y4643D01*
D02*
X2292Y3571D02*
X2231Y3816D01*
D02*
X2289Y2750D02*
X2230Y2989D01*
D02*
X2298Y1919D02*
X2229Y2169D01*
D02*
X2297Y1099D02*
X2238Y1338D01*
D02*
X3119Y6041D02*
X3058Y6287D01*
D02*
X3116Y5221D02*
X3058Y5460D01*
D02*
X3112Y4394D02*
X3054Y4639D01*
D02*
X3111Y3567D02*
X3050Y3812D01*
D02*
X3108Y2747D02*
X3050Y2986D01*
D02*
X3118Y1916D02*
X3048Y2165D01*
D02*
X3117Y1095D02*
X3058Y1334D01*
D02*
X3955Y6046D02*
X3894Y6291D01*
D02*
X3952Y5225D02*
X3894Y5465D01*
D02*
X3948Y4398D02*
X3890Y4644D01*
D02*
X3947Y3572D02*
X3886Y3817D01*
D02*
X3944Y2751D02*
X3886Y2990D01*
D02*
X3954Y1920D02*
X3884Y2170D01*
D02*
X3953Y1099D02*
X3894Y1339D01*
D02*
X4775Y6042D02*
X4714Y6288D01*
D02*
X4772Y5222D02*
X4713Y5461D01*
D02*
X4768Y4395D02*
X4710Y4640D01*
D02*
X4767Y3568D02*
X4706Y3813D01*
D02*
X4764Y2747D02*
X4705Y2987D01*
D02*
X4774Y1916D02*
X4704Y2166D01*
D02*
X4772Y1096D02*
X4714Y1335D01*
D02*
X5600Y6044D02*
X5543Y6290D01*
D02*
X5597Y5224D02*
X5538Y5463D01*
D02*
X5593Y4396D02*
X5535Y4642D01*
D02*
X5592Y3570D02*
X5531Y3815D01*
D02*
X5589Y2749D02*
X5530Y2988D01*
D02*
X5599Y1918D02*
X5529Y2168D01*
D02*
X5597Y1098D02*
X5538Y1337D01*
D02*
X6419Y6041D02*
X6358Y6286D01*
D02*
X6416Y5220D02*
X6358Y5459D01*
D02*
X6412Y4393D02*
X6354Y4639D01*
D02*
X6411Y3566D02*
X6350Y3811D01*
D02*
X6408Y2746D02*
X6350Y2985D01*
D02*
X6418Y1915D02*
X6348Y2164D01*
D02*
X6417Y1094D02*
X6358Y1333D01*
D02*
X7254Y6045D02*
X7193Y6290D01*
D02*
X7251Y5224D02*
X7193Y5464D01*
D02*
X7248Y4397D02*
X7189Y4643D01*
D02*
X7246Y3571D02*
X7185Y3816D01*
D02*
X7243Y2750D02*
X7185Y2989D01*
D02*
X7253Y1919D02*
X7183Y2169D01*
D02*
X7252Y1099D02*
X7193Y1338D01*
D02*
X8074Y6041D02*
X8013Y6287D01*
D02*
X8071Y5221D02*
X8012Y5460D01*
D02*
X8067Y4394D02*
X8009Y4639D01*
D02*
X8066Y3567D02*
X8005Y3812D01*
D02*
X8063Y2747D02*
X8004Y2986D01*
D02*
X8073Y1916D02*
X8003Y2165D01*
D02*
X8071Y1095D02*
X8013Y1334D01*
D02*
X8910Y6046D02*
X8849Y6291D01*
D02*
X8907Y5225D02*
X8849Y5465D01*
D02*
X8903Y4398D02*
X8845Y4644D01*
D02*
X8902Y3572D02*
X8841Y3817D01*
D02*
X8899Y2751D02*
X8841Y2990D01*
D02*
X8909Y1920D02*
X8839Y2170D01*
D02*
X8908Y1099D02*
X8849Y1339D01*
D02*
X9730Y6042D02*
X9669Y6288D01*
D02*
X9727Y5222D02*
X9668Y5461D01*
D02*
X9723Y4395D02*
X9665Y4640D01*
D02*
X9722Y3568D02*
X9661Y3813D01*
D02*
X9719Y2747D02*
X9660Y2987D01*
D02*
X9729Y1916D02*
X9659Y2166D01*
D02*
X9727Y1096D02*
X9669Y1335D01*
D02*
X10555Y6044D02*
X10494Y6289D01*
D02*
X10552Y5224D02*
X10493Y5463D01*
D02*
X10548Y4396D02*
X10489Y4642D01*
D02*
X10547Y3570D02*
X10486Y3815D01*
D02*
X10544Y2749D02*
X10485Y2988D01*
D02*
X10553Y1918D02*
X10484Y2168D01*
D02*
X10552Y1098D02*
X10493Y1337D01*
D02*
X11374Y6041D02*
X11313Y6286D01*
D02*
X11371Y5220D02*
X11313Y5459D01*
D02*
X11367Y4393D02*
X11309Y4639D01*
D02*
X11366Y3566D02*
X11305Y3811D01*
D02*
X11363Y2746D02*
X11305Y2985D01*
D02*
X11373Y1915D02*
X11303Y2164D01*
D02*
X11372Y1094D02*
X11313Y1333D01*
D02*
X1458Y6819D02*
X703Y6823D01*
D02*
X2283Y6821D02*
X1518Y6819D01*
D02*
X3102Y6818D02*
X2343Y6821D01*
D02*
X3939Y6822D02*
X3162Y6818D01*
D02*
X7238Y6821D02*
X6462Y6817D01*
D02*
X8057Y6818D02*
X7297Y6821D01*
D02*
X8893Y6822D02*
X8117Y6818D01*
D02*
X9713Y6819D02*
X8953Y6822D01*
D02*
X10538Y6820D02*
X9773Y6818D01*
D02*
X11358Y6817D02*
X10598Y6820D01*
D02*
X598Y336D02*
X586Y519D01*
D02*
X1389Y336D02*
X1396Y515D01*
D02*
X2215Y336D02*
X2221Y517D01*
D02*
X3041Y336D02*
X3042Y514D01*
D02*
X3869Y336D02*
X3876Y518D01*
D02*
X4695Y336D02*
X4697Y514D01*
D02*
X5522Y336D02*
X5523Y516D01*
D02*
X6348Y336D02*
X6344Y513D01*
D02*
X7175Y336D02*
X7177Y517D01*
D02*
X8001Y336D02*
X7998Y514D01*
D02*
X8829Y336D02*
X8832Y518D01*
D02*
X9655Y336D02*
X9653Y514D01*
D02*
X8876Y133D02*
X9608Y133D01*
D02*
X8049Y133D02*
X8781Y133D01*
D02*
X7223Y133D02*
X7954Y133D01*
D02*
X6396Y133D02*
X7127Y133D01*
D02*
X5569Y133D02*
X6301Y133D01*
D02*
X4742Y133D02*
X5474Y133D01*
D02*
X4647Y133D02*
X3915Y133D01*
D02*
X3820Y133D02*
X3089Y133D01*
D02*
X2994Y133D02*
X2262Y133D01*
D02*
X2167Y133D02*
X1435Y133D01*
D02*
X1340Y133D02*
X648Y133D01*
D02*
X9703Y133D02*
X10434Y133D01*
D02*
X10530Y133D02*
X11261Y133D01*
D02*
X10482Y336D02*
X10479Y516D01*
D02*
X11308Y336D02*
X11300Y513D01*
D02*
X643Y6818D02*
X396Y6774D01*
D02*
X284Y130D02*
X247Y6023D01*
D02*
X553Y132D02*
X284Y130D01*
D02*
X5599Y6826D02*
X5617Y6821D01*
D02*
X6403Y6817D02*
X5599Y6826D01*
D02*
X5588Y6821D02*
X4818Y6819D01*
D02*
X4774Y6826D02*
X4788Y6818D01*
D02*
X3998Y6822D02*
X4774Y6826D01*
G54D16*
X586Y6355D02*
X587Y6355D01*
X582Y6354D02*
X591Y6354D01*
X581Y6353D02*
X593Y6353D01*
X579Y6352D02*
X594Y6352D01*
X578Y6351D02*
X595Y6351D01*
X578Y6350D02*
X596Y6350D01*
X577Y6349D02*
X597Y6349D01*
X576Y6348D02*
X597Y6348D01*
X576Y6347D02*
X598Y6347D01*
X576Y6346D02*
X598Y6346D01*
X575Y6345D02*
X598Y6345D01*
X575Y6344D02*
X598Y6344D01*
X575Y6343D02*
X599Y6343D01*
X575Y6342D02*
X599Y6342D01*
X576Y6341D02*
X599Y6341D01*
X576Y6340D02*
X599Y6340D01*
X576Y6339D02*
X600Y6339D01*
X576Y6338D02*
X600Y6338D01*
X576Y6337D02*
X600Y6337D01*
X577Y6336D02*
X600Y6336D01*
X577Y6335D02*
X601Y6335D01*
X577Y6334D02*
X601Y6334D01*
X577Y6333D02*
X601Y6333D01*
X578Y6332D02*
X601Y6332D01*
X578Y6331D02*
X602Y6331D01*
X578Y6330D02*
X602Y6330D01*
X578Y6329D02*
X602Y6329D01*
X579Y6328D02*
X602Y6328D01*
X579Y6327D02*
X603Y6327D01*
X579Y6326D02*
X603Y6326D01*
X579Y6325D02*
X603Y6325D01*
X580Y6324D02*
X603Y6324D01*
X580Y6323D02*
X604Y6323D01*
X580Y6322D02*
X604Y6322D01*
X580Y6321D02*
X604Y6321D01*
X581Y6320D02*
X604Y6320D01*
X581Y6319D02*
X605Y6319D01*
X581Y6318D02*
X605Y6318D01*
X581Y6317D02*
X605Y6317D01*
X582Y6316D02*
X605Y6316D01*
X582Y6315D02*
X606Y6315D01*
X582Y6314D02*
X606Y6314D01*
X582Y6313D02*
X606Y6313D01*
X583Y6312D02*
X606Y6312D01*
X583Y6311D02*
X607Y6311D01*
X583Y6310D02*
X607Y6310D01*
X583Y6309D02*
X607Y6309D01*
X584Y6308D02*
X607Y6308D01*
X584Y6307D02*
X608Y6307D01*
X584Y6306D02*
X608Y6306D01*
X584Y6305D02*
X608Y6305D01*
X585Y6304D02*
X608Y6304D01*
X585Y6303D02*
X609Y6303D01*
X585Y6302D02*
X609Y6302D01*
X585Y6301D02*
X609Y6301D01*
X586Y6300D02*
X609Y6300D01*
X586Y6299D02*
X610Y6299D01*
X586Y6298D02*
X610Y6298D01*
X586Y6297D02*
X610Y6297D01*
X587Y6296D02*
X610Y6296D01*
X587Y6295D02*
X611Y6295D01*
X587Y6294D02*
X611Y6294D01*
X587Y6293D02*
X611Y6293D01*
X588Y6292D02*
X611Y6292D01*
X588Y6291D02*
X612Y6291D01*
X588Y6290D02*
X612Y6290D01*
X588Y6289D02*
X612Y6289D01*
X589Y6288D02*
X612Y6288D01*
X589Y6287D02*
X613Y6287D01*
X589Y6286D02*
X613Y6286D01*
X589Y6285D02*
X613Y6285D01*
X590Y6284D02*
X613Y6284D01*
X590Y6283D02*
X614Y6283D01*
X590Y6282D02*
X614Y6282D01*
X590Y6281D02*
X614Y6281D01*
X591Y6280D02*
X614Y6280D01*
X591Y6279D02*
X615Y6279D01*
X591Y6278D02*
X615Y6278D01*
X591Y6277D02*
X615Y6277D01*
X592Y6276D02*
X615Y6276D01*
X592Y6275D02*
X616Y6275D01*
X592Y6274D02*
X616Y6274D01*
X592Y6273D02*
X616Y6273D01*
X593Y6272D02*
X616Y6272D01*
X593Y6271D02*
X617Y6271D01*
X593Y6270D02*
X617Y6270D01*
X593Y6269D02*
X617Y6269D01*
X594Y6268D02*
X617Y6268D01*
X594Y6267D02*
X618Y6267D01*
X594Y6266D02*
X618Y6266D01*
X594Y6265D02*
X618Y6265D01*
X595Y6264D02*
X618Y6264D01*
X595Y6263D02*
X619Y6263D01*
X595Y6262D02*
X619Y6262D01*
X595Y6261D02*
X619Y6261D01*
X596Y6260D02*
X619Y6260D01*
X596Y6259D02*
X620Y6259D01*
X596Y6258D02*
X620Y6258D01*
X596Y6257D02*
X620Y6257D01*
X597Y6256D02*
X620Y6256D01*
X597Y6255D02*
X621Y6255D01*
X597Y6254D02*
X621Y6254D01*
X597Y6253D02*
X621Y6253D01*
X598Y6252D02*
X621Y6252D01*
X598Y6251D02*
X622Y6251D01*
X598Y6250D02*
X622Y6250D01*
X598Y6249D02*
X622Y6249D01*
X599Y6248D02*
X622Y6248D01*
X599Y6247D02*
X623Y6247D01*
X599Y6246D02*
X623Y6246D01*
X599Y6245D02*
X623Y6245D01*
X600Y6244D02*
X623Y6244D01*
X600Y6243D02*
X624Y6243D01*
X600Y6242D02*
X624Y6242D01*
X600Y6241D02*
X624Y6241D01*
X601Y6240D02*
X624Y6240D01*
X601Y6239D02*
X625Y6239D01*
X601Y6238D02*
X625Y6238D01*
X601Y6237D02*
X625Y6237D01*
X602Y6236D02*
X625Y6236D01*
X602Y6235D02*
X626Y6235D01*
X602Y6234D02*
X626Y6234D01*
X602Y6233D02*
X626Y6233D01*
X603Y6232D02*
X626Y6232D01*
X603Y6231D02*
X627Y6231D01*
X603Y6230D02*
X627Y6230D01*
X603Y6229D02*
X627Y6229D01*
X604Y6228D02*
X627Y6228D01*
X604Y6227D02*
X628Y6227D01*
X604Y6226D02*
X628Y6226D01*
X604Y6225D02*
X628Y6225D01*
X605Y6224D02*
X628Y6224D01*
X605Y6223D02*
X629Y6223D01*
X605Y6222D02*
X629Y6222D01*
X605Y6221D02*
X629Y6221D01*
X606Y6220D02*
X629Y6220D01*
X606Y6219D02*
X629Y6219D01*
X606Y6218D02*
X630Y6218D01*
X606Y6217D02*
X630Y6217D01*
X607Y6216D02*
X630Y6216D01*
X607Y6215D02*
X630Y6215D01*
X607Y6214D02*
X631Y6214D01*
X607Y6213D02*
X631Y6213D01*
X607Y6212D02*
X631Y6212D01*
X608Y6211D02*
X631Y6211D01*
X608Y6210D02*
X632Y6210D01*
X608Y6209D02*
X632Y6209D01*
X608Y6208D02*
X632Y6208D01*
X609Y6207D02*
X632Y6207D01*
X609Y6206D02*
X633Y6206D01*
X609Y6205D02*
X633Y6205D01*
X609Y6204D02*
X633Y6204D01*
X610Y6203D02*
X633Y6203D01*
X610Y6202D02*
X634Y6202D01*
X610Y6201D02*
X634Y6201D01*
X610Y6200D02*
X634Y6200D01*
X611Y6199D02*
X634Y6199D01*
X611Y6198D02*
X635Y6198D01*
X611Y6197D02*
X635Y6197D01*
X611Y6196D02*
X635Y6196D01*
X612Y6195D02*
X635Y6195D01*
X612Y6194D02*
X636Y6194D01*
X612Y6193D02*
X636Y6193D01*
X612Y6192D02*
X636Y6192D01*
X613Y6191D02*
X636Y6191D01*
X613Y6190D02*
X637Y6190D01*
X613Y6189D02*
X637Y6189D01*
X613Y6188D02*
X637Y6188D01*
X614Y6187D02*
X637Y6187D01*
X614Y6186D02*
X638Y6186D01*
X614Y6185D02*
X638Y6185D01*
X614Y6184D02*
X638Y6184D01*
X615Y6183D02*
X638Y6183D01*
X615Y6182D02*
X639Y6182D01*
X615Y6181D02*
X639Y6181D01*
X615Y6180D02*
X639Y6180D01*
X616Y6179D02*
X639Y6179D01*
X616Y6178D02*
X640Y6178D01*
X616Y6177D02*
X640Y6177D01*
X616Y6176D02*
X640Y6176D01*
X617Y6175D02*
X640Y6175D01*
X617Y6174D02*
X641Y6174D01*
X617Y6173D02*
X641Y6173D01*
X617Y6172D02*
X641Y6172D01*
X618Y6171D02*
X641Y6171D01*
X618Y6170D02*
X642Y6170D01*
X618Y6169D02*
X642Y6169D01*
X618Y6168D02*
X642Y6168D01*
X619Y6167D02*
X642Y6167D01*
X619Y6166D02*
X643Y6166D01*
X619Y6165D02*
X643Y6165D01*
X619Y6164D02*
X643Y6164D01*
X620Y6163D02*
X643Y6163D01*
X620Y6162D02*
X644Y6162D01*
X620Y6161D02*
X644Y6161D01*
X620Y6160D02*
X644Y6160D01*
X621Y6159D02*
X644Y6159D01*
X621Y6158D02*
X645Y6158D01*
X621Y6157D02*
X645Y6157D01*
X621Y6156D02*
X645Y6156D01*
X622Y6155D02*
X645Y6155D01*
X622Y6154D02*
X646Y6154D01*
X622Y6153D02*
X646Y6153D01*
X622Y6152D02*
X646Y6152D01*
X623Y6151D02*
X646Y6151D01*
X623Y6150D02*
X647Y6150D01*
X623Y6149D02*
X647Y6149D01*
X623Y6148D02*
X647Y6148D01*
X624Y6147D02*
X647Y6147D01*
X624Y6146D02*
X648Y6146D01*
X624Y6145D02*
X648Y6145D01*
X624Y6144D02*
X648Y6144D01*
X625Y6143D02*
X648Y6143D01*
X625Y6142D02*
X649Y6142D01*
X625Y6141D02*
X649Y6141D01*
X625Y6140D02*
X649Y6140D01*
X626Y6139D02*
X649Y6139D01*
X626Y6138D02*
X650Y6138D01*
X626Y6137D02*
X650Y6137D01*
X626Y6136D02*
X650Y6136D01*
X627Y6135D02*
X650Y6135D01*
X627Y6134D02*
X651Y6134D01*
X627Y6133D02*
X651Y6133D01*
X627Y6132D02*
X651Y6132D01*
X628Y6131D02*
X651Y6131D01*
X628Y6130D02*
X652Y6130D01*
X628Y6129D02*
X652Y6129D01*
X628Y6128D02*
X652Y6128D01*
X629Y6127D02*
X652Y6127D01*
X629Y6126D02*
X653Y6126D01*
X629Y6125D02*
X653Y6125D01*
X629Y6124D02*
X653Y6124D01*
X630Y6123D02*
X653Y6123D01*
X630Y6122D02*
X654Y6122D01*
X630Y6121D02*
X654Y6121D01*
X630Y6120D02*
X654Y6120D01*
X631Y6119D02*
X654Y6119D01*
X631Y6118D02*
X655Y6118D01*
X631Y6117D02*
X655Y6117D01*
X631Y6116D02*
X655Y6116D01*
X632Y6115D02*
X655Y6115D01*
X632Y6114D02*
X656Y6114D01*
X632Y6113D02*
X656Y6113D01*
X632Y6112D02*
X656Y6112D01*
X633Y6111D02*
X656Y6111D01*
X633Y6110D02*
X657Y6110D01*
X633Y6109D02*
X657Y6109D01*
X633Y6108D02*
X657Y6108D01*
X634Y6107D02*
X657Y6107D01*
X634Y6106D02*
X658Y6106D01*
X634Y6105D02*
X658Y6105D01*
X634Y6104D02*
X658Y6104D01*
X635Y6103D02*
X658Y6103D01*
X635Y6102D02*
X659Y6102D01*
X635Y6101D02*
X659Y6101D01*
X635Y6100D02*
X659Y6100D01*
X636Y6099D02*
X659Y6099D01*
X636Y6098D02*
X660Y6098D01*
X636Y6097D02*
X660Y6097D01*
X636Y6096D02*
X660Y6096D01*
X637Y6095D02*
X660Y6095D01*
X637Y6094D02*
X661Y6094D01*
X637Y6093D02*
X661Y6093D01*
X637Y6092D02*
X661Y6092D01*
X638Y6091D02*
X661Y6091D01*
X638Y6090D02*
X662Y6090D01*
X638Y6089D02*
X662Y6089D01*
X638Y6088D02*
X662Y6088D01*
X639Y6087D02*
X662Y6087D01*
X639Y6086D02*
X663Y6086D01*
X639Y6085D02*
X663Y6085D01*
X639Y6084D02*
X663Y6084D01*
X640Y6083D02*
X663Y6083D01*
X640Y6082D02*
X664Y6082D01*
X640Y6081D02*
X664Y6081D01*
X640Y6080D02*
X664Y6080D01*
X641Y6079D02*
X664Y6079D01*
X641Y6078D02*
X665Y6078D01*
X641Y6077D02*
X665Y6077D01*
X641Y6076D02*
X665Y6076D01*
X642Y6075D02*
X665Y6075D01*
X642Y6074D02*
X666Y6074D01*
X642Y6073D02*
X666Y6073D01*
X642Y6072D02*
X666Y6072D01*
X643Y6071D02*
X666Y6071D01*
X643Y6070D02*
X667Y6070D01*
X643Y6069D02*
X667Y6069D01*
X643Y6068D02*
X667Y6068D01*
X644Y6067D02*
X667Y6067D01*
X644Y6066D02*
X668Y6066D01*
X644Y6065D02*
X668Y6065D01*
X644Y6064D02*
X668Y6064D01*
X645Y6063D02*
X668Y6063D01*
X645Y6062D02*
X669Y6062D01*
X645Y6061D02*
X669Y6061D01*
X645Y6060D02*
X669Y6060D01*
X646Y6059D02*
X669Y6059D01*
X646Y6058D02*
X670Y6058D01*
X646Y6057D02*
X670Y6057D01*
X646Y6056D02*
X670Y6056D01*
X647Y6055D02*
X670Y6055D01*
X647Y6054D02*
X671Y6054D01*
X647Y6053D02*
X671Y6053D01*
X647Y6052D02*
X671Y6052D01*
X648Y6051D02*
X671Y6051D01*
X648Y6050D02*
X672Y6050D01*
X648Y6049D02*
X672Y6049D01*
X648Y6048D02*
X672Y6048D01*
X649Y6047D02*
X672Y6047D01*
X649Y6046D02*
X672Y6046D01*
X649Y6045D02*
X673Y6045D01*
X649Y6044D02*
X673Y6044D01*
X650Y6043D02*
X673Y6043D01*
X650Y6042D02*
X673Y6042D01*
X650Y6041D02*
X674Y6041D01*
X650Y6040D02*
X674Y6040D01*
X650Y6039D02*
X674Y6039D01*
X651Y6038D02*
X674Y6038D01*
X651Y6037D02*
X675Y6037D01*
X651Y6036D02*
X675Y6036D01*
X651Y6035D02*
X675Y6035D01*
X652Y6034D02*
X675Y6034D01*
X652Y6033D02*
X676Y6033D01*
X652Y6032D02*
X676Y6032D01*
X652Y6031D02*
X676Y6031D01*
X653Y6030D02*
X676Y6030D01*
X653Y6029D02*
X677Y6029D01*
X653Y6028D02*
X677Y6028D01*
X653Y6027D02*
X677Y6027D01*
X654Y6026D02*
X677Y6026D01*
X654Y6025D02*
X678Y6025D01*
X654Y6024D02*
X678Y6024D01*
X654Y6023D02*
X678Y6023D01*
X655Y6022D02*
X678Y6022D01*
X655Y6021D02*
X679Y6021D01*
X655Y6020D02*
X679Y6020D01*
X655Y6019D02*
X679Y6019D01*
X656Y6018D02*
X679Y6018D01*
X656Y6017D02*
X680Y6017D01*
X656Y6016D02*
X680Y6016D01*
X656Y6015D02*
X680Y6015D01*
X657Y6014D02*
X680Y6014D01*
X657Y6013D02*
X681Y6013D01*
X657Y6012D02*
X681Y6012D01*
X657Y6011D02*
X681Y6011D01*
X658Y6010D02*
X681Y6010D01*
X658Y6009D02*
X682Y6009D01*
X658Y6008D02*
X682Y6008D01*
X658Y6007D02*
X682Y6007D01*
X659Y6006D02*
X682Y6006D01*
X659Y6005D02*
X683Y6005D01*
X659Y6004D02*
X683Y6004D01*
X659Y6003D02*
X683Y6003D01*
X660Y6002D02*
X683Y6002D01*
X660Y6001D02*
X684Y6001D01*
X660Y6000D02*
X684Y6000D01*
X660Y5999D02*
X684Y5999D01*
X661Y5998D02*
X684Y5998D01*
X661Y5997D02*
X684Y5997D01*
X661Y5996D02*
X684Y5996D01*
X661Y5995D02*
X684Y5995D01*
X662Y5994D02*
X684Y5994D01*
X662Y5993D02*
X684Y5993D01*
X662Y5992D02*
X683Y5992D01*
X663Y5991D02*
X683Y5991D01*
X663Y5990D02*
X682Y5990D01*
X664Y5989D02*
X681Y5989D01*
X665Y5988D02*
X680Y5988D01*
X666Y5987D02*
X679Y5987D01*
X668Y5986D02*
X678Y5986D01*
X671Y5985D02*
X674Y5985D01*
D02*
G04 End of Copper0*
M02*