G04 MADE WITH FRITZING*
G04 WWW.FRITZING.ORG*
G04 SINGLE SIDED*
G04 HOLES NOT PLATED*
G04 CONTOUR ON CENTER OF CONTOUR VECTOR*
%ASAXBY*%
%FSLAX23Y23*%
%MOIN*%
%OFA0B0*%
%SFA1.0B1.0*%
%ADD10R,0.070866X0.112205*%
%ADD11R,0.236221X0.204725*%
%ADD12R,0.106299X0.070866*%
%ADD13R,0.311023X0.355512*%
%LNPASTEMASK0*%
G90*
G70*
G54D10*
X8920Y1049D03*
X8833Y569D03*
X8915Y4348D03*
X8829Y3867D03*
X7267Y1869D03*
X7181Y1388D03*
G54D11*
X7224Y1628D03*
G54D10*
X7268Y6821D03*
X7181Y6341D03*
G54D11*
X7224Y6581D03*
G54D10*
X7264Y1048D03*
X7178Y568D03*
G54D11*
X7221Y808D03*
G54D10*
X10568Y1868D03*
X10481Y1387D03*
G54D11*
X10524Y1628D03*
G54D10*
X8084Y1044D03*
X7997Y564D03*
X10567Y5994D03*
X10481Y5513D03*
G54D11*
X10524Y5753D03*
G54D10*
X10559Y3519D03*
X10473Y3039D03*
G54D11*
X10516Y3279D03*
G54D10*
X8087Y1865D03*
X8000Y1385D03*
X9734Y3517D03*
X9648Y3037D03*
X9743Y1866D03*
X9656Y1386D03*
X7267Y5994D03*
X7180Y5514D03*
G54D11*
X7224Y5754D03*
G54D10*
X8076Y2696D03*
X7989Y2216D03*
X8923Y1869D03*
X8836Y1389D03*
X8923Y5995D03*
X8836Y5515D03*
X8915Y3521D03*
X8828Y3041D03*
X10564Y1047D03*
X10478Y567D03*
G54D11*
X10521Y807D03*
G54D10*
X11379Y4342D03*
X11293Y3862D03*
G54D11*
X11336Y4102D03*
G54D10*
X11376Y2695D03*
X11289Y2215D03*
X11384Y1043D03*
X11297Y563D03*
G54D11*
X11341Y803D03*
G54D10*
X8084Y5170D03*
X7997Y4690D03*
X8923Y6822D03*
X8837Y6342D03*
X10568Y6820D03*
X10481Y6340D03*
G54D11*
X10524Y6580D03*
G54D10*
X9740Y1045D03*
X9653Y565D03*
X11384Y5169D03*
X11297Y4689D03*
G54D11*
X11340Y4929D03*
G54D10*
X7259Y3520D03*
X7172Y3040D03*
G54D11*
X7216Y3280D03*
G54D10*
X10564Y5173D03*
X10477Y4693D03*
G54D11*
X10521Y4933D03*
G54D10*
X7256Y2700D03*
X7169Y2219D03*
G54D11*
X7213Y2459D03*
G54D10*
X9743Y6818D03*
X9656Y6338D03*
X8920Y5175D03*
X8833Y4695D03*
X8087Y5991D03*
X8000Y5511D03*
X7260Y4347D03*
X7173Y3867D03*
G54D11*
X7216Y4107D03*
G54D10*
X9742Y5992D03*
X9656Y5511D03*
X11387Y1864D03*
X11301Y1384D03*
G54D11*
X11344Y1624D03*
G54D10*
X8079Y4343D03*
X7993Y3863D03*
X8079Y3517D03*
X7992Y3036D03*
X11387Y6817D03*
X11301Y6336D03*
G54D11*
X11344Y6576D03*
G54D10*
X9739Y5171D03*
X9653Y4691D03*
X10560Y4346D03*
X10473Y3866D03*
G54D11*
X10516Y4106D03*
G54D10*
X8087Y6818D03*
X8001Y6337D03*
X7264Y5174D03*
X7177Y4694D03*
G54D11*
X7221Y4934D03*
G54D10*
X8912Y2701D03*
X8825Y2220D03*
X11387Y5990D03*
X11300Y5510D03*
G54D11*
X11344Y5750D03*
G54D10*
X10556Y2699D03*
X10469Y2218D03*
G54D11*
X10513Y2459D03*
G54D10*
X9735Y4344D03*
X9648Y3864D03*
X9731Y2697D03*
X9645Y2217D03*
X11379Y3516D03*
X11292Y3035D03*
G54D11*
X11336Y3276D03*
G54D10*
X5609Y5173D03*
X5523Y4693D03*
X6432Y6817D03*
X6346Y6336D03*
G54D11*
X6389Y6576D03*
G54D10*
X4785Y1045D03*
X4698Y565D03*
X6432Y1864D03*
X6346Y1384D03*
G54D11*
X6389Y1624D03*
G54D10*
X6429Y5169D03*
X6342Y4689D03*
G54D11*
X6386Y4929D03*
G54D10*
X4776Y2697D03*
X4690Y2217D03*
X5617Y6821D03*
X5531Y6341D03*
X3957Y2701D03*
X3870Y2220D03*
G54D11*
X3913Y2460D03*
G54D10*
X4780Y4344D03*
X4693Y3864D03*
X3968Y6822D03*
X3882Y6342D03*
X5605Y4346D03*
X5518Y3866D03*
X4784Y5171D03*
X4698Y4691D03*
X6432Y5990D03*
X6345Y5510D03*
G54D11*
X6389Y5750D03*
G54D10*
X3965Y5175D03*
X3878Y4695D03*
X3965Y1049D03*
X3879Y569D03*
X6424Y3516D03*
X6337Y3035D03*
G54D11*
X6381Y3276D03*
G54D10*
X4788Y1866D03*
X4701Y1386D03*
X5604Y3519D03*
X5518Y3039D03*
X4780Y3517D03*
X4693Y3037D03*
X5612Y5994D03*
X5526Y5513D03*
X3968Y5995D03*
X3881Y5515D03*
X5613Y1868D03*
X5526Y1387D03*
X3960Y4348D03*
X3874Y3867D03*
G54D11*
X3917Y4108D03*
G54D10*
X6429Y1043D03*
X6343Y563D03*
G54D11*
X6386Y803D03*
G54D10*
X3960Y3521D03*
X3873Y3041D03*
G54D11*
X3917Y3281D03*
G54D10*
X4788Y5992D03*
X4701Y5511D03*
X6421Y2695D03*
X6334Y2215D03*
G54D11*
X6378Y2455D03*
G54D10*
X4788Y6818D03*
X4701Y6338D03*
X6424Y4342D03*
X6338Y3862D03*
G54D11*
X6381Y4102D03*
G54D10*
X5601Y2699D03*
X5515Y2218D03*
X3968Y1869D03*
X3882Y1389D03*
X5610Y1047D03*
X5523Y567D03*
X3132Y6818D03*
X3046Y6337D03*
X3124Y3517D03*
X3037Y3036D03*
X2304Y3520D03*
X2218Y3040D03*
X3124Y4343D03*
X3038Y3863D03*
X2313Y6821D03*
X2226Y6341D03*
X3132Y1865D03*
X3046Y1385D03*
X3129Y1044D03*
X3042Y564D03*
X2309Y1048D03*
X2223Y568D03*
X2312Y5994D03*
X2226Y5514D03*
X2301Y2700D03*
X2214Y2219D03*
X2305Y4347D03*
X2218Y3867D03*
X3132Y5991D03*
X3045Y5511D03*
X2309Y5174D03*
X2222Y4694D03*
X3121Y2696D03*
X3034Y2216D03*
X2312Y1869D03*
X2226Y1388D03*
X3129Y5170D03*
X3042Y4690D03*
X1480Y4345D03*
X1393Y3865D03*
G54D11*
X1437Y4105D03*
G54D10*
X1484Y5172D03*
X1398Y4692D03*
G54D11*
X1441Y4932D03*
G54D10*
X1479Y3518D03*
X1393Y3038D03*
G54D11*
X1436Y3278D03*
G54D10*
X1476Y2698D03*
X1390Y2217D03*
G54D11*
X1433Y2458D03*
G54D10*
X1488Y1867D03*
X1401Y1386D03*
X1485Y1046D03*
X1398Y566D03*
X1487Y5993D03*
X1401Y5512D03*
X1488Y6819D03*
X1401Y6339D03*
X670Y1050D03*
X583Y569D03*
X673Y1870D03*
X586Y1390D03*
X665Y4349D03*
X578Y3868D03*
X664Y3522D03*
X578Y3042D03*
X661Y2701D03*
X575Y2221D03*
X669Y5176D03*
X583Y4695D03*
X672Y5996D03*
X586Y5516D03*
X673Y6823D03*
X586Y6343D03*
G54D12*
X4695Y306D03*
X4695Y133D03*
X3041Y306D03*
X3041Y133D03*
X1388Y306D03*
X1388Y133D03*
X5521Y306D03*
X5521Y133D03*
X600Y306D03*
X600Y133D03*
X2214Y306D03*
X2214Y133D03*
X3868Y306D03*
X3868Y133D03*
X11309Y306D03*
X11309Y133D03*
X10482Y306D03*
X10482Y133D03*
X9655Y306D03*
X9655Y133D03*
X6348Y306D03*
X6348Y133D03*
X8828Y306D03*
X8828Y133D03*
X8002Y306D03*
X8002Y133D03*
X7175Y306D03*
X7175Y133D03*
G54D13*
X246Y6196D03*
X246Y6747D03*
G04 End of PasteMask0*
M02*