; NON-PLATED HOLES START AT T1
; THROUGH (PLATED) HOLES START AT T100
M48
INCH
T100C0.015748
%
T100
X104033Y058413
X087497Y024161
X013481Y024948
X040253Y023767
X062694Y048571
X055607Y007232
X070962Y032822
X046159Y065500
X056001Y048964
X096552Y058807
X064269Y040303
X015844Y024948
X112694Y058807
X006001Y016681
X097340Y058807
X006395Y033610
X022143Y006838
X046159Y024948
X080017Y032429
X038678Y016287
X038678Y066681
X113088Y056838
X063088Y039909
X071749Y057626
X056395Y040303
X105214Y008413
X079623Y032822
X064269Y023767
X039072Y064712
X022930Y007626
X023718Y048964
X029623Y048964
X030410Y024948
X006001Y032429
X030410Y048177
X031198Y049752
X104427Y049752
X080017Y009200
X089859Y057232
X112694Y048177
X039466Y041090
X046946Y024161
X055214Y050539
X081198Y048570
X079623Y065893
X031985Y041484
X006788Y032429
X080804Y032429
X046946Y067075
X022930Y040697
X114269Y066287
X054820Y033610
X015450Y017074
X046946Y015106
X106001Y024161
X113482Y056445
X055214Y066287
X030804Y024555
X014269Y042271
X055607Y008019
X088678Y033610
X055214Y008413
X014269Y016681
X089072Y034004
X113482Y033216
X070962Y033610
X088285Y065500
X072536Y032035
X006395Y023767
X015056Y041484
X021749Y058413
X031198Y024948
X031198Y048964
X079623Y033610
X105608Y056838
X030804Y025342
X046946Y057232
X022143Y032429
X104427Y058807
X029623Y008413
X056788Y066287
X096946Y048570
X072536Y065106
X039466Y016287
X104427Y040697
X030410Y016681
X046946Y050539
X023324Y024555
X048521Y015893
X071749Y048570
X022537Y048571
X112301Y023767
X063088Y031641
X021355Y049752
X062694Y008019
X039859Y058807
X015056Y048177
X080804Y064712
X113875Y041090
X006001Y058807
X096946Y040303
X113482Y048964
X063875Y040697
X022930Y065500
X015450Y024555
X080411Y032035
X113875Y008019
X097733Y023767
X072536Y024555
X047340Y050145
X007576Y016681
X072143Y064712
X080017Y058807
X080804Y016681
X063088Y032429
X054820Y024555
X046946Y031641
X031985Y016681
X071355Y048177
X063875Y006838
X030017Y058413
X056395Y048570
X014269Y015106
X046946Y008413
X046552Y050145
X063088Y024161
X031591Y049358
X079229Y032429
X063088Y057232
X063875Y016681
X063088Y024948
X079229Y024948
X070962Y023767
X006001Y067074
X113875Y016287
X047733Y025736
X005607Y056838
X015450Y049358
X015056Y042271
X055607Y048570
X046946Y032429
X105214Y017468
X072143Y056445
X104033Y016287
X022930Y058807
X014269Y025736
X105214Y058807
X080411Y049358
X023324Y041090
X070568Y040697
X006788Y064712
X005607Y048570
X030017Y032035
X112694Y057232
X062694Y065893
X031591Y065106
X048127Y041878
X064269Y056838
X112694Y048964
X015056Y008413
X040647Y048964
X087497Y057232
X038678Y032822
X104033Y048571
X021355Y058019
X022537Y065106
X079229Y024161
X113875Y065893
X062694Y058413
X055214Y031641
X015056Y048964
X005607Y008807
X089859Y066287
X056001Y008413
X056001Y058019
X088678Y065893
X098127Y040697
X040253Y057626
X055214Y017468
X113088Y033610
X038678Y023767
X105608Y066681
X031985Y040697
X113875Y049358
X080411Y057626
X087497Y007626
X070962Y057626
X105214Y064712
X005607Y040303
X096158Y023767
X022143Y008413
X112301Y033610
X072536Y066681
X080411Y007232
X055607Y049358
X063875Y008413
X039859Y040697
X055607Y065106
X046946Y058807
X105214Y040697
X096158Y033610
X047733Y023374
X046159Y016681
X096946Y056838
X005214Y041484
X096552Y058019
X111907Y024948
X021355Y041484
X071749Y033610
X113875Y032822
X097340Y058019
X088285Y040697
X040647Y024948
X081198Y032822
X089072Y042271
X022930Y050539
X055214Y048177
X072143Y050539
X070568Y058019
X030410Y033216
X022143Y015106
X015450Y050145
X089859Y024161
X113088Y032822
X055214Y064712
X030804Y007232
X039466Y058413
X088285Y058807
X005607Y017074
X081592Y048964
X029623Y040697
X112694Y031641
X022537Y049358
X030804Y015500
X089859Y065500
X098127Y008413
X104427Y032429
X056395Y056838
X071355Y065500
X055214Y056445
X105608Y050145
X081592Y008413
X063875Y042271
X062300Y065500
X105608Y041878
X096552Y040697
X055214Y039909
X087891Y050145
X014269Y049752
X096946Y041878
X070962Y048570
X040253Y015500
X079229Y048964
X063088Y048964
X079229Y057232
X046552Y056838
X021355Y066287
X097340Y040697
X006001Y007626
X021355Y008413
X063875Y024948
X095765Y015893
X080411Y065106
X023324Y017075
X007182Y016287
X030410Y042271
X072536Y008807
X080411Y048570
X096946Y008807
X056001Y040697
X072930Y058019
X031591Y048570
X046159Y007626
X072930Y007626
X047733Y064712
X040647Y015893
X038678Y057626
X031591Y007232
X064269Y032823
X030410Y017468
X047340Y056838
X089466Y033610
X113482Y017468
X104427Y042271
X089072Y048964
X105214Y057232
X039859Y067074
X088678Y065106
X064663Y058019
X013875Y016287
X096158Y032822
X071749Y032035
X030017Y015500
X096946Y023767
X021355Y065500
X007576Y033216
X113875Y065106
X006001Y006838
X046552Y024555
X112694Y024161
X072536Y033610
X054820Y032822
X089072Y040697
X055214Y058019
X112694Y034004
X015450Y016287
X005214Y048964
X015450Y065106
X014662Y024555
X105214Y058019
X015450Y007232
X072536Y048570
X080017Y006838
X105214Y024161
X089859Y016681
X071355Y025736
X062300Y016681
X046946Y034004
X054426Y048964
X056001Y017468
X072143Y032429
X023324Y041878
X039859Y058019
X062300Y066287
X089466Y066681
X096158Y049358
X047340Y024555
X106001Y066287
X080017Y067074
X080804Y009200
X056001Y049752
X113875Y050145
X087497Y041484
X030017Y049358
X095765Y007626
X022930Y006838
X111907Y015893
X080017Y049752
X088285Y006838
X089466Y032035
X063088Y058807
X031591Y057626
X070568Y066287
X111907Y048964
X104820Y048571
X063875Y056445
X031985Y033216
X005214Y049752
X046552Y065106
X079623Y017074
X031198Y058807
X071749Y066681
X007182Y041090
X072536Y065893
X056395Y008019
X105214Y048964
X013481Y040697
X113875Y017074
X047340Y065106
X015450Y041878
X022537Y041090
X105214Y034004
X056001Y056445
X098127Y058019
X038678Y049358
X062300Y057232
X022143Y065500
X097340Y034004
X063481Y032035
X023718Y024948
X030410Y066287
X072930Y015893
X097340Y067074
X105214Y032429
X056001Y064712
X006001Y049752
X013481Y065500
X097733Y066681
X046946Y009200
X015450Y008807
X013875Y023767
X013875Y008807
X039072Y066287
X087891Y065893
X113482Y042271
X056001Y058807
X079229Y015893
X046159Y015893
X081198Y032035
X048127Y033610
X080017Y024948
X096552Y067074
X087891Y008807
X071355Y007626
X006788Y007626
X013481Y048964
X096552Y034004
X072143Y017468
X104033Y015500
X022537Y058413
X046946Y015893
X005214Y040697
X096158Y017074
X081592Y058019
X080804Y033216
X089072Y015893
X104820Y057626
X072536Y008019
X105608Y025342
X105608Y049358
X056788Y057232
X088285Y032429
X113482Y058807
X071749Y065106
X056788Y007626
X039072Y056445
X089072Y058807
X081592Y033216
X021749Y024555
X039859Y034004
X071355Y057232
X021355Y016681
X113088Y058413
X113875Y015500
X007576Y024948
X046946Y033216
X021749Y048571
X103639Y033216
X031198Y008413
X089859Y041484
X006001Y024948
X081198Y016287
X071749Y032822
X040647Y007626
X112694Y015106
X063875Y007626
X022537Y025342
X089072Y041484
X039072Y024948
X022143Y057232
X079229Y040697
X056001Y050539
X056001Y006838
X005607Y032822
X095765Y049752
X080804Y034004
X038678Y050145
X005607Y007232
X071355Y024161
X062300Y024161
X089859Y015893
X055607Y040303
X006788Y016681
X038284Y058019
X056001Y065500
X080017Y040697
X007182Y025342
X096946Y066681
X098127Y057232
X031198Y056445
X089466Y032822
X015056Y024948
X097733Y041090
X062300Y024948
X080411Y041090
X005214Y008413
X104820Y023767
X056788Y024161
X081592Y007626
X105608Y032823
X104033Y017075
X046946Y024948
X022143Y007626
X089072Y067074
X071749Y058413
X072536Y058413
X029623Y058019
X014269Y007626
X047733Y024948
X038284Y041484
X070962Y041090
X031198Y033216
X054820Y032035
X112694Y056445
X072143Y025736
X072143Y034004
X048521Y066287
X040253Y032822
X096158Y015500
X022143Y024161
X072536Y040303
X006001Y025736
X014662Y023767
X056788Y041484
X006395Y016287
X103639Y057232
X063481Y056838
X005214Y058019
X005607Y065893
X113482Y048177
X104820Y041878
X072930Y033216
X063088Y040697
X022143Y058019
X096552Y050539
X038284Y066287
X112694Y025736
X098127Y024161
X106001Y024948
X096158Y007232
X070962Y066681
X054426Y032429
X098127Y032429
X048127Y058413
X007182Y041878
X089466Y058413
X022143Y048177
X014662Y050145
X081592Y057232
X079623Y049358
X105214Y031641
X021749Y016287
X089859Y048964
X079623Y057626
X089466Y016287
X022930Y023374
X031198Y017468
X096946Y016287
X006395Y041878
X014269Y023374
X097340Y050539
X089466Y050145
X031591Y041090
X039466Y025342
X063481Y040303
X022537Y033610
X030410Y015106
X104033Y032035
X096158Y066681
X087891Y048570
X007576Y008413
X113482Y025736
X105608Y032035
X030410Y058019
X072143Y042271
X014269Y024948
X031198Y050539
X064269Y007232
X006395Y058413
X063481Y007232
X096158Y065893
X029623Y033216
X007182Y032035
X013875Y008019
X112694Y017468
X054820Y057626
X063875Y034004
X072143Y016681
X029623Y066287
X089466Y065106
X006395Y015500
X081198Y066681
X013875Y041878
X007576Y048964
X081198Y041090
X096946Y024555
X081198Y007232
X023324Y023767
X063875Y058019
X063088Y015893
X081198Y033610
X105214Y067075
X055607Y066681
X021355Y024948
X014269Y067074
X071749Y016287
X063875Y032429
X015056Y034004
X006788Y033216
X097340Y064712
X040253Y032035
X030804Y023767
X006395Y050145
X030017Y025342
X031985Y066287
X088285Y024948
X089072Y015106
X089072Y009200
X006395Y024555
X030410Y057232
X106001Y007626
X015844Y049752
X064269Y057626
X113482Y058019
X070568Y024161
X071355Y042271
X063875Y050539
X031198Y031641
X046946Y039909
X055607Y041878
X072536Y056838
X104033Y033610
X096552Y064712
X063875Y009201
X022143Y050539
X055607Y023767
X097733Y024555
X015056Y015106
X096946Y025342
X106001Y008413
X006788Y024948
X007182Y015500
X030017Y041878
X014662Y025342
X039859Y050539
X104820Y017075
X056788Y040697
X064269Y008807
X064269Y024555
X046159Y048964
X056788Y008413
X079623Y008019
X038678Y015500
X006788Y031641
X088285Y048964
X103639Y007626
X039859Y064712
X080411Y017074
X015056Y058019
X063875Y064712
X113088Y057626
X039466Y008807
X056001Y067074
X081198Y024555
X038284Y016681
X022537Y024555
X104427Y016681
X081198Y025342
X021749Y041878
X089466Y041878
X054820Y008019
X047340Y041090
X104033Y065106
X047340Y057626
X105214Y015893
X056395Y057626
X097340Y015106
X113088Y015500
X096552Y015106
X088678Y056838
X046552Y057626
X048127Y056838
X014662Y017074
X071749Y050145
X070568Y041484
X113088Y032035
X112301Y025342
X089072Y050539
X030410Y049752
X039072Y016681
X056001Y033216
X080804Y039909
X072536Y023767
X114269Y033216
X029623Y024948
X106001Y040697
X081592Y024161
X006788Y049752
X095765Y058019
X095765Y033216
X029623Y049752
X097733Y057626
X089072Y058019
X046552Y041090
X104427Y067075
X021749Y066681
X080804Y058019
X040253Y025342
X070568Y057232
X087891Y017074
X021749Y017075
X064663Y065500
X022143Y064712
X030410Y041484
X071749Y041878
X038284Y007626
X015056Y064712
X005607Y058413
X015450Y058413
X007182Y065106
X070568Y048964
X106001Y049752
X038678Y008807
X055607Y033610
X070962Y050145
X087891Y049358
X071355Y032429
X112694Y058019
X096158Y040303
X039859Y015106
X070962Y065106
X047733Y049752
X040647Y065500
X005607Y016287
X014269Y006838
X080804Y006838
X021749Y033610
X064269Y032035
X006395Y056838
X103639Y065500
X063875Y017468
X063875Y015106
X112694Y007626
X080017Y025736
X006001Y009200
X013481Y016681
X055607Y025342
X054426Y015893
X088285Y041484
X006788Y048177
X081592Y066287
X103639Y024161
X047733Y006838
X089466Y041090
X113875Y023767
X064663Y024161
X031198Y023374
X056788Y024948
X030410Y024161
X088285Y009200
X080411Y065893
X007576Y049752
X023324Y008019
X015844Y040697
X056001Y007626
X113482Y057232
X014269Y058807
X031591Y017074
X072143Y048964
X039072Y031641
X006788Y058807
X015056Y024161
X015844Y007626
X105608Y008019
X047733Y048964
X022143Y009201
X021355Y015893
X015056Y065500
X038678Y040303
X013875Y025342
X112301Y032035
X072143Y015106
X081198Y065106
X072143Y008413
X096946Y015500
X054426Y065500
X039466Y017074
X015056Y067074
X079229Y058019
X070962Y058413
X005607Y008019
X029623Y007626
X098127Y024948
X064663Y040697
X048127Y023767
X048127Y015500
X039072Y039909
X023324Y025342
X087891Y057626
X040647Y008413
X088285Y049752
X022143Y017468
X070568Y015893
X104427Y024948
X087891Y041878
X046946Y041484
X006001Y066287
X087497Y033216
X095765Y032429
X097733Y065106
X063875Y023374
X031198Y016681
X070568Y065500
X113482Y064712
X030017Y023767
X062300Y049752
X112694Y064712
X112301Y007232
X015450Y032822
X038678Y048570
X080804Y066287
X007576Y015893
X087891Y056838
X056395Y016287
X046552Y032035
X087891Y041090
X031198Y025736
X006395Y066681
X062300Y048964
X096158Y050145
X023718Y024161
X104820Y025342
X021749Y056838
X089466Y056838
X030804Y040303
X029623Y065500
X105214Y016681
X063088Y023374
X113482Y024161
X097733Y015500
X064663Y057232
X031198Y032429
X113088Y016287
X015056Y057232
X047340Y032035
X113875Y033610
X005214Y015893
X014662Y007232
X056001Y023374
X063481Y049358
X014269Y040697
X097733Y041878
X006395Y008807
X088285Y025736
X038284Y049752
X071749Y041090
X048127Y066681
X080804Y041484
X071355Y050539
X014269Y041484
X087497Y016681
X056395Y041878
X031591Y050145
X031591Y065893
X015056Y006838
X080804Y007626
X013481Y032429
X113875Y058413
X064269Y066681
X039072Y041484
X062694Y032823
X047733Y041484
X022930Y048964
X015844Y033216
X022143Y056445
X113088Y008807
X014662Y065893
X007182Y017074
X080411Y050145
X039072Y058807
X023718Y057232
X064269Y017075
X054426Y049752
X046159Y058019
X063481Y023767
X113482Y007626
X055214Y048964
X071355Y033216
X038678Y033610
X113875Y040303
X064269Y008019
X038678Y007232
X081198Y065893
X063875Y015893
X087497Y066287
X080804Y025736
X062694Y065106
X063088Y058019
X104427Y031641
X063481Y016287
X023718Y058019
X104427Y023374
X070962Y065893
X113875Y048570
X056395Y065106
X054426Y008413
X039859Y015893
X046946Y016681
X096158Y016287
X022537Y050145
X070962Y007232
X088678Y008019
X070962Y040303
X007182Y008807
X022537Y040303
X006788Y065500
X021749Y025342
X104033Y057626
X063875Y065500
X097340Y008413
X080017Y041484
X022143Y039909
X113088Y017074
X055607Y032822
X064663Y066287
X056001Y066287
X014662Y015500
X062300Y041484
X039466Y049358
X048521Y008413
X022537Y023767
X015844Y032429
X063481Y050145
X104820Y066681
X046946Y066287
X112694Y016681
X112301Y066681
X079623Y065106
X031198Y007626
X062694Y049358
X056395Y066681
X096552Y008413
X071749Y056838
X039466Y032822
X030804Y065893
X104427Y025736
X021749Y008807
X106001Y041484
X007576Y065500
X096158Y025342
X113875Y041878
X047733Y009200
X006395Y032035
X023718Y032429
X096946Y033610
X095765Y057232
X039072Y050539
X071355Y049752
X039466Y033610
X022930Y015106
X046159Y032429
X103639Y049752
X005214Y065500
X023718Y008413
X112694Y066287
X080017Y034004
X022930Y034004
X096552Y015893
X062694Y041090
X063875Y048177
X112301Y032822
X055214Y015106
X063875Y041484
X063875Y024161
X055214Y032429
X039072Y048964
X048127Y024555
X014269Y031641
X096158Y056838
X105214Y042271
X013875Y049358
X056001Y015106
X015056Y066287
X039466Y023767
X046159Y008413
X070962Y015500
X080017Y048964
X087891Y008019
X063875Y039909
X089072Y008413
X071355Y009200
X103639Y040697
X005214Y024161
X056001Y024948
X088285Y064712
X097340Y015893
X015450Y032035
X088678Y041878
X015056Y040697
X081198Y058413
X054426Y024948
X015056Y015893
X072143Y031641
X112301Y015500
X072143Y067075
X072930Y016681
X105608Y008807
X104820Y050145
X095765Y024161
X063875Y057232
X089072Y032429
X081198Y056838
X021749Y015500
X105214Y025736
X038678Y058413
X039859Y008413
X087497Y049752
X089859Y024948
X080804Y042271
X030410Y031641
X072536Y016287
X062694Y032035
X014662Y032822
X023324Y033610
X113088Y041878
X022930Y024948
X089072Y007626
X063088Y064712
X111907Y065500
X081198Y008807
X105608Y017075
X104033Y041090
X089072Y064712
X063088Y034004
X006001Y033216
X063481Y033610
X030804Y033610
X048127Y008807
X054820Y056838
X014269Y039909
X039072Y009200
X054820Y017074
X063088Y006838
X063875Y031641
X022143Y041484
X039072Y015106
X014662Y033610
X063875Y048964
X047733Y040697
X113875Y025342
X088285Y066287
X048127Y016287
X062694Y057626
X014269Y008413
X014269Y034004
X114269Y016681
X113482Y009200
X039072Y034004
X063088Y050539
X014269Y056445
X022143Y034004
X062694Y007232
X023324Y066681
X071355Y008413
X089072Y025736
X022537Y008807
X039859Y009200
X079623Y041090
X096946Y058413
X114269Y040697
X113482Y015893
X064269Y048571
X071355Y040697
X006395Y048570
X038678Y024555
X047340Y015500
X104427Y034004
X080804Y065500
X056001Y009200
X046552Y015500
X079623Y040303
X046946Y007626
X114269Y008413
X031985Y024161
X039072Y023374
X014269Y033216
X048521Y040697
X030804Y048570
X056001Y041484
X087891Y066681
X062694Y050145
X046946Y065500
X056788Y015893
X040647Y066287
X022930Y024161
X096552Y009200
X006788Y015106
X039466Y007232
X039466Y015500
X080804Y015106
X070568Y008413
X040253Y008807
X111907Y049752
X014269Y066287
X021749Y023767
X014269Y057232
X040253Y058413
X014662Y048570
X022930Y057232
X106001Y015893
X064269Y065893
X097340Y009200
X088678Y066681
X063481Y025342
X080804Y017468
X013481Y058019
X112694Y049752
X079623Y032035
X022143Y066287
X087891Y058413
X005214Y066287
X006395Y025342
X006788Y024161
X080017Y031641
X038678Y065893
X103639Y032429
X030804Y032035
X005214Y057232
X006788Y057232
X007182Y066681
X014662Y008019
X095765Y065500
X072143Y024948
X023324Y048571
X113088Y050145
X005607Y025342
X039859Y023374
X111907Y066287
X014662Y032035
X114269Y024948
X080804Y050539
X071749Y008019
X072536Y007232
X030017Y056838
X031198Y039909
X015844Y015893
X104033Y041878
X062694Y056838
X088285Y033216
X039466Y040303
X040647Y040697
X022143Y048964
X055214Y042271
X097733Y040303
X104033Y050145
X112301Y065106
X079623Y007232
X087497Y065500
X023324Y065893
X048127Y025342
X056395Y041090
X022930Y032429
X046946Y040697
X081592Y016681
X112694Y041484
X023718Y040697
X088678Y057626
X064663Y048964
X055214Y025736
X015844Y065500
X015056Y039909
X089072Y049752
X089466Y008019
X047733Y032429
X097340Y023374
X031985Y065500
X021749Y040303
X080017Y033216
X112694Y065500
X079229Y016681
X070962Y049358
X079623Y041878
X007576Y066287
X113088Y024555
X104033Y066681
X063088Y042271
X063088Y065500
X087891Y065106
X088285Y023374
X030410Y064712
X096552Y023374
X088678Y016287
X105608Y048571
X113482Y015106
X007182Y024555
X048127Y032035
X048521Y016681
X046552Y040303
X113482Y041484
X055214Y016681
X054820Y066681
X054820Y050145
X015450Y033610
X007182Y058413
X047340Y040303
X087891Y040303
X054426Y007626
X040253Y007232
X031985Y024948
X064663Y041484
X014269Y024161
X030410Y007626
X097733Y008807
X013875Y032035
X071355Y039909
X054820Y041878
X104033Y056838
X046159Y024161
X022143Y023374
X040647Y041484
X055214Y009200
X112301Y056838
X112694Y009200
X062300Y032429
X063481Y041090
X039859Y032429
X038284Y057232
X104820Y032035
X113482Y049752
X022537Y041878
X007576Y007626
X014662Y049358
X105214Y024948
X006001Y058019
X056001Y015893
X079623Y050145
X064663Y049752
X055214Y015893
X071355Y006838
X114269Y049752
X038284Y015893
X021355Y024161
X104033Y023767
X070962Y025342
X070962Y017074
X031198Y058019
X063088Y016681
X030804Y066681
X072143Y033216
X081592Y024948
X022537Y032823
X103639Y008413
X104033Y024555
X048127Y050145
X063088Y041484
X071749Y008807
X006001Y023374
X039859Y049752
X031985Y057232
X106001Y065500
X113088Y066681
X095765Y016681
X080804Y031641
X006788Y050539
X022537Y008019
X095765Y008413
X063088Y008413
X104033Y049358
X098127Y048964
X030804Y065106
X056788Y033216
X079229Y008413
X039859Y025736
X081198Y008019
X097340Y032429
X079229Y041484
X015056Y009200
X030804Y049358
X072143Y065500
X021355Y032429
X089072Y039909
X081198Y023767
X046159Y057232
X015450Y056838
X021355Y057232
X015450Y015500
X104427Y041484
X040253Y041878
X063481Y008019
X064663Y024948
X048127Y017074
X047340Y066681
X070962Y056838
X081592Y041484
X064663Y008413
X096552Y032429
X015844Y057232
X089072Y024948
X040253Y066681
X031198Y006838
X112694Y040697
X006395Y049358
X029623Y041484
X072930Y048964
X056395Y065893
X112694Y039909
X046552Y066681
X039072Y032429
X063481Y065893
X046552Y007232
X072930Y008413
X070568Y024948
X039859Y007626
X047340Y007232
X047733Y057232
X023718Y041484
X031198Y034004
X087497Y058019
X014269Y017468
X111907Y016681
X080017Y064712
X113088Y041090
X097340Y049752
X104427Y033216
X031985Y049752
X046552Y016287
X079229Y065500
X015844Y024161
X071355Y041484
X070962Y041878
X072536Y025342
X015450Y065893
X047733Y007626
X047340Y016287
X079229Y066287
X014269Y050539
X105214Y065500
X040253Y065106
X006395Y017074
X006001Y031641
X030017Y032822
X096552Y049752
X097340Y025736
X039466Y050145
X006001Y039909
X089466Y008807
X030804Y017074
X039466Y024555
X007182Y056838
X113875Y024555
X111907Y007626
X096552Y025736
X006788Y017468
X048521Y024948
X095765Y024948
X038284Y024161
X023324Y057626
X089859Y040697
X055214Y065500
X006788Y023374
X089072Y031641
X048127Y049358
X096158Y048570
X105608Y058413
X007182Y023767
X063088Y066287
X113482Y039909
X096158Y008807
X072143Y049752
X015056Y023374
X072143Y009200
X056001Y032429
X064269Y041090
X021749Y041090
X022930Y017468
X112301Y040303
X022143Y015893
X080411Y015500
X013481Y033216
X039466Y032035
X031591Y058413
X031591Y008019
X104427Y048964
X104820Y032823
X111907Y008413
X104820Y056838
X015450Y008019
X030017Y033610
X105608Y057626
X006001Y041484
X007182Y057626
X105608Y024555
X097733Y032822
X114269Y007626
X096552Y007626
X047733Y024161
X105608Y023767
X097340Y007626
X030804Y050145
X087497Y008413
X046159Y040697
X038678Y056838
X031591Y015500
X054426Y041484
X080017Y015893
X112694Y024948
X054820Y025342
X054426Y040697
X055607Y065893
X103639Y024948
X029623Y015893
X038284Y033216
X072930Y066287
X015450Y057626
X047733Y058807
X046946Y023374
X072930Y041484
X088678Y017074
X022930Y025736
X022930Y048177
X087497Y032429
X006788Y042271
X072536Y041878
X055214Y023374
X087891Y015500
X096946Y032822
X080017Y048177
X105214Y007626
X046946Y064712
X087891Y007232
X097733Y058413
X111907Y040697
X080411Y008019
X054820Y041090
X104427Y015106
X046946Y017468
X072143Y015893
X087891Y032035
X056395Y025342
X063481Y065106
X081592Y015893
X070962Y008019
X039072Y007626
X063875Y067075
X113482Y023374
X072143Y006838
X056395Y033610
X022930Y016681
X071355Y048964
X097733Y048570
X013875Y056838
X040253Y024555
X113482Y016681
X089466Y040303
X006788Y008413
X006788Y056445
X038284Y048964
X080804Y058807
X112301Y041090
X056001Y031641
X014662Y041878
X048521Y065500
X112301Y008019
X081198Y015500
X088678Y032822
X055214Y049752
X055214Y006838
X113482Y066287
X021749Y032823
X006395Y008019
X111907Y058019
X038678Y041090
X072930Y024948
X103639Y048964
X088285Y050539
X014662Y066681
X014269Y048177
X030804Y057626
X089859Y033216
X039466Y008019
X047733Y015106
X047733Y065500
X064663Y032429
X021355Y048964
X104427Y024161
X031198Y009200
X030804Y016287
X023718Y016681
X080017Y066287
X055607Y008807
X005607Y032035
X040647Y016681
X088678Y032035
X038678Y041878
X113088Y048570
X007182Y049358
X015056Y025736
X013875Y050145
X056788Y032429
X071355Y056445
X006001Y017468
X106001Y016681
X031985Y008413
X048127Y040303
X071749Y025342
X013875Y066681
X080411Y058413
X056788Y016681
X006001Y048964
X062300Y015893
X030017Y041090
X056395Y058413
X022143Y067075
X046946Y056445
X112694Y006838
X105214Y015106
X030410Y009200
X104820Y041090
X038284Y008413
X022143Y031641
X088285Y017468
X039466Y041878
X039072Y040697
X081592Y040697
X039466Y056838
X113482Y067074
X104427Y057232
X071749Y024555
X006788Y066287
X031591Y033610
X063875Y066287
X103639Y016681
X015844Y058019
X080804Y056445
X104033Y065893
X112694Y032429
X062694Y040303
X098127Y015893
X013875Y040303
X056395Y023767
X006395Y041090
X039072Y042271
X006001Y056445
X039072Y033216
X113875Y056838
X048127Y048570
X089466Y025342
X114269Y032429
X105608Y041090
X038284Y040697
X096946Y008019
X071355Y024948
X106001Y032429
X113088Y049358
X080017Y023374
X064269Y015500
X064269Y016287
X088678Y008807
X007182Y032822
X072143Y007626
X105608Y016287
X087497Y048964
X030410Y065500
X089466Y007232
X047733Y039909
X039072Y008413
X089859Y008413
X113875Y007232
X062694Y023767
X022143Y058807
X055607Y056838
X071749Y040303
X031985Y058019
X089466Y024555
X081592Y032429
X055214Y024948
X088678Y015500
X022537Y007232
X104033Y007232
X080017Y039909
X031198Y015893
X040253Y041090
X088678Y048570
X021749Y049358
X030410Y050539
X103639Y066287
X071749Y015500
X062694Y008807
X040253Y050145
X013481Y008413
X112301Y058413
X022537Y057626
X047733Y016681
X079623Y048570
X007182Y050145
X030410Y008413
X113875Y032035
X046552Y023767
X104033Y008807
X096158Y065106
X096946Y065893
X113088Y025342
X113482Y050539
X005607Y015500
X046552Y041878
X021355Y033216
X104427Y065500
X062694Y025342
X056788Y058019
X104427Y064712
X054820Y007232
X014269Y058019
X071355Y016681
X040253Y016287
X022143Y033216
X056395Y007232
X006395Y065106
X056001Y025736
X103639Y041484
X111907Y041484
X038284Y024948
X113875Y057626
X030017Y048570
X031198Y064712
X081198Y057626
X104033Y025342
X080411Y066681
X062300Y007626
X054820Y048570
X047340Y017074
X022930Y009201
X047340Y023767
X088285Y034004
X014662Y040303
X013875Y065106
X047340Y041878
X007576Y041484
X048521Y057232
X006001Y050539
X040647Y049752
X089859Y032429
X013875Y065893
X098127Y049752
X064269Y065106
X104820Y049358
X079623Y008807
X095765Y040697
X048127Y008019
X089466Y065893
X111907Y033216
X113875Y066681
X048521Y007626
X080411Y033610
X089072Y057232
X047340Y008019
X079623Y056838
X022930Y042271
X022930Y066287
X046552Y008019
X046552Y017074
X054820Y058413
X113482Y006838
X063088Y049752
X080017Y058019
X022930Y039909
X006395Y007232
X064663Y033216
X112301Y048570
X031985Y015893
X030017Y065106
X030804Y041090
X038678Y065106
X048521Y024161
X021749Y050145
X105214Y041484
X039859Y056445
X080804Y015893
X030017Y057626
X023324Y015500
X006001Y015893
X030410Y048964
X097733Y033610
X071749Y007232
X005214Y033216
X089072Y048177
X054820Y049358
X105214Y033216
X005607Y065106
X039466Y057626
X031591Y024555
X062694Y041878
X089466Y015500
X096158Y024555
X038678Y025342
X056001Y057232
X097733Y025342
X070568Y016681
X097733Y032035
X013481Y041484
X014662Y041090
X064269Y050145
X113088Y008019
X080017Y017468
X097340Y048177
X023718Y066287
X105214Y049752
X054820Y015500
X013875Y017074
X071355Y015106
X023324Y008807
X040253Y049358
X088285Y056445
X080017Y050539
X013481Y024161
X006788Y039909
X056788Y048964
X048127Y041090
X063481Y017075
X046552Y033610
X006001Y064712
X030017Y007232
X056001Y042271
X079623Y023767
X047340Y033610
X097733Y049358
X072143Y066287
X080411Y056838
X096552Y048177
X056788Y065500
X015056Y031641
X104033Y008019
X040253Y017074
X089859Y007626
X071355Y034004
X098127Y007626
X096946Y065106
X112694Y015893
X013481Y057232
X096158Y032035
X098127Y065500
X104033Y040303
X104427Y066287
X104820Y065106
X006788Y040697
X070962Y024555
X105608Y033610
X113482Y040697
X046946Y058019
X013481Y007626
X030410Y058807
X063088Y007626
X098127Y033216
X040647Y057232
X080804Y008413
X070568Y032429
X063481Y015500
X087891Y025342
X022930Y067075
X113875Y008807
X055607Y016287
X039859Y048177
X112694Y067074
X005607Y041090
X055214Y007626
X022537Y032035
X022930Y056445
X047340Y049358
X064269Y049358
X031198Y015106
X039859Y031641
X039072Y006838
X015844Y048964
X072143Y041484
X080017Y056445
X080804Y024948
X072930Y040697
X113088Y065106
X097340Y056445
X096552Y056445
X079229Y049752
X105608Y015500
X040253Y056838
X030017Y008019
X088285Y058019
X007182Y040303
X080411Y040303
X031591Y040303
X021749Y065106
X022930Y033216
X089072Y024161
X014269Y064712
X071749Y065893
X113088Y007232
X104820Y024555
X014269Y032429
X022930Y015893
X063875Y033216
X031591Y025342
X006001Y034004
X088285Y031641
X070568Y049752
X056001Y024161
X055214Y058807
X046552Y049358
X039466Y048570
X039859Y017468
X013481Y015893
X022537Y015500
X088678Y007232
X089072Y065500
X104427Y048177
X029623Y024161
X046946Y006838
X112694Y050539
X080411Y025342
X097733Y056838
X054426Y024161
X031591Y056838
X071355Y023374
X015056Y016681
X088285Y008413
X039859Y039909
X054426Y057232
X096552Y031641
X113482Y065500
X055214Y067074
X055607Y017074
X031591Y066681
X031591Y023767
X029623Y032429
X031198Y040697
X089072Y023374
X046159Y066287
X070962Y016287
X096552Y017468
X023324Y049358
X072536Y032822
X113482Y024948
X063088Y033216
X097340Y031641
X047733Y008413
X062694Y017075
X071355Y066287
X030410Y006838
X006395Y040303
X096946Y017074
X081592Y065500
X015450Y040303
X104427Y017468
X021749Y032035
X071355Y031641
X015056Y033216
X112301Y049358
X096552Y024948
X097733Y050145
X080411Y016287
X006788Y041484
X015450Y023767
X097340Y017468
X046159Y049752
X013481Y049752
X072536Y041090
X046552Y065893
X105214Y006838
X029623Y057232
X088678Y040303
X097733Y007232
X096552Y039909
X014662Y056838
X029623Y016681
X080017Y065500
X031591Y032822
X015056Y056445
X063481Y032823
X112301Y017074
X062300Y058019
X114269Y065500
X014662Y016287
X097340Y024948
X022537Y016287
X072930Y065500
X080804Y067074
X063481Y008807
X088285Y048177
X088285Y015893
X047340Y065893
X039072Y067074
X105608Y065106
X089072Y056445
X005607Y041878
X040253Y008019
X015844Y041484
X097340Y039909
X095765Y041484
X006788Y006838
X047733Y042271
X007182Y033610
X079229Y007626
X047733Y015893
X056395Y008807
X063088Y048177
X046946Y048964
X104427Y009201
X080017Y015106
X096158Y058413
X097733Y017074
X023324Y056838
X056395Y015500
X006788Y048964
X022143Y016681
X062300Y008413
X022143Y040697
X023324Y032823
X054426Y066287
X105214Y066287
X030804Y032822
X046552Y032822
X048521Y032429
X062694Y033610
X023718Y065500
X096946Y057626
X055607Y024555
X104427Y015893
X030410Y040697
X064269Y025342
X080411Y032822
X046159Y041484
X030017Y008807
X062694Y024555
X072143Y048177
X080411Y024555
X087497Y015893
X054426Y016681
X022537Y017075
X040647Y024161
X015056Y058807
X089072Y033216
X022537Y066681
X062694Y066681
X080804Y049752
X013875Y048570
X047340Y032822
X030804Y056838
X056001Y034004
X063088Y009201
X038678Y032035
X055214Y041484
X038284Y032429
X039859Y066287
X089859Y049752
X105214Y056445
X081198Y049358
X015056Y007626
X031198Y024161
X030017Y017074
X097340Y016681
X105608Y007232
X098127Y066287
X014662Y065106
X031985Y007626
X005607Y049358
X039859Y033216
X021749Y008019
X097733Y016287
X114269Y057232
X113482Y008413
X106001Y048964
X089072Y066287
X089072Y017468
X112301Y050145
X023718Y033216
X079229Y033216
X071355Y058807
X015844Y008413
X112694Y023374
X096552Y016681
X023718Y007626
X006001Y048177
X104820Y058413
X063481Y066681
X007576Y032429
X081198Y017074
X006788Y034004
X113482Y031641
X112301Y041878
X039859Y024948
X048127Y065893
X031591Y016287
X079623Y066681
X070568Y007626
X105608Y040303
X064269Y033610
X087891Y033610
X055214Y033216
X080017Y008413
X030410Y032429
X072930Y024161
X040253Y040303
X054820Y065893
X022537Y056838
X038678Y017074
X111907Y024161
X056395Y050145
X023718Y049752
X030410Y023374
X063481Y024555
X054820Y065106
X087891Y032822
X096946Y041090
X096158Y041090
X006001Y057232
X023324Y007232
X021355Y007626
X031985Y032429
X054820Y040303
X006001Y024161
X070962Y032035
X022930Y049752
X031198Y057232
X039859Y016681
X114269Y048964
X014269Y009200
X046159Y033216
X096946Y049358
X023324Y032035
X097340Y042271
X015844Y016681
X048127Y065106
X111907Y057232
X104427Y008413
X047340Y025342
X096946Y007232
X079623Y016287
X095765Y048964
X007182Y007232
X088285Y015106
X096552Y042271
X088678Y050145
X087891Y023767
X030410Y025736
X104820Y016287
X013875Y032822
X096552Y066287
X097733Y065893
X046946Y049752
X047340Y048570
X071355Y017468
X013875Y007232
X030017Y016287
X015056Y032429
X089859Y058019
X096552Y024161
X047733Y048177
X015056Y049752
X030804Y008019
X006395Y032822
X112301Y008807
X055214Y040697
X039072Y024161
X040253Y065893
X079623Y058413
X072143Y039909
X021749Y007232
X055607Y050145
X046552Y025342
X022143Y042271
X048521Y033216
X088678Y058413
X005214Y016681
X062694Y016287
X112301Y057626
X104427Y050539
X088285Y016681
X039072Y048177
X081198Y050145
X022143Y025736
X031198Y066287
X080411Y041878
X046552Y048570
X081198Y040303
X080017Y057232
X097340Y024161
X097340Y066287
X088678Y023767
X030410Y039909
X038678Y008019
X005607Y023767
X072143Y058807
X022537Y065893
X072143Y023374
X006788Y009200
X096552Y033216
X007182Y048570
X080411Y023767
X039072Y049752
X023324Y058413
X089466Y017074
X114269Y015893
X080017Y007626
X014269Y015893
X097340Y033216
X056395Y032822
X063875Y025736
X105608Y065893
X072930Y057232
X022143Y049752
X005607Y050145
X112694Y008413
X080804Y048964
X113482Y032429
X098127Y016681
X079623Y024555
X063875Y058807
X048127Y057626
X014269Y048964
X104820Y008807
X114269Y058019
X031591Y041878
X039859Y057232
X080804Y048177
X014269Y065500
X055607Y015500
X023324Y040303
X048127Y007232
X022143Y024948
X089072Y006838
X096946Y032035
X104820Y015500
X046946Y042271
X021749Y057626
X007182Y065893
X113482Y034004
X063875Y049752
X096946Y050145
X005607Y024555
X040253Y048570
X071355Y064712
X055607Y058413
X064663Y007626
X064663Y016681
X039859Y042271
X097340Y048964
X030410Y034004
X080017Y024161
X007576Y040697
X096552Y048964
X088678Y025342
X087497Y024948
X007576Y058019
X055607Y032035
X104820Y007232
X006001Y065500
X112301Y016287
X114269Y041484
X114269Y024161
X022930Y041484
X056001Y016681
X014662Y057626
X080804Y057232
X063481Y041878
X039859Y024161
X062300Y033216
X088285Y042271
X048521Y048964
X031198Y065500
X013875Y058413
X056395Y049358
X006001Y040697
X015056Y050539
X015450Y048570
X079623Y025342
X056001Y048177
X046946Y048177
X030410Y067074
X005607Y057626
X047733Y067075
X063481Y048571
X080804Y040697
X056001Y039909
X013875Y015500
X104033Y032823
X056395Y032035
X048127Y032822
X007182Y008019
X054426Y058019
X006001Y042271
X104820Y065893
X063481Y058413
X113088Y065893
X030804Y008807
X013875Y041090
X088678Y024555
X097340Y041484
X080804Y024161
X030804Y058413
X031198Y042271
X047733Y056445
X039859Y048964
X039072Y057232
X071749Y023767
X064269Y041878
X104820Y040303
X105214Y039909
X021749Y065893
X072930Y049752
X096552Y041484
X005214Y007626
X088678Y049358
X103639Y015893
X006788Y067074
X056395Y024555
X087891Y024555
X072143Y040697
X112694Y042271
X097340Y057232
X063088Y056445
X013875Y057626
X039859Y065500
X096158Y041878
X080017Y042271
X104427Y039909
X047733Y017468
X105214Y023374
X047733Y031641
X040647Y032429
X096552Y057232
X056395Y017074
X071749Y017074
X054820Y016287
X054820Y008807
X089466Y049358
X071355Y058019
X096158Y008019
X062694Y015500
X089466Y023767
X105214Y009201
X040647Y058019
X104427Y007626
X005607Y033610
X047733Y058019
X005607Y066681
X022930Y008413
X087497Y040697
X112694Y033216
X106001Y057232
X104820Y008019
X088285Y067074
X015450Y041090
X071355Y015893
X014662Y008807
X006788Y025736
X046946Y025736
X055214Y034004
X080017Y016681
X063088Y017468
X013875Y033610
X030017Y065893
X030017Y040303
X113088Y040303
X072536Y050145
X022930Y064712
X023718Y015893
X112301Y065893
X088285Y024161
X063481Y057626
X007576Y057232
X030410Y056445
X056788Y049752
X079623Y015500
X005214Y024948
X030017Y050145
X039072Y025736
X039466Y065893
X087891Y016287
X103639Y058019
X047340Y008807
X047733Y034004
X088678Y041090
X104427Y056445
X047733Y050539
X046552Y008807
X023324Y016287
X023324Y065106
X048521Y041484
X030017Y024555
X039859Y041484
X063088Y015106
X097733Y008019
X030410Y015893
X006001Y015106
X046552Y058413
X006788Y058019
X088285Y007626
X071355Y067075
X039466Y066681
X030804Y041878
X055214Y024161
X055607Y057626
X005214Y032429
X013481Y066287
X047733Y033216
X063088Y067075
X048521Y049752
X040253Y033610
X064269Y058413
X104427Y058019
X080411Y008807
X095765Y066287
X089072Y016681
X022930Y058019
X070568Y033216
X006788Y015893
X031591Y008807
X105214Y048177
X113088Y023767
X039072Y017468
X072143Y024161
X097340Y065500
X055607Y041090
X081198Y041878
X070962Y008807
X031591Y032035
X096552Y006838
X111907Y032429
X047340Y058413
X015056Y017468
X022930Y031641
X096552Y065500
X062300Y040697
X031985Y048964
X097340Y006838
X080804Y023374
X031198Y048177
X014662Y058413
X088285Y057232
X072536Y015500
X072536Y057626
X013875Y024555
X038284Y065500
X088285Y039909
X104427Y006838
X031198Y041484
X106001Y033216
X047733Y066287
X112301Y024555
X048521Y058019
X015450Y066681
X072930Y032429
X039072Y058019
X071749Y049358
X015450Y025342
X063088Y025736
X072143Y058019
X006395Y057626
X072143Y057232
X039072Y015893
X072536Y049358
X015844Y066287
X089466Y057626
X096158Y057626
X006395Y065893
X039859Y006838
X031198Y067074
X006001Y008413
X104820Y033610
X021355Y040697
X023324Y050145
X054820Y023767
X106001Y058019
X055214Y057232
X072536Y017074
X089466Y048570
X098127Y041484
X030017Y066681
X039072Y065500
X039466Y065106
X064663Y015893
X007576Y024161
X105214Y050539
X054426Y033216
X040647Y033216
X081592Y049752
T00
M30
