solid CATIA STL
  facet normal  1.000000e+000  -0.000000e+000  0.000000e+000
    outer loop
      vertex  2.000000e+000  4.500000e+000  6.500000e+000
      vertex  2.000000e+000 -4.500000e+000  6.500000e+000
      vertex  2.000000e+000  4.514853e-001  5.810500e+000
    endloop
  endfacet
  facet normal  1.000000e+000  -0.000000e+000  0.000000e+000
    outer loop
      vertex  2.000000e+000  4.500000e+000  6.500000e+000
      vertex  2.000000e+000  4.514853e-001  5.810500e+000
      vertex  2.000000e+000  8.892524e-001  5.693201e+000
    endloop
  endfacet
  facet normal  1.000000e+000  -0.000000e+000  0.000000e+000
    outer loop
      vertex  2.000000e+000  4.500000e+000  6.500000e+000
      vertex  2.000000e+000  8.892524e-001  5.693201e+000
      vertex  2.000000e+000  1.300000e+000  5.501666e+000
    endloop
  endfacet
  facet normal  1.000000e+000  -0.000000e+000  0.000000e+000
    outer loop
      vertex  2.000000e+000  4.500000e+000  6.500000e+000
      vertex  2.000000e+000  1.300000e+000  5.501666e+000
      vertex  2.000000e+000  1.671248e+000  5.241715e+000
    endloop
  endfacet
  facet normal  9.999999e-001  -0.000000e+000  0.000000e+000
    outer loop
      vertex  2.000000e+000  4.500000e+000  6.500000e+000
      vertex  2.000000e+000  1.671248e+000  5.241715e+000
      vertex  2.000000e+000  1.991716e+000  4.921248e+000
    endloop
  endfacet
  facet normal  1.000000e+000  -0.000000e+000  0.000000e+000
    outer loop
      vertex  2.000000e+000  4.500000e+000  6.500000e+000
      vertex  2.000000e+000  1.991716e+000  4.921248e+000
      vertex  2.000000e+000  2.251666e+000  4.550000e+000
    endloop
  endfacet
  facet normal  9.999999e-001  -0.000000e+000  0.000000e+000
    outer loop
      vertex  2.000000e+000  4.500000e+000  6.500000e+000
      vertex  2.000000e+000  2.251666e+000  4.550000e+000
      vertex  2.000000e+000  4.500000e+000  0.000000e+000
    endloop
  endfacet
  facet normal  1.000000e+000  0.000000e+000  0.000000e+000
    outer loop
      vertex  2.000000e+000  4.500000e+000  0.000000e+000
      vertex  2.000000e+000  2.251666e+000  4.550000e+000
      vertex  2.000000e+000  2.443201e+000  4.139252e+000
    endloop
  endfacet
  facet normal  1.000000e+000  0.000000e+000  0.000000e+000
    outer loop
      vertex  2.000000e+000  4.500000e+000  0.000000e+000
      vertex  2.000000e+000  2.443201e+000  4.139252e+000
      vertex  2.000000e+000  2.560500e+000  3.701485e+000
    endloop
  endfacet
  facet normal  1.000000e+000  0.000000e+000  0.000000e+000
    outer loop
      vertex  2.000000e+000  4.500000e+000  0.000000e+000
      vertex  2.000000e+000  2.560500e+000  3.701485e+000
      vertex  2.000000e+000  2.600000e+000  3.250000e+000
    endloop
  endfacet
  facet normal  1.000000e+000  0.000000e+000  0.000000e+000
    outer loop
      vertex  2.000000e+000  4.500000e+000  0.000000e+000
      vertex  2.000000e+000  2.600000e+000  3.250000e+000
      vertex  2.000000e+000  2.560500e+000  2.798515e+000
    endloop
  endfacet
  facet normal  1.000000e+000  0.000000e+000  0.000000e+000
    outer loop
      vertex  2.000000e+000  4.500000e+000  0.000000e+000
      vertex  2.000000e+000  2.560500e+000  2.798515e+000
      vertex  2.000000e+000  2.443201e+000  2.360748e+000
    endloop
  endfacet
  facet normal  9.999999e-001  0.000000e+000  0.000000e+000
    outer loop
      vertex  2.000000e+000  4.500000e+000  0.000000e+000
      vertex  2.000000e+000  2.443201e+000  2.360748e+000
      vertex  2.000000e+000  2.251666e+000  1.950000e+000
    endloop
  endfacet
  facet normal  1.000000e+000  0.000000e+000  0.000000e+000
    outer loop
      vertex  2.000000e+000  4.500000e+000  0.000000e+000
      vertex  2.000000e+000  2.251666e+000  1.950000e+000
      vertex  2.000000e+000  1.991716e+000  1.578752e+000
    endloop
  endfacet
  facet normal  9.999999e-001  0.000000e+000  0.000000e+000
    outer loop
      vertex  2.000000e+000  4.500000e+000  0.000000e+000
      vertex  2.000000e+000  1.991716e+000  1.578752e+000
      vertex  2.000000e+000  1.671248e+000  1.258284e+000
    endloop
  endfacet
  facet normal  1.000000e+000  0.000000e+000  0.000000e+000
    outer loop
      vertex  2.000000e+000  4.500000e+000  0.000000e+000
      vertex  2.000000e+000  1.671248e+000  1.258284e+000
      vertex  2.000000e+000  1.300000e+000  9.983339e-001
    endloop
  endfacet
  facet normal  1.000000e+000  0.000000e+000  0.000000e+000
    outer loop
      vertex  2.000000e+000  4.500000e+000  0.000000e+000
      vertex  2.000000e+000  1.300000e+000  9.983339e-001
      vertex  2.000000e+000  8.892524e-001  8.067992e-001
    endloop
  endfacet
  facet normal  9.999999e-001  0.000000e+000  0.000000e+000
    outer loop
      vertex  2.000000e+000  4.500000e+000  0.000000e+000
      vertex  2.000000e+000  8.892524e-001  8.067992e-001
      vertex  2.000000e+000  4.514853e-001  6.894999e-001
    endloop
  endfacet
  facet normal  1.000000e+000  0.000000e+000  0.000000e+000
    outer loop
      vertex  2.000000e+000  4.500000e+000  0.000000e+000
      vertex  2.000000e+000  4.514853e-001  6.894999e-001
      vertex  2.000000e+000 -4.500000e+000  0.000000e+000
    endloop
  endfacet
  facet normal  9.999999e-001  0.000000e+000  0.000000e+000
    outer loop
      vertex  2.000000e+000 -4.500000e+000  0.000000e+000
      vertex  2.000000e+000  4.514853e-001  6.894999e-001
      vertex  2.000000e+000  2.186939e-015  6.500000e-001
    endloop
  endfacet
  facet normal  1.000000e+000  0.000000e+000  0.000000e+000
    outer loop
      vertex  2.000000e+000 -4.500000e+000  0.000000e+000
      vertex  2.000000e+000  2.186939e-015  6.500000e-001
      vertex  2.000000e+000 -4.514853e-001  6.894999e-001
    endloop
  endfacet
  facet normal  1.000000e+000  0.000000e+000  0.000000e+000
    outer loop
      vertex  2.000000e+000 -4.500000e+000  0.000000e+000
      vertex  2.000000e+000 -4.514853e-001  6.894999e-001
      vertex  2.000000e+000 -8.892524e-001  8.067992e-001
    endloop
  endfacet
  facet normal  1.000000e+000  0.000000e+000  0.000000e+000
    outer loop
      vertex  2.000000e+000 -4.500000e+000  0.000000e+000
      vertex  2.000000e+000 -8.892524e-001  8.067992e-001
      vertex  2.000000e+000 -1.300000e+000  9.983339e-001
    endloop
  endfacet
  facet normal  1.000000e+000  0.000000e+000  0.000000e+000
    outer loop
      vertex  2.000000e+000 -4.500000e+000  0.000000e+000
      vertex  2.000000e+000 -1.300000e+000  9.983339e-001
      vertex  2.000000e+000 -1.671248e+000  1.258284e+000
    endloop
  endfacet
  facet normal  1.000000e+000  0.000000e+000  0.000000e+000
    outer loop
      vertex  2.000000e+000 -4.500000e+000  0.000000e+000
      vertex  2.000000e+000 -1.671248e+000  1.258284e+000
      vertex  2.000000e+000 -1.991716e+000  1.578752e+000
    endloop
  endfacet
  facet normal  1.000000e+000  0.000000e+000  0.000000e+000
    outer loop
      vertex  2.000000e+000 -4.500000e+000  0.000000e+000
      vertex  2.000000e+000 -1.991716e+000  1.578752e+000
      vertex  2.000000e+000 -2.251666e+000  1.950000e+000
    endloop
  endfacet
  facet normal  9.999999e-001  0.000000e+000  0.000000e+000
    outer loop
      vertex  2.000000e+000 -4.500000e+000  0.000000e+000
      vertex  2.000000e+000 -2.251666e+000  1.950000e+000
      vertex  2.000000e+000 -2.443201e+000  2.360748e+000
    endloop
  endfacet
  facet normal  1.000000e+000  0.000000e+000  0.000000e+000
    outer loop
      vertex  2.000000e+000 -4.500000e+000  0.000000e+000
      vertex  2.000000e+000 -2.443201e+000  2.360748e+000
      vertex  2.000000e+000 -2.560500e+000  2.798515e+000
    endloop
  endfacet
  facet normal  1.000000e+000  0.000000e+000  0.000000e+000
    outer loop
      vertex  2.000000e+000 -4.500000e+000  0.000000e+000
      vertex  2.000000e+000 -2.560500e+000  2.798515e+000
      vertex  2.000000e+000 -2.600000e+000  3.250000e+000
    endloop
  endfacet
  facet normal  1.000000e+000  0.000000e+000  0.000000e+000
    outer loop
      vertex  2.000000e+000 -4.500000e+000  0.000000e+000
      vertex  2.000000e+000 -2.600000e+000  3.250000e+000
      vertex  2.000000e+000 -4.500000e+000  6.500000e+000
    endloop
  endfacet
  facet normal  1.000000e+000  0.000000e+000  -0.000000e+000
    outer loop
      vertex  2.000000e+000 -4.500000e+000  6.500000e+000
      vertex  2.000000e+000 -2.600000e+000  3.250000e+000
      vertex  2.000000e+000 -2.560500e+000  3.701485e+000
    endloop
  endfacet
  facet normal  1.000000e+000  0.000000e+000  -0.000000e+000
    outer loop
      vertex  2.000000e+000 -4.500000e+000  6.500000e+000
      vertex  2.000000e+000 -2.560500e+000  3.701485e+000
      vertex  2.000000e+000 -2.443201e+000  4.139252e+000
    endloop
  endfacet
  facet normal  1.000000e+000  0.000000e+000  -0.000000e+000
    outer loop
      vertex  2.000000e+000 -4.500000e+000  6.500000e+000
      vertex  2.000000e+000 -2.443201e+000  4.139252e+000
      vertex  2.000000e+000 -2.251666e+000  4.550000e+000
    endloop
  endfacet
  facet normal  1.000000e+000  0.000000e+000  -0.000000e+000
    outer loop
      vertex  2.000000e+000 -4.500000e+000  6.500000e+000
      vertex  2.000000e+000 -2.251666e+000  4.550000e+000
      vertex  2.000000e+000 -1.991716e+000  4.921248e+000
    endloop
  endfacet
  facet normal  1.000000e+000  0.000000e+000  -0.000000e+000
    outer loop
      vertex  2.000000e+000 -4.500000e+000  6.500000e+000
      vertex  2.000000e+000 -1.991716e+000  4.921248e+000
      vertex  2.000000e+000 -1.671248e+000  5.241715e+000
    endloop
  endfacet
  facet normal  1.000000e+000  0.000000e+000  -0.000000e+000
    outer loop
      vertex  2.000000e+000 -4.500000e+000  6.500000e+000
      vertex  2.000000e+000 -1.671248e+000  5.241715e+000
      vertex  2.000000e+000 -1.300000e+000  5.501666e+000
    endloop
  endfacet
  facet normal  1.000000e+000  0.000000e+000  -0.000000e+000
    outer loop
      vertex  2.000000e+000 -4.500000e+000  6.500000e+000
      vertex  2.000000e+000 -1.300000e+000  5.501666e+000
      vertex  2.000000e+000 -8.892524e-001  5.693201e+000
    endloop
  endfacet
  facet normal  1.000000e+000  0.000000e+000  -0.000000e+000
    outer loop
      vertex  2.000000e+000 -4.500000e+000  6.500000e+000
      vertex  2.000000e+000 -8.892524e-001  5.693201e+000
      vertex  2.000000e+000 -4.514853e-001  5.810500e+000
    endloop
  endfacet
  facet normal  1.000000e+000  0.000000e+000  -0.000000e+000
    outer loop
      vertex  2.000000e+000 -4.500000e+000  6.500000e+000
      vertex  2.000000e+000 -4.514853e-001  5.810500e+000
      vertex  2.000000e+000  2.823734e-015  5.850000e+000
    endloop
  endfacet
  facet normal  1.000000e+000  -0.000000e+000  -0.000000e+000
    outer loop
      vertex  2.000000e+000 -4.500000e+000  6.500000e+000
      vertex  2.000000e+000  2.823734e-015  5.850000e+000
      vertex  2.000000e+000  4.514853e-001  5.810500e+000
    endloop
  endfacet
  facet normal  0.000000e+000 -8.715583e-002  9.961947e-001
    outer loop
      vertex -1.000000e+000  2.186939e-015  6.500000e-001
      vertex  2.000000e+000  4.514853e-001  6.894999e-001
      vertex -1.000000e+000  4.514853e-001  6.894999e-001
    endloop
  endfacet
  facet normal  0.000000e+000 -2.588190e-001  9.659259e-001
    outer loop
      vertex -1.000000e+000  4.514853e-001  6.894999e-001
      vertex  2.000000e+000  4.514853e-001  6.894999e-001
      vertex  2.000000e+000  8.892524e-001  8.067992e-001
    endloop
  endfacet
  facet normal  0.000000e+000 -2.588190e-001  9.659259e-001
    outer loop
      vertex -1.000000e+000  4.514853e-001  6.894999e-001
      vertex  2.000000e+000  8.892524e-001  8.067992e-001
      vertex -1.000000e+000  8.892524e-001  8.067992e-001
    endloop
  endfacet
  facet normal  0.000000e+000 -4.226183e-001  9.063078e-001
    outer loop
      vertex -1.000000e+000  8.892524e-001  8.067992e-001
      vertex  2.000000e+000  8.892524e-001  8.067992e-001
      vertex  2.000000e+000  1.300000e+000  9.983339e-001
    endloop
  endfacet
  facet normal  0.000000e+000 -4.226183e-001  9.063078e-001
    outer loop
      vertex -1.000000e+000  8.892524e-001  8.067992e-001
      vertex  2.000000e+000  1.300000e+000  9.983339e-001
      vertex -1.000000e+000  1.300000e+000  9.983339e-001
    endloop
  endfacet
  facet normal  0.000000e+000 -5.735764e-001  8.191521e-001
    outer loop
      vertex -1.000000e+000  1.300000e+000  9.983339e-001
      vertex  2.000000e+000  1.300000e+000  9.983339e-001
      vertex  2.000000e+000  1.671248e+000  1.258284e+000
    endloop
  endfacet
  facet normal  0.000000e+000 -5.735764e-001  8.191521e-001
    outer loop
      vertex -1.000000e+000  1.300000e+000  9.983339e-001
      vertex  2.000000e+000  1.671248e+000  1.258284e+000
      vertex -1.000000e+000  1.671248e+000  1.258284e+000
    endloop
  endfacet
  facet normal  0.000000e+000 -7.071068e-001  7.071068e-001
    outer loop
      vertex -1.000000e+000  1.671248e+000  1.258284e+000
      vertex  2.000000e+000  1.671248e+000  1.258284e+000
      vertex  2.000000e+000  1.991716e+000  1.578752e+000
    endloop
  endfacet
  facet normal  0.000000e+000 -7.071068e-001  7.071068e-001
    outer loop
      vertex -1.000000e+000  1.671248e+000  1.258284e+000
      vertex  2.000000e+000  1.991716e+000  1.578752e+000
      vertex -1.000000e+000  1.991716e+000  1.578752e+000
    endloop
  endfacet
  facet normal  0.000000e+000 -8.191521e-001  5.735764e-001
    outer loop
      vertex -1.000000e+000  1.991716e+000  1.578752e+000
      vertex  2.000000e+000  1.991716e+000  1.578752e+000
      vertex  2.000000e+000  2.251666e+000  1.950000e+000
    endloop
  endfacet
  facet normal  0.000000e+000 -8.191521e-001  5.735764e-001
    outer loop
      vertex -1.000000e+000  1.991716e+000  1.578752e+000
      vertex  2.000000e+000  2.251666e+000  1.950000e+000
      vertex -1.000000e+000  2.251666e+000  1.950000e+000
    endloop
  endfacet
  facet normal  0.000000e+000 -9.063078e-001  4.226184e-001
    outer loop
      vertex -1.000000e+000  2.251666e+000  1.950000e+000
      vertex  2.000000e+000  2.251666e+000  1.950000e+000
      vertex  2.000000e+000  2.443201e+000  2.360748e+000
    endloop
  endfacet
  facet normal  0.000000e+000 -9.063078e-001  4.226184e-001
    outer loop
      vertex -1.000000e+000  2.251666e+000  1.950000e+000
      vertex  2.000000e+000  2.443201e+000  2.360748e+000
      vertex -1.000000e+000  2.443201e+000  2.360748e+000
    endloop
  endfacet
  facet normal  0.000000e+000 -9.659259e-001  2.588189e-001
    outer loop
      vertex -1.000000e+000  2.443201e+000  2.360748e+000
      vertex  2.000000e+000  2.443201e+000  2.360748e+000
      vertex  2.000000e+000  2.560500e+000  2.798515e+000
    endloop
  endfacet
  facet normal  0.000000e+000 -9.659259e-001  2.588189e-001
    outer loop
      vertex -1.000000e+000  2.443201e+000  2.360748e+000
      vertex  2.000000e+000  2.560500e+000  2.798515e+000
      vertex -1.000000e+000  2.560500e+000  2.798515e+000
    endloop
  endfacet
  facet normal  0.000000e+000 -9.961947e-001  8.715558e-002
    outer loop
      vertex -1.000000e+000  2.560500e+000  2.798515e+000
      vertex  2.000000e+000  2.560500e+000  2.798515e+000
      vertex  2.000000e+000  2.600000e+000  3.250000e+000
    endloop
  endfacet
  facet normal  0.000000e+000 -9.961947e-001  8.715558e-002
    outer loop
      vertex -1.000000e+000  2.560500e+000  2.798515e+000
      vertex  2.000000e+000  2.600000e+000  3.250000e+000
      vertex -1.000000e+000  2.600000e+000  3.250000e+000
    endloop
  endfacet
  facet normal  0.000000e+000 -8.715583e-002  9.961947e-001
    outer loop
      vertex  2.000000e+000  4.514853e-001  6.894999e-001
      vertex -1.000000e+000  2.186939e-015  6.500000e-001
      vertex  2.000000e+000  2.186939e-015  6.500000e-001
    endloop
  endfacet
  facet normal  0.000000e+000  8.715583e-002  9.961947e-001
    outer loop
      vertex  2.000000e+000  2.186939e-015  6.500000e-001
      vertex -1.000000e+000  2.186939e-015  6.500000e-001
      vertex -1.000000e+000 -4.514853e-001  6.894999e-001
    endloop
  endfacet
  facet normal  -0.000000e+000  8.715583e-002  9.961947e-001
    outer loop
      vertex  2.000000e+000  2.186939e-015  6.500000e-001
      vertex -1.000000e+000 -4.514853e-001  6.894999e-001
      vertex  2.000000e+000 -4.514853e-001  6.894999e-001
    endloop
  endfacet
  facet normal  0.000000e+000  2.588190e-001  9.659259e-001
    outer loop
      vertex  2.000000e+000 -4.514853e-001  6.894999e-001
      vertex -1.000000e+000 -4.514853e-001  6.894999e-001
      vertex -1.000000e+000 -8.892524e-001  8.067992e-001
    endloop
  endfacet
  facet normal  -0.000000e+000  2.588190e-001  9.659259e-001
    outer loop
      vertex  2.000000e+000 -4.514853e-001  6.894999e-001
      vertex -1.000000e+000 -8.892524e-001  8.067992e-001
      vertex  2.000000e+000 -8.892524e-001  8.067992e-001
    endloop
  endfacet
  facet normal  0.000000e+000  4.226183e-001  9.063078e-001
    outer loop
      vertex  2.000000e+000 -8.892524e-001  8.067992e-001
      vertex -1.000000e+000 -8.892524e-001  8.067992e-001
      vertex -1.000000e+000 -1.300000e+000  9.983339e-001
    endloop
  endfacet
  facet normal  -0.000000e+000  4.226183e-001  9.063078e-001
    outer loop
      vertex  2.000000e+000 -8.892524e-001  8.067992e-001
      vertex -1.000000e+000 -1.300000e+000  9.983339e-001
      vertex  2.000000e+000 -1.300000e+000  9.983339e-001
    endloop
  endfacet
  facet normal  0.000000e+000  5.735764e-001  8.191521e-001
    outer loop
      vertex  2.000000e+000 -1.300000e+000  9.983339e-001
      vertex -1.000000e+000 -1.300000e+000  9.983339e-001
      vertex -1.000000e+000 -1.671248e+000  1.258284e+000
    endloop
  endfacet
  facet normal  -0.000000e+000  5.735764e-001  8.191521e-001
    outer loop
      vertex  2.000000e+000 -1.300000e+000  9.983339e-001
      vertex -1.000000e+000 -1.671248e+000  1.258284e+000
      vertex  2.000000e+000 -1.671248e+000  1.258284e+000
    endloop
  endfacet
  facet normal  0.000000e+000  7.071068e-001  7.071068e-001
    outer loop
      vertex  2.000000e+000 -1.671248e+000  1.258284e+000
      vertex -1.000000e+000 -1.671248e+000  1.258284e+000
      vertex -1.000000e+000 -1.991716e+000  1.578752e+000
    endloop
  endfacet
  facet normal  -0.000000e+000  7.071068e-001  7.071068e-001
    outer loop
      vertex  2.000000e+000 -1.671248e+000  1.258284e+000
      vertex -1.000000e+000 -1.991716e+000  1.578752e+000
      vertex  2.000000e+000 -1.991716e+000  1.578752e+000
    endloop
  endfacet
  facet normal  0.000000e+000  8.191521e-001  5.735764e-001
    outer loop
      vertex  2.000000e+000 -1.991716e+000  1.578752e+000
      vertex -1.000000e+000 -1.991716e+000  1.578752e+000
      vertex -1.000000e+000 -2.251666e+000  1.950000e+000
    endloop
  endfacet
  facet normal  -0.000000e+000  8.191521e-001  5.735764e-001
    outer loop
      vertex  2.000000e+000 -1.991716e+000  1.578752e+000
      vertex -1.000000e+000 -2.251666e+000  1.950000e+000
      vertex  2.000000e+000 -2.251666e+000  1.950000e+000
    endloop
  endfacet
  facet normal  0.000000e+000  9.063078e-001  4.226184e-001
    outer loop
      vertex  2.000000e+000 -2.251666e+000  1.950000e+000
      vertex -1.000000e+000 -2.251666e+000  1.950000e+000
      vertex -1.000000e+000 -2.443201e+000  2.360748e+000
    endloop
  endfacet
  facet normal  -0.000000e+000  9.063078e-001  4.226184e-001
    outer loop
      vertex  2.000000e+000 -2.251666e+000  1.950000e+000
      vertex -1.000000e+000 -2.443201e+000  2.360748e+000
      vertex  2.000000e+000 -2.443201e+000  2.360748e+000
    endloop
  endfacet
  facet normal  0.000000e+000  9.659259e-001  2.588189e-001
    outer loop
      vertex  2.000000e+000 -2.443201e+000  2.360748e+000
      vertex -1.000000e+000 -2.443201e+000  2.360748e+000
      vertex -1.000000e+000 -2.560500e+000  2.798515e+000
    endloop
  endfacet
  facet normal  -0.000000e+000  9.659259e-001  2.588189e-001
    outer loop
      vertex  2.000000e+000 -2.443201e+000  2.360748e+000
      vertex -1.000000e+000 -2.560500e+000  2.798515e+000
      vertex  2.000000e+000 -2.560500e+000  2.798515e+000
    endloop
  endfacet
  facet normal  0.000000e+000  9.961947e-001  8.715558e-002
    outer loop
      vertex  2.000000e+000 -2.560500e+000  2.798515e+000
      vertex -1.000000e+000 -2.560500e+000  2.798515e+000
      vertex -1.000000e+000 -2.600000e+000  3.250000e+000
    endloop
  endfacet
  facet normal  -0.000000e+000  9.961947e-001  8.715558e-002
    outer loop
      vertex  2.000000e+000 -2.560500e+000  2.798515e+000
      vertex -1.000000e+000 -2.600000e+000  3.250000e+000
      vertex  2.000000e+000 -2.600000e+000  3.250000e+000
    endloop
  endfacet
  facet normal  0.000000e+000  8.715556e-002 -9.961947e-001
    outer loop
      vertex -1.000000e+000  2.823734e-015  5.850000e+000
      vertex  2.000000e+000 -4.514853e-001  5.810500e+000
      vertex -1.000000e+000 -4.514853e-001  5.810500e+000
    endloop
  endfacet
  facet normal  0.000000e+000  2.588195e-001 -9.659258e-001
    outer loop
      vertex -1.000000e+000 -4.514853e-001  5.810500e+000
      vertex  2.000000e+000 -4.514853e-001  5.810500e+000
      vertex  2.000000e+000 -8.892524e-001  5.693201e+000
    endloop
  endfacet
  facet normal  0.000000e+000  2.588195e-001 -9.659258e-001
    outer loop
      vertex -1.000000e+000 -4.514853e-001  5.810500e+000
      vertex  2.000000e+000 -8.892524e-001  5.693201e+000
      vertex -1.000000e+000 -8.892524e-001  5.693201e+000
    endloop
  endfacet
  facet normal  0.000000e+000  4.226179e-001 -9.063081e-001
    outer loop
      vertex -1.000000e+000 -8.892524e-001  5.693201e+000
      vertex  2.000000e+000 -8.892524e-001  5.693201e+000
      vertex  2.000000e+000 -1.300000e+000  5.501666e+000
    endloop
  endfacet
  facet normal  0.000000e+000  4.226179e-001 -9.063081e-001
    outer loop
      vertex -1.000000e+000 -8.892524e-001  5.693201e+000
      vertex  2.000000e+000 -1.300000e+000  5.501666e+000
      vertex -1.000000e+000 -1.300000e+000  5.501666e+000
    endloop
  endfacet
  facet normal  0.000000e+000  5.735765e-001 -8.191519e-001
    outer loop
      vertex -1.000000e+000 -1.300000e+000  5.501666e+000
      vertex  2.000000e+000 -1.300000e+000  5.501666e+000
      vertex  2.000000e+000 -1.671248e+000  5.241715e+000
    endloop
  endfacet
  facet normal  0.000000e+000  5.735765e-001 -8.191519e-001
    outer loop
      vertex -1.000000e+000 -1.300000e+000  5.501666e+000
      vertex  2.000000e+000 -1.671248e+000  5.241715e+000
      vertex -1.000000e+000 -1.671248e+000  5.241715e+000
    endloop
  endfacet
  facet normal  0.000000e+000  7.071065e-001 -7.071071e-001
    outer loop
      vertex -1.000000e+000 -1.671248e+000  5.241715e+000
      vertex  2.000000e+000 -1.671248e+000  5.241715e+000
      vertex  2.000000e+000 -1.991716e+000  4.921248e+000
    endloop
  endfacet
  facet normal  0.000000e+000  7.071065e-001 -7.071071e-001
    outer loop
      vertex -1.000000e+000 -1.671248e+000  5.241715e+000
      vertex  2.000000e+000 -1.991716e+000  4.921248e+000
      vertex -1.000000e+000 -1.991716e+000  4.921248e+000
    endloop
  endfacet
  facet normal  0.000000e+000  8.191520e-001 -5.735765e-001
    outer loop
      vertex -1.000000e+000 -1.991716e+000  4.921248e+000
      vertex  2.000000e+000 -1.991716e+000  4.921248e+000
      vertex  2.000000e+000 -2.251666e+000  4.550000e+000
    endloop
  endfacet
  facet normal  0.000000e+000  8.191520e-001 -5.735765e-001
    outer loop
      vertex -1.000000e+000 -1.991716e+000  4.921248e+000
      vertex  2.000000e+000 -2.251666e+000  4.550000e+000
      vertex -1.000000e+000 -2.251666e+000  4.550000e+000
    endloop
  endfacet
  facet normal  0.000000e+000  9.063079e-001 -4.226179e-001
    outer loop
      vertex -1.000000e+000 -2.251666e+000  4.550000e+000
      vertex  2.000000e+000 -2.251666e+000  4.550000e+000
      vertex  2.000000e+000 -2.443201e+000  4.139252e+000
    endloop
  endfacet
  facet normal  0.000000e+000  9.063079e-001 -4.226179e-001
    outer loop
      vertex -1.000000e+000 -2.251666e+000  4.550000e+000
      vertex  2.000000e+000 -2.443201e+000  4.139252e+000
      vertex -1.000000e+000 -2.443201e+000  4.139252e+000
    endloop
  endfacet
  facet normal  0.000000e+000  9.659258e-001 -2.588190e-001
    outer loop
      vertex -1.000000e+000 -2.443201e+000  4.139252e+000
      vertex  2.000000e+000 -2.443201e+000  4.139252e+000
      vertex  2.000000e+000 -2.560500e+000  3.701485e+000
    endloop
  endfacet
  facet normal  0.000000e+000  9.659258e-001 -2.588190e-001
    outer loop
      vertex -1.000000e+000 -2.443201e+000  4.139252e+000
      vertex  2.000000e+000 -2.560500e+000  3.701485e+000
      vertex -1.000000e+000 -2.560500e+000  3.701485e+000
    endloop
  endfacet
  facet normal  0.000000e+000  9.961947e-001 -8.715558e-002
    outer loop
      vertex -1.000000e+000 -2.560500e+000  3.701485e+000
      vertex  2.000000e+000 -2.560500e+000  3.701485e+000
      vertex  2.000000e+000 -2.600000e+000  3.250000e+000
    endloop
  endfacet
  facet normal  0.000000e+000  9.961947e-001 -8.715558e-002
    outer loop
      vertex -1.000000e+000 -2.560500e+000  3.701485e+000
      vertex  2.000000e+000 -2.600000e+000  3.250000e+000
      vertex -1.000000e+000 -2.600000e+000  3.250000e+000
    endloop
  endfacet
  facet normal  0.000000e+000  8.715556e-002 -9.961947e-001
    outer loop
      vertex  2.000000e+000 -4.514853e-001  5.810500e+000
      vertex -1.000000e+000  2.823734e-015  5.850000e+000
      vertex  2.000000e+000  2.823734e-015  5.850000e+000
    endloop
  endfacet
  facet normal  -0.000000e+000 -8.715556e-002 -9.961947e-001
    outer loop
      vertex  2.000000e+000  2.823734e-015  5.850000e+000
      vertex -1.000000e+000  2.823734e-015  5.850000e+000
      vertex -1.000000e+000  4.514853e-001  5.810500e+000
    endloop
  endfacet
  facet normal  0.000000e+000 -8.715556e-002 -9.961947e-001
    outer loop
      vertex  2.000000e+000  2.823734e-015  5.850000e+000
      vertex -1.000000e+000  4.514853e-001  5.810500e+000
      vertex  2.000000e+000  4.514853e-001  5.810500e+000
    endloop
  endfacet
  facet normal  -0.000000e+000 -2.588195e-001 -9.659258e-001
    outer loop
      vertex  2.000000e+000  4.514853e-001  5.810500e+000
      vertex -1.000000e+000  4.514853e-001  5.810500e+000
      vertex -1.000000e+000  8.892524e-001  5.693201e+000
    endloop
  endfacet
  facet normal  0.000000e+000 -2.588195e-001 -9.659258e-001
    outer loop
      vertex  2.000000e+000  4.514853e-001  5.810500e+000
      vertex -1.000000e+000  8.892524e-001  5.693201e+000
      vertex  2.000000e+000  8.892524e-001  5.693201e+000
    endloop
  endfacet
  facet normal  -0.000000e+000 -4.226179e-001 -9.063081e-001
    outer loop
      vertex  2.000000e+000  8.892524e-001  5.693201e+000
      vertex -1.000000e+000  8.892524e-001  5.693201e+000
      vertex -1.000000e+000  1.300000e+000  5.501666e+000
    endloop
  endfacet
  facet normal  0.000000e+000 -4.226179e-001 -9.063081e-001
    outer loop
      vertex  2.000000e+000  8.892524e-001  5.693201e+000
      vertex -1.000000e+000  1.300000e+000  5.501666e+000
      vertex  2.000000e+000  1.300000e+000  5.501666e+000
    endloop
  endfacet
  facet normal  -0.000000e+000 -5.735765e-001 -8.191519e-001
    outer loop
      vertex  2.000000e+000  1.300000e+000  5.501666e+000
      vertex -1.000000e+000  1.300000e+000  5.501666e+000
      vertex -1.000000e+000  1.671248e+000  5.241715e+000
    endloop
  endfacet
  facet normal  0.000000e+000 -5.735765e-001 -8.191519e-001
    outer loop
      vertex  2.000000e+000  1.300000e+000  5.501666e+000
      vertex -1.000000e+000  1.671248e+000  5.241715e+000
      vertex  2.000000e+000  1.671248e+000  5.241715e+000
    endloop
  endfacet
  facet normal  -0.000000e+000 -7.071065e-001 -7.071071e-001
    outer loop
      vertex  2.000000e+000  1.671248e+000  5.241715e+000
      vertex -1.000000e+000  1.671248e+000  5.241715e+000
      vertex -1.000000e+000  1.991716e+000  4.921248e+000
    endloop
  endfacet
  facet normal  0.000000e+000 -7.071065e-001 -7.071071e-001
    outer loop
      vertex  2.000000e+000  1.671248e+000  5.241715e+000
      vertex -1.000000e+000  1.991716e+000  4.921248e+000
      vertex  2.000000e+000  1.991716e+000  4.921248e+000
    endloop
  endfacet
  facet normal  -0.000000e+000 -8.191520e-001 -5.735765e-001
    outer loop
      vertex  2.000000e+000  1.991716e+000  4.921248e+000
      vertex -1.000000e+000  1.991716e+000  4.921248e+000
      vertex -1.000000e+000  2.251666e+000  4.550000e+000
    endloop
  endfacet
  facet normal  0.000000e+000 -8.191520e-001 -5.735765e-001
    outer loop
      vertex  2.000000e+000  1.991716e+000  4.921248e+000
      vertex -1.000000e+000  2.251666e+000  4.550000e+000
      vertex  2.000000e+000  2.251666e+000  4.550000e+000
    endloop
  endfacet
  facet normal  -0.000000e+000 -9.063079e-001 -4.226179e-001
    outer loop
      vertex  2.000000e+000  2.251666e+000  4.550000e+000
      vertex -1.000000e+000  2.251666e+000  4.550000e+000
      vertex -1.000000e+000  2.443201e+000  4.139252e+000
    endloop
  endfacet
  facet normal  0.000000e+000 -9.063079e-001 -4.226179e-001
    outer loop
      vertex  2.000000e+000  2.251666e+000  4.550000e+000
      vertex -1.000000e+000  2.443201e+000  4.139252e+000
      vertex  2.000000e+000  2.443201e+000  4.139252e+000
    endloop
  endfacet
  facet normal  -0.000000e+000 -9.659258e-001 -2.588190e-001
    outer loop
      vertex  2.000000e+000  2.443201e+000  4.139252e+000
      vertex -1.000000e+000  2.443201e+000  4.139252e+000
      vertex -1.000000e+000  2.560500e+000  3.701485e+000
    endloop
  endfacet
  facet normal  0.000000e+000 -9.659258e-001 -2.588190e-001
    outer loop
      vertex  2.000000e+000  2.443201e+000  4.139252e+000
      vertex -1.000000e+000  2.560500e+000  3.701485e+000
      vertex  2.000000e+000  2.560500e+000  3.701485e+000
    endloop
  endfacet
  facet normal  -0.000000e+000 -9.961947e-001 -8.715558e-002
    outer loop
      vertex  2.000000e+000  2.560500e+000  3.701485e+000
      vertex -1.000000e+000  2.560500e+000  3.701485e+000
      vertex -1.000000e+000  2.600000e+000  3.250000e+000
    endloop
  endfacet
  facet normal  0.000000e+000 -9.961947e-001 -8.715558e-002
    outer loop
      vertex  2.000000e+000  2.560500e+000  3.701485e+000
      vertex -1.000000e+000  2.600000e+000  3.250000e+000
      vertex  2.000000e+000  2.600000e+000  3.250000e+000
    endloop
  endfacet
  facet normal  1.000000e+000  0.000000e+000  0.000000e+000
    outer loop
      vertex -1.000000e+000 -4.514853e-001  5.810500e+000
      vertex -1.000000e+000  4.514853e-001  5.810500e+000
      vertex -1.000000e+000  2.823734e-015  5.850000e+000
    endloop
  endfacet
  facet normal  1.000000e+000  -0.000000e+000  0.000000e+000
    outer loop
      vertex -1.000000e+000  4.514853e-001  5.810500e+000
      vertex -1.000000e+000 -4.514853e-001  5.810500e+000
      vertex -1.000000e+000  8.892524e-001  5.693201e+000
    endloop
  endfacet
  facet normal  9.999999e-001  0.000000e+000  0.000000e+000
    outer loop
      vertex -1.000000e+000  8.892524e-001  5.693201e+000
      vertex -1.000000e+000 -4.514853e-001  5.810500e+000
      vertex -1.000000e+000 -8.892524e-001  5.693201e+000
    endloop
  endfacet
  facet normal  9.999999e-001  -0.000000e+000  0.000000e+000
    outer loop
      vertex -1.000000e+000  8.892524e-001  5.693201e+000
      vertex -1.000000e+000 -8.892524e-001  5.693201e+000
      vertex -1.000000e+000  1.300000e+000  5.501666e+000
    endloop
  endfacet
  facet normal  1.000000e+000  0.000000e+000  0.000000e+000
    outer loop
      vertex -1.000000e+000  1.300000e+000  5.501666e+000
      vertex -1.000000e+000 -8.892524e-001  5.693201e+000
      vertex -1.000000e+000 -1.300000e+000  5.501666e+000
    endloop
  endfacet
  facet normal  1.000000e+000  -0.000000e+000  0.000000e+000
    outer loop
      vertex -1.000000e+000  1.300000e+000  5.501666e+000
      vertex -1.000000e+000 -1.300000e+000  5.501666e+000
      vertex -1.000000e+000  1.671248e+000  5.241715e+000
    endloop
  endfacet
  facet normal  1.000000e+000  0.000000e+000  0.000000e+000
    outer loop
      vertex -1.000000e+000  1.671248e+000  5.241715e+000
      vertex -1.000000e+000 -1.300000e+000  5.501666e+000
      vertex -1.000000e+000 -1.671248e+000  5.241715e+000
    endloop
  endfacet
  facet normal  1.000000e+000  -0.000000e+000  0.000000e+000
    outer loop
      vertex -1.000000e+000  1.671248e+000  5.241715e+000
      vertex -1.000000e+000 -1.671248e+000  5.241715e+000
      vertex -1.000000e+000  1.991716e+000  4.921248e+000
    endloop
  endfacet
  facet normal  1.000000e+000  0.000000e+000  0.000000e+000
    outer loop
      vertex -1.000000e+000  1.991716e+000  4.921248e+000
      vertex -1.000000e+000 -1.671248e+000  5.241715e+000
      vertex -1.000000e+000 -1.991716e+000  4.921248e+000
    endloop
  endfacet
  facet normal  1.000000e+000  -0.000000e+000  0.000000e+000
    outer loop
      vertex -1.000000e+000  1.991716e+000  4.921248e+000
      vertex -1.000000e+000 -1.991716e+000  4.921248e+000
      vertex -1.000000e+000  2.251666e+000  4.550000e+000
    endloop
  endfacet
  facet normal  9.999999e-001  0.000000e+000  0.000000e+000
    outer loop
      vertex -1.000000e+000  2.251666e+000  4.550000e+000
      vertex -1.000000e+000 -1.991716e+000  4.921248e+000
      vertex -1.000000e+000 -2.251666e+000  4.550000e+000
    endloop
  endfacet
  facet normal  9.999999e-001  -0.000000e+000  0.000000e+000
    outer loop
      vertex -1.000000e+000  2.251666e+000  4.550000e+000
      vertex -1.000000e+000 -2.251666e+000  4.550000e+000
      vertex -1.000000e+000  2.443201e+000  4.139252e+000
    endloop
  endfacet
  facet normal  1.000000e+000  0.000000e+000  0.000000e+000
    outer loop
      vertex -1.000000e+000  2.443201e+000  4.139252e+000
      vertex -1.000000e+000 -2.251666e+000  4.550000e+000
      vertex -1.000000e+000 -2.443201e+000  4.139252e+000
    endloop
  endfacet
  facet normal  1.000000e+000  -0.000000e+000  0.000000e+000
    outer loop
      vertex -1.000000e+000  2.443201e+000  4.139252e+000
      vertex -1.000000e+000 -2.443201e+000  4.139252e+000
      vertex -1.000000e+000  2.560500e+000  3.701485e+000
    endloop
  endfacet
  facet normal  1.000000e+000  0.000000e+000  0.000000e+000
    outer loop
      vertex -1.000000e+000  2.560500e+000  3.701485e+000
      vertex -1.000000e+000 -2.443201e+000  4.139252e+000
      vertex -1.000000e+000 -2.560500e+000  3.701485e+000
    endloop
  endfacet
  facet normal  1.000000e+000  -0.000000e+000  0.000000e+000
    outer loop
      vertex -1.000000e+000  2.560500e+000  3.701485e+000
      vertex -1.000000e+000 -2.560500e+000  3.701485e+000
      vertex -1.000000e+000  2.600000e+000  3.250000e+000
    endloop
  endfacet
  facet normal  9.999999e-001  0.000000e+000  0.000000e+000
    outer loop
      vertex -1.000000e+000  2.600000e+000  3.250000e+000
      vertex -1.000000e+000 -2.560500e+000  3.701485e+000
      vertex -1.000000e+000 -2.600000e+000  3.250000e+000
    endloop
  endfacet
  facet normal  9.999999e-001  -0.000000e+000  0.000000e+000
    outer loop
      vertex -1.000000e+000  2.600000e+000  3.250000e+000
      vertex -1.000000e+000 -2.600000e+000  3.250000e+000
      vertex -1.000000e+000  2.560500e+000  2.798515e+000
    endloop
  endfacet
  facet normal  1.000000e+000  0.000000e+000  0.000000e+000
    outer loop
      vertex -1.000000e+000  2.560500e+000  2.798515e+000
      vertex -1.000000e+000 -2.600000e+000  3.250000e+000
      vertex -1.000000e+000 -2.560500e+000  2.798515e+000
    endloop
  endfacet
  facet normal  1.000000e+000  -0.000000e+000  0.000000e+000
    outer loop
      vertex -1.000000e+000  2.560500e+000  2.798515e+000
      vertex -1.000000e+000 -2.560500e+000  2.798515e+000
      vertex -1.000000e+000  2.443201e+000  2.360748e+000
    endloop
  endfacet
  facet normal  1.000000e+000  0.000000e+000  0.000000e+000
    outer loop
      vertex -1.000000e+000  2.443201e+000  2.360748e+000
      vertex -1.000000e+000 -2.560500e+000  2.798515e+000
      vertex -1.000000e+000 -2.443201e+000  2.360748e+000
    endloop
  endfacet
  facet normal  1.000000e+000  -0.000000e+000  0.000000e+000
    outer loop
      vertex -1.000000e+000  2.443201e+000  2.360748e+000
      vertex -1.000000e+000 -2.443201e+000  2.360748e+000
      vertex -1.000000e+000  2.251666e+000  1.950000e+000
    endloop
  endfacet
  facet normal  1.000000e+000  0.000000e+000  0.000000e+000
    outer loop
      vertex -1.000000e+000  2.251666e+000  1.950000e+000
      vertex -1.000000e+000 -2.443201e+000  2.360748e+000
      vertex -1.000000e+000 -2.251666e+000  1.950000e+000
    endloop
  endfacet
  facet normal  1.000000e+000  -0.000000e+000  0.000000e+000
    outer loop
      vertex -1.000000e+000  2.251666e+000  1.950000e+000
      vertex -1.000000e+000 -2.251666e+000  1.950000e+000
      vertex -1.000000e+000  1.991716e+000  1.578752e+000
    endloop
  endfacet
  facet normal  1.000000e+000  0.000000e+000  0.000000e+000
    outer loop
      vertex -1.000000e+000  1.991716e+000  1.578752e+000
      vertex -1.000000e+000 -2.251666e+000  1.950000e+000
      vertex -1.000000e+000 -1.991716e+000  1.578752e+000
    endloop
  endfacet
  facet normal  1.000000e+000  -0.000000e+000  0.000000e+000
    outer loop
      vertex -1.000000e+000  1.991716e+000  1.578752e+000
      vertex -1.000000e+000 -1.991716e+000  1.578752e+000
      vertex -1.000000e+000  1.671248e+000  1.258284e+000
    endloop
  endfacet
  facet normal  1.000000e+000  0.000000e+000  0.000000e+000
    outer loop
      vertex -1.000000e+000  1.671248e+000  1.258284e+000
      vertex -1.000000e+000 -1.991716e+000  1.578752e+000
      vertex -1.000000e+000 -1.671248e+000  1.258284e+000
    endloop
  endfacet
  facet normal  1.000000e+000  -0.000000e+000  0.000000e+000
    outer loop
      vertex -1.000000e+000  1.671248e+000  1.258284e+000
      vertex -1.000000e+000 -1.671248e+000  1.258284e+000
      vertex -1.000000e+000  1.300000e+000  9.983339e-001
    endloop
  endfacet
  facet normal  1.000000e+000  0.000000e+000  0.000000e+000
    outer loop
      vertex -1.000000e+000  1.300000e+000  9.983339e-001
      vertex -1.000000e+000 -1.671248e+000  1.258284e+000
      vertex -1.000000e+000 -1.300000e+000  9.983339e-001
    endloop
  endfacet
  facet normal  1.000000e+000  -0.000000e+000  0.000000e+000
    outer loop
      vertex -1.000000e+000  1.300000e+000  9.983339e-001
      vertex -1.000000e+000 -1.300000e+000  9.983339e-001
      vertex -1.000000e+000  8.892524e-001  8.067992e-001
    endloop
  endfacet
  facet normal  1.000000e+000  0.000000e+000  0.000000e+000
    outer loop
      vertex -1.000000e+000  8.892524e-001  8.067992e-001
      vertex -1.000000e+000 -1.300000e+000  9.983339e-001
      vertex -1.000000e+000 -8.892524e-001  8.067992e-001
    endloop
  endfacet
  facet normal  1.000000e+000  -0.000000e+000  0.000000e+000
    outer loop
      vertex -1.000000e+000  8.892524e-001  8.067992e-001
      vertex -1.000000e+000 -8.892524e-001  8.067992e-001
      vertex -1.000000e+000  4.514853e-001  6.894999e-001
    endloop
  endfacet
  facet normal  9.999999e-001  0.000000e+000  0.000000e+000
    outer loop
      vertex -1.000000e+000  4.514853e-001  6.894999e-001
      vertex -1.000000e+000 -8.892524e-001  8.067992e-001
      vertex -1.000000e+000 -4.514853e-001  6.894999e-001
    endloop
  endfacet
  facet normal  1.000000e+000  -0.000000e+000  0.000000e+000
    outer loop
      vertex -1.000000e+000  4.514853e-001  6.894999e-001
      vertex -1.000000e+000 -4.514853e-001  6.894999e-001
      vertex -1.000000e+000  2.186939e-015  6.500000e-001
    endloop
  endfacet
  facet normal  0.000000e+000  0.000000e+000  1.000000e+000
    outer loop
      vertex  2.000000e+000 -4.500000e+000  6.500000e+000
      vertex  2.000000e+000  4.500000e+000  6.500000e+000
      vertex  0.000000e+000  4.500000e+000  6.500000e+000
    endloop
  endfacet
  facet normal  0.000000e+000  0.000000e+000  9.999999e-001
    outer loop
      vertex  2.000000e+000 -4.500000e+000  6.500000e+000
      vertex  0.000000e+000  4.500000e+000  6.500000e+000
      vertex -5.873679e-001  4.461502e+000  6.500000e+000
    endloop
  endfacet
  facet normal  0.000000e+000  0.000000e+000  1.000000e+000
    outer loop
      vertex  2.000000e+000 -4.500000e+000  6.500000e+000
      vertex -5.873679e-001  4.461502e+000  6.500000e+000
      vertex -1.164686e+000  4.346666e+000  6.500000e+000
    endloop
  endfacet
  facet normal  0.000000e+000  0.000000e+000  1.000000e+000
    outer loop
      vertex  2.000000e+000 -4.500000e+000  6.500000e+000
      vertex -1.164686e+000  4.346666e+000  6.500000e+000
      vertex -1.722075e+000  4.157458e+000  6.500000e+000
    endloop
  endfacet
  facet normal  0.000000e+000  0.000000e+000  1.000000e+000
    outer loop
      vertex  2.000000e+000 -4.500000e+000  6.500000e+000
      vertex -1.722075e+000  4.157458e+000  6.500000e+000
      vertex -2.250000e+000  3.897114e+000  6.500000e+000
    endloop
  endfacet
  facet normal  0.000000e+000  0.000000e+000  1.000000e+000
    outer loop
      vertex  2.000000e+000 -4.500000e+000  6.500000e+000
      vertex -2.250000e+000  3.897114e+000  6.500000e+000
      vertex -2.739426e+000  3.570090e+000  6.500000e+000
    endloop
  endfacet
  facet normal  0.000000e+000  0.000000e+000  1.000000e+000
    outer loop
      vertex  2.000000e+000 -4.500000e+000  6.500000e+000
      vertex -2.739426e+000  3.570090e+000  6.500000e+000
      vertex -3.181981e+000  3.181981e+000  6.500000e+000
    endloop
  endfacet
  facet normal  0.000000e+000  0.000000e+000  1.000000e+000
    outer loop
      vertex  2.000000e+000 -4.500000e+000  6.500000e+000
      vertex -3.181981e+000  3.181981e+000  6.500000e+000
      vertex -3.570090e+000  2.739426e+000  6.500000e+000
    endloop
  endfacet
  facet normal  0.000000e+000  0.000000e+000  9.999999e-001
    outer loop
      vertex  2.000000e+000 -4.500000e+000  6.500000e+000
      vertex -3.570090e+000  2.739426e+000  6.500000e+000
      vertex -3.897114e+000  2.250000e+000  6.500000e+000
    endloop
  endfacet
  facet normal  0.000000e+000  0.000000e+000  1.000000e+000
    outer loop
      vertex  2.000000e+000 -4.500000e+000  6.500000e+000
      vertex -3.897114e+000  2.250000e+000  6.500000e+000
      vertex -4.157458e+000  1.722075e+000  6.500000e+000
    endloop
  endfacet
  facet normal  0.000000e+000  0.000000e+000  1.000000e+000
    outer loop
      vertex  2.000000e+000 -4.500000e+000  6.500000e+000
      vertex -4.157458e+000  1.722075e+000  6.500000e+000
      vertex -4.346666e+000  1.164686e+000  6.500000e+000
    endloop
  endfacet
  facet normal  0.000000e+000  0.000000e+000  1.000000e+000
    outer loop
      vertex  2.000000e+000 -4.500000e+000  6.500000e+000
      vertex -4.346666e+000  1.164686e+000  6.500000e+000
      vertex -4.461502e+000  5.873679e-001  6.500000e+000
    endloop
  endfacet
  facet normal  0.000000e+000  0.000000e+000  1.000000e+000
    outer loop
      vertex  2.000000e+000 -4.500000e+000  6.500000e+000
      vertex -4.461502e+000  5.873679e-001  6.500000e+000
      vertex -4.500000e+000  5.510729e-016  6.500000e+000
    endloop
  endfacet
  facet normal  0.000000e+000  0.000000e+000  1.000000e+000
    outer loop
      vertex  2.000000e+000 -4.500000e+000  6.500000e+000
      vertex -4.500000e+000  5.510729e-016  6.500000e+000
      vertex -4.461502e+000 -5.873679e-001  6.500000e+000
    endloop
  endfacet
  facet normal  0.000000e+000  0.000000e+000  1.000000e+000
    outer loop
      vertex  2.000000e+000 -4.500000e+000  6.500000e+000
      vertex -4.461502e+000 -5.873679e-001  6.500000e+000
      vertex -4.346666e+000 -1.164686e+000  6.500000e+000
    endloop
  endfacet
  facet normal  0.000000e+000  0.000000e+000  1.000000e+000
    outer loop
      vertex  2.000000e+000 -4.500000e+000  6.500000e+000
      vertex -4.346666e+000 -1.164686e+000  6.500000e+000
      vertex -4.157458e+000 -1.722075e+000  6.500000e+000
    endloop
  endfacet
  facet normal  0.000000e+000  0.000000e+000  1.000000e+000
    outer loop
      vertex  2.000000e+000 -4.500000e+000  6.500000e+000
      vertex -4.157458e+000 -1.722075e+000  6.500000e+000
      vertex -3.897114e+000 -2.250000e+000  6.500000e+000
    endloop
  endfacet
  facet normal  0.000000e+000  0.000000e+000  1.000000e+000
    outer loop
      vertex  2.000000e+000 -4.500000e+000  6.500000e+000
      vertex -3.897114e+000 -2.250000e+000  6.500000e+000
      vertex -3.570090e+000 -2.739426e+000  6.500000e+000
    endloop
  endfacet
  facet normal  0.000000e+000  0.000000e+000  1.000000e+000
    outer loop
      vertex  2.000000e+000 -4.500000e+000  6.500000e+000
      vertex -3.570090e+000 -2.739426e+000  6.500000e+000
      vertex -3.181981e+000 -3.181981e+000  6.500000e+000
    endloop
  endfacet
  facet normal  0.000000e+000  0.000000e+000  1.000000e+000
    outer loop
      vertex  2.000000e+000 -4.500000e+000  6.500000e+000
      vertex -3.181981e+000 -3.181981e+000  6.500000e+000
      vertex -2.739426e+000 -3.570090e+000  6.500000e+000
    endloop
  endfacet
  facet normal  0.000000e+000  0.000000e+000  1.000000e+000
    outer loop
      vertex  2.000000e+000 -4.500000e+000  6.500000e+000
      vertex -2.739426e+000 -3.570090e+000  6.500000e+000
      vertex -2.250000e+000 -3.897114e+000  6.500000e+000
    endloop
  endfacet
  facet normal  0.000000e+000  0.000000e+000  1.000000e+000
    outer loop
      vertex  2.000000e+000 -4.500000e+000  6.500000e+000
      vertex -2.250000e+000 -3.897114e+000  6.500000e+000
      vertex -1.722075e+000 -4.157458e+000  6.500000e+000
    endloop
  endfacet
  facet normal  0.000000e+000  0.000000e+000  1.000000e+000
    outer loop
      vertex  2.000000e+000 -4.500000e+000  6.500000e+000
      vertex -1.722075e+000 -4.157458e+000  6.500000e+000
      vertex -1.164686e+000 -4.346666e+000  6.500000e+000
    endloop
  endfacet
  facet normal  0.000000e+000  0.000000e+000  1.000000e+000
    outer loop
      vertex  2.000000e+000 -4.500000e+000  6.500000e+000
      vertex -1.164686e+000 -4.346666e+000  6.500000e+000
      vertex -5.873679e-001 -4.461502e+000  6.500000e+000
    endloop
  endfacet
  facet normal  0.000000e+000  0.000000e+000  1.000000e+000
    outer loop
      vertex  2.000000e+000 -4.500000e+000  6.500000e+000
      vertex -5.873679e-001 -4.461502e+000  6.500000e+000
      vertex  0.000000e+000 -4.500000e+000  6.500000e+000
    endloop
  endfacet
  facet normal  0.000000e+000  0.000000e+000 -1.000000e+000
    outer loop
      vertex  2.000000e+000 -4.500000e+000  0.000000e+000
      vertex  0.000000e+000 -4.500000e+000  0.000000e+000
      vertex -5.873679e-001 -4.461502e+000  0.000000e+000
    endloop
  endfacet
  facet normal  0.000000e+000  0.000000e+000 -1.000000e+000
    outer loop
      vertex  2.000000e+000 -4.500000e+000  0.000000e+000
      vertex -5.873679e-001 -4.461502e+000  0.000000e+000
      vertex -1.164686e+000 -4.346666e+000  0.000000e+000
    endloop
  endfacet
  facet normal  0.000000e+000  0.000000e+000 -1.000000e+000
    outer loop
      vertex  2.000000e+000 -4.500000e+000  0.000000e+000
      vertex -1.164686e+000 -4.346666e+000  0.000000e+000
      vertex -1.722075e+000 -4.157458e+000  0.000000e+000
    endloop
  endfacet
  facet normal  0.000000e+000  0.000000e+000 -1.000000e+000
    outer loop
      vertex  2.000000e+000 -4.500000e+000  0.000000e+000
      vertex -1.722075e+000 -4.157458e+000  0.000000e+000
      vertex -2.250000e+000 -3.897114e+000  0.000000e+000
    endloop
  endfacet
  facet normal  0.000000e+000  0.000000e+000 -1.000000e+000
    outer loop
      vertex  2.000000e+000 -4.500000e+000  0.000000e+000
      vertex -2.250000e+000 -3.897114e+000  0.000000e+000
      vertex -2.739426e+000 -3.570090e+000  0.000000e+000
    endloop
  endfacet
  facet normal  0.000000e+000  0.000000e+000 -1.000000e+000
    outer loop
      vertex  2.000000e+000 -4.500000e+000  0.000000e+000
      vertex -2.739426e+000 -3.570090e+000  0.000000e+000
      vertex -3.181981e+000 -3.181981e+000  0.000000e+000
    endloop
  endfacet
  facet normal  0.000000e+000  0.000000e+000 -9.999999e-001
    outer loop
      vertex  2.000000e+000 -4.500000e+000  0.000000e+000
      vertex -3.181981e+000 -3.181981e+000  0.000000e+000
      vertex -3.570090e+000 -2.739426e+000  0.000000e+000
    endloop
  endfacet
  facet normal  0.000000e+000  0.000000e+000 -1.000000e+000
    outer loop
      vertex  2.000000e+000 -4.500000e+000  0.000000e+000
      vertex -3.570090e+000 -2.739426e+000  0.000000e+000
      vertex -3.897114e+000 -2.250000e+000  0.000000e+000
    endloop
  endfacet
  facet normal  0.000000e+000  0.000000e+000 -1.000000e+000
    outer loop
      vertex  2.000000e+000 -4.500000e+000  0.000000e+000
      vertex -3.897114e+000 -2.250000e+000  0.000000e+000
      vertex -4.157458e+000 -1.722075e+000  0.000000e+000
    endloop
  endfacet
  facet normal  0.000000e+000  0.000000e+000 -1.000000e+000
    outer loop
      vertex  2.000000e+000 -4.500000e+000  0.000000e+000
      vertex -4.157458e+000 -1.722075e+000  0.000000e+000
      vertex -4.346666e+000 -1.164686e+000  0.000000e+000
    endloop
  endfacet
  facet normal  0.000000e+000  0.000000e+000 -1.000000e+000
    outer loop
      vertex  2.000000e+000 -4.500000e+000  0.000000e+000
      vertex -4.346666e+000 -1.164686e+000  0.000000e+000
      vertex -4.461502e+000 -5.873679e-001  0.000000e+000
    endloop
  endfacet
  facet normal  0.000000e+000  0.000000e+000 -1.000000e+000
    outer loop
      vertex  2.000000e+000 -4.500000e+000  0.000000e+000
      vertex -4.461502e+000 -5.873679e-001  0.000000e+000
      vertex -4.500000e+000  5.510729e-016  0.000000e+000
    endloop
  endfacet
  facet normal  0.000000e+000  0.000000e+000 -1.000000e+000
    outer loop
      vertex  2.000000e+000 -4.500000e+000  0.000000e+000
      vertex -4.500000e+000  5.510729e-016  0.000000e+000
      vertex -4.461502e+000  5.873679e-001  0.000000e+000
    endloop
  endfacet
  facet normal  0.000000e+000  0.000000e+000 -1.000000e+000
    outer loop
      vertex  2.000000e+000 -4.500000e+000  0.000000e+000
      vertex -4.461502e+000  5.873679e-001  0.000000e+000
      vertex -4.346666e+000  1.164686e+000  0.000000e+000
    endloop
  endfacet
  facet normal  0.000000e+000  0.000000e+000 -1.000000e+000
    outer loop
      vertex  2.000000e+000 -4.500000e+000  0.000000e+000
      vertex -4.346666e+000  1.164686e+000  0.000000e+000
      vertex -4.157458e+000  1.722075e+000  0.000000e+000
    endloop
  endfacet
  facet normal  0.000000e+000  0.000000e+000 -1.000000e+000
    outer loop
      vertex  2.000000e+000 -4.500000e+000  0.000000e+000
      vertex -4.157458e+000  1.722075e+000  0.000000e+000
      vertex -3.897114e+000  2.250000e+000  0.000000e+000
    endloop
  endfacet
  facet normal  0.000000e+000  0.000000e+000 -9.999999e-001
    outer loop
      vertex  2.000000e+000 -4.500000e+000  0.000000e+000
      vertex -3.897114e+000  2.250000e+000  0.000000e+000
      vertex -3.570090e+000  2.739426e+000  0.000000e+000
    endloop
  endfacet
  facet normal  0.000000e+000  0.000000e+000 -1.000000e+000
    outer loop
      vertex  2.000000e+000 -4.500000e+000  0.000000e+000
      vertex -3.570090e+000  2.739426e+000  0.000000e+000
      vertex -3.181981e+000  3.181981e+000  0.000000e+000
    endloop
  endfacet
  facet normal  0.000000e+000  0.000000e+000 -1.000000e+000
    outer loop
      vertex  2.000000e+000 -4.500000e+000  0.000000e+000
      vertex -3.181981e+000  3.181981e+000  0.000000e+000
      vertex -2.739426e+000  3.570090e+000  0.000000e+000
    endloop
  endfacet
  facet normal  0.000000e+000  0.000000e+000 -1.000000e+000
    outer loop
      vertex  2.000000e+000 -4.500000e+000  0.000000e+000
      vertex -2.739426e+000  3.570090e+000  0.000000e+000
      vertex -2.250000e+000  3.897114e+000  0.000000e+000
    endloop
  endfacet
  facet normal  0.000000e+000  0.000000e+000 -1.000000e+000
    outer loop
      vertex  2.000000e+000 -4.500000e+000  0.000000e+000
      vertex -2.250000e+000  3.897114e+000  0.000000e+000
      vertex -1.722075e+000  4.157458e+000  0.000000e+000
    endloop
  endfacet
  facet normal  0.000000e+000  0.000000e+000 -1.000000e+000
    outer loop
      vertex  2.000000e+000 -4.500000e+000  0.000000e+000
      vertex -1.722075e+000  4.157458e+000  0.000000e+000
      vertex -1.164686e+000  4.346666e+000  0.000000e+000
    endloop
  endfacet
  facet normal  0.000000e+000  0.000000e+000 -1.000000e+000
    outer loop
      vertex  2.000000e+000 -4.500000e+000  0.000000e+000
      vertex -1.164686e+000  4.346666e+000  0.000000e+000
      vertex -5.873679e-001  4.461502e+000  0.000000e+000
    endloop
  endfacet
  facet normal  0.000000e+000  0.000000e+000 -9.999999e-001
    outer loop
      vertex  2.000000e+000 -4.500000e+000  0.000000e+000
      vertex -5.873679e-001  4.461502e+000  0.000000e+000
      vertex  0.000000e+000  4.500000e+000  0.000000e+000
    endloop
  endfacet
  facet normal  0.000000e+000  0.000000e+000 -1.000000e+000
    outer loop
      vertex  2.000000e+000 -4.500000e+000  0.000000e+000
      vertex  0.000000e+000  4.500000e+000  0.000000e+000
      vertex  2.000000e+000  4.500000e+000  0.000000e+000
    endloop
  endfacet
  facet normal -6.540279e-002 -9.978589e-001  -0.000000e+000
    outer loop
      vertex  0.000000e+000 -4.500000e+000  0.000000e+000
      vertex  0.000000e+000 -4.500000e+000  6.500000e+000
      vertex -5.873679e-001 -4.461502e+000  0.000000e+000
    endloop
  endfacet
  facet normal -6.540279e-002 -9.978589e-001  0.000000e+000
    outer loop
      vertex -5.873679e-001 -4.461502e+000  0.000000e+000
      vertex  0.000000e+000 -4.500000e+000  6.500000e+000
      vertex -5.873679e-001 -4.461502e+000  6.500000e+000
    endloop
  endfacet
  facet normal -1.950905e-001 -9.807853e-001  -0.000000e+000
    outer loop
      vertex -5.873679e-001 -4.461502e+000  0.000000e+000
      vertex -5.873679e-001 -4.461502e+000  6.500000e+000
      vertex -1.164686e+000 -4.346666e+000  0.000000e+000
    endloop
  endfacet
  facet normal -1.950905e-001 -9.807853e-001  0.000000e+000
    outer loop
      vertex -1.164686e+000 -4.346666e+000  0.000000e+000
      vertex -5.873679e-001 -4.461502e+000  6.500000e+000
      vertex -1.164686e+000 -4.346666e+000  6.500000e+000
    endloop
  endfacet
  facet normal -3.214397e-001 -9.469300e-001  -0.000000e+000
    outer loop
      vertex -1.164686e+000 -4.346666e+000  0.000000e+000
      vertex -1.164686e+000 -4.346666e+000  6.500000e+000
      vertex -1.722075e+000 -4.157458e+000  0.000000e+000
    endloop
  endfacet
  facet normal -3.214397e-001 -9.469300e-001  0.000000e+000
    outer loop
      vertex -1.722075e+000 -4.157458e+000  0.000000e+000
      vertex -1.164686e+000 -4.346666e+000  6.500000e+000
      vertex -1.722075e+000 -4.157458e+000  6.500000e+000
    endloop
  endfacet
  facet normal -4.422887e-001 -8.968728e-001  -0.000000e+000
    outer loop
      vertex -1.722075e+000 -4.157458e+000  0.000000e+000
      vertex -1.722075e+000 -4.157458e+000  6.500000e+000
      vertex -2.250000e+000 -3.897114e+000  0.000000e+000
    endloop
  endfacet
  facet normal -4.422887e-001 -8.968728e-001  0.000000e+000
    outer loop
      vertex -2.250000e+000 -3.897114e+000  0.000000e+000
      vertex -1.722075e+000 -4.157458e+000  6.500000e+000
      vertex -2.250000e+000 -3.897114e+000  6.500000e+000
    endloop
  endfacet
  facet normal -5.555702e-001 -8.314696e-001  -0.000000e+000
    outer loop
      vertex -2.250000e+000 -3.897114e+000  0.000000e+000
      vertex -2.250000e+000 -3.897114e+000  6.500000e+000
      vertex -2.739426e+000 -3.570090e+000  0.000000e+000
    endloop
  endfacet
  facet normal -5.555702e-001 -8.314696e-001  0.000000e+000
    outer loop
      vertex -2.739426e+000 -3.570090e+000  0.000000e+000
      vertex -2.250000e+000 -3.897114e+000  6.500000e+000
      vertex -2.739426e+000 -3.570090e+000  6.500000e+000
    endloop
  endfacet
  facet normal -6.593456e-001 -7.518400e-001  -0.000000e+000
    outer loop
      vertex -2.739426e+000 -3.570090e+000  0.000000e+000
      vertex -2.739426e+000 -3.570090e+000  6.500000e+000
      vertex -3.181981e+000 -3.181981e+000  0.000000e+000
    endloop
  endfacet
  facet normal -6.593456e-001 -7.518400e-001  0.000000e+000
    outer loop
      vertex -3.181981e+000 -3.181981e+000  0.000000e+000
      vertex -2.739426e+000 -3.570090e+000  6.500000e+000
      vertex -3.181981e+000 -3.181981e+000  6.500000e+000
    endloop
  endfacet
  facet normal -7.518400e-001 -6.593456e-001  -0.000000e+000
    outer loop
      vertex -3.181981e+000 -3.181981e+000  0.000000e+000
      vertex -3.181981e+000 -3.181981e+000  6.500000e+000
      vertex -3.570090e+000 -2.739426e+000  0.000000e+000
    endloop
  endfacet
  facet normal -7.518400e-001 -6.593456e-001  0.000000e+000
    outer loop
      vertex -3.570090e+000 -2.739426e+000  0.000000e+000
      vertex -3.181981e+000 -3.181981e+000  6.500000e+000
      vertex -3.570090e+000 -2.739426e+000  6.500000e+000
    endloop
  endfacet
  facet normal -8.314696e-001 -5.555702e-001  -0.000000e+000
    outer loop
      vertex -3.570090e+000 -2.739426e+000  0.000000e+000
      vertex -3.570090e+000 -2.739426e+000  6.500000e+000
      vertex -3.897114e+000 -2.250000e+000  0.000000e+000
    endloop
  endfacet
  facet normal -8.314696e-001 -5.555702e-001  0.000000e+000
    outer loop
      vertex -3.897114e+000 -2.250000e+000  0.000000e+000
      vertex -3.570090e+000 -2.739426e+000  6.500000e+000
      vertex -3.897114e+000 -2.250000e+000  6.500000e+000
    endloop
  endfacet
  facet normal -8.968728e-001 -4.422887e-001  -0.000000e+000
    outer loop
      vertex -3.897114e+000 -2.250000e+000  0.000000e+000
      vertex -3.897114e+000 -2.250000e+000  6.500000e+000
      vertex -4.157458e+000 -1.722075e+000  0.000000e+000
    endloop
  endfacet
  facet normal -8.968728e-001 -4.422887e-001  0.000000e+000
    outer loop
      vertex -4.157458e+000 -1.722075e+000  0.000000e+000
      vertex -3.897114e+000 -2.250000e+000  6.500000e+000
      vertex -4.157458e+000 -1.722075e+000  6.500000e+000
    endloop
  endfacet
  facet normal -9.469300e-001 -3.214397e-001  -0.000000e+000
    outer loop
      vertex -4.157458e+000 -1.722075e+000  0.000000e+000
      vertex -4.157458e+000 -1.722075e+000  6.500000e+000
      vertex -4.346666e+000 -1.164686e+000  0.000000e+000
    endloop
  endfacet
  facet normal -9.469300e-001 -3.214397e-001  0.000000e+000
    outer loop
      vertex -4.346666e+000 -1.164686e+000  0.000000e+000
      vertex -4.157458e+000 -1.722075e+000  6.500000e+000
      vertex -4.346666e+000 -1.164686e+000  6.500000e+000
    endloop
  endfacet
  facet normal -9.807853e-001 -1.950905e-001  -0.000000e+000
    outer loop
      vertex -4.346666e+000 -1.164686e+000  0.000000e+000
      vertex -4.346666e+000 -1.164686e+000  6.500000e+000
      vertex -4.461502e+000 -5.873679e-001  0.000000e+000
    endloop
  endfacet
  facet normal -9.807853e-001 -1.950905e-001  0.000000e+000
    outer loop
      vertex -4.461502e+000 -5.873679e-001  0.000000e+000
      vertex -4.346666e+000 -1.164686e+000  6.500000e+000
      vertex -4.461502e+000 -5.873679e-001  6.500000e+000
    endloop
  endfacet
  facet normal -9.978589e-001 -6.540279e-002  -0.000000e+000
    outer loop
      vertex -4.461502e+000 -5.873679e-001  0.000000e+000
      vertex -4.461502e+000 -5.873679e-001  6.500000e+000
      vertex -4.500000e+000  5.510729e-016  0.000000e+000
    endloop
  endfacet
  facet normal -9.978589e-001 -6.540279e-002  0.000000e+000
    outer loop
      vertex -4.500000e+000  5.510729e-016  0.000000e+000
      vertex -4.461502e+000 -5.873679e-001  6.500000e+000
      vertex -4.500000e+000  5.510729e-016  6.500000e+000
    endloop
  endfacet
  facet normal -9.978589e-001  6.540279e-002  0.000000e+000
    outer loop
      vertex -4.500000e+000  5.510729e-016  0.000000e+000
      vertex -4.500000e+000  5.510729e-016  6.500000e+000
      vertex -4.461502e+000  5.873679e-001  0.000000e+000
    endloop
  endfacet
  facet normal -9.978589e-001  6.540279e-002  0.000000e+000
    outer loop
      vertex -4.461502e+000  5.873679e-001  0.000000e+000
      vertex -4.500000e+000  5.510729e-016  6.500000e+000
      vertex -4.461502e+000  5.873679e-001  6.500000e+000
    endloop
  endfacet
  facet normal -9.807853e-001  1.950905e-001  0.000000e+000
    outer loop
      vertex -4.461502e+000  5.873679e-001  0.000000e+000
      vertex -4.461502e+000  5.873679e-001  6.500000e+000
      vertex -4.346666e+000  1.164686e+000  0.000000e+000
    endloop
  endfacet
  facet normal -9.807853e-001  1.950905e-001  0.000000e+000
    outer loop
      vertex -4.346666e+000  1.164686e+000  0.000000e+000
      vertex -4.461502e+000  5.873679e-001  6.500000e+000
      vertex -4.346666e+000  1.164686e+000  6.500000e+000
    endloop
  endfacet
  facet normal -9.469300e-001  3.214397e-001  0.000000e+000
    outer loop
      vertex -4.346666e+000  1.164686e+000  0.000000e+000
      vertex -4.346666e+000  1.164686e+000  6.500000e+000
      vertex -4.157458e+000  1.722075e+000  0.000000e+000
    endloop
  endfacet
  facet normal -9.469300e-001  3.214397e-001  0.000000e+000
    outer loop
      vertex -4.157458e+000  1.722075e+000  0.000000e+000
      vertex -4.346666e+000  1.164686e+000  6.500000e+000
      vertex -4.157458e+000  1.722075e+000  6.500000e+000
    endloop
  endfacet
  facet normal -8.968728e-001  4.422887e-001  0.000000e+000
    outer loop
      vertex -4.157458e+000  1.722075e+000  0.000000e+000
      vertex -4.157458e+000  1.722075e+000  6.500000e+000
      vertex -3.897114e+000  2.250000e+000  0.000000e+000
    endloop
  endfacet
  facet normal -8.968728e-001  4.422887e-001  0.000000e+000
    outer loop
      vertex -3.897114e+000  2.250000e+000  0.000000e+000
      vertex -4.157458e+000  1.722075e+000  6.500000e+000
      vertex -3.897114e+000  2.250000e+000  6.500000e+000
    endloop
  endfacet
  facet normal -8.314696e-001  5.555702e-001  0.000000e+000
    outer loop
      vertex -3.897114e+000  2.250000e+000  0.000000e+000
      vertex -3.897114e+000  2.250000e+000  6.500000e+000
      vertex -3.570090e+000  2.739426e+000  0.000000e+000
    endloop
  endfacet
  facet normal -8.314696e-001  5.555702e-001  0.000000e+000
    outer loop
      vertex -3.570090e+000  2.739426e+000  0.000000e+000
      vertex -3.897114e+000  2.250000e+000  6.500000e+000
      vertex -3.570090e+000  2.739426e+000  6.500000e+000
    endloop
  endfacet
  facet normal -7.518400e-001  6.593456e-001  0.000000e+000
    outer loop
      vertex -3.570090e+000  2.739426e+000  0.000000e+000
      vertex -3.570090e+000  2.739426e+000  6.500000e+000
      vertex -3.181981e+000  3.181981e+000  0.000000e+000
    endloop
  endfacet
  facet normal -7.518400e-001  6.593456e-001  0.000000e+000
    outer loop
      vertex -3.181981e+000  3.181981e+000  0.000000e+000
      vertex -3.570090e+000  2.739426e+000  6.500000e+000
      vertex -3.181981e+000  3.181981e+000  6.500000e+000
    endloop
  endfacet
  facet normal -6.593456e-001  7.518400e-001  0.000000e+000
    outer loop
      vertex -3.181981e+000  3.181981e+000  0.000000e+000
      vertex -3.181981e+000  3.181981e+000  6.500000e+000
      vertex -2.739426e+000  3.570090e+000  0.000000e+000
    endloop
  endfacet
  facet normal -6.593456e-001  7.518400e-001  0.000000e+000
    outer loop
      vertex -2.739426e+000  3.570090e+000  0.000000e+000
      vertex -3.181981e+000  3.181981e+000  6.500000e+000
      vertex -2.739426e+000  3.570090e+000  6.500000e+000
    endloop
  endfacet
  facet normal -5.555702e-001  8.314696e-001  0.000000e+000
    outer loop
      vertex -2.739426e+000  3.570090e+000  0.000000e+000
      vertex -2.739426e+000  3.570090e+000  6.500000e+000
      vertex -2.250000e+000  3.897114e+000  0.000000e+000
    endloop
  endfacet
  facet normal -5.555702e-001  8.314696e-001  0.000000e+000
    outer loop
      vertex -2.250000e+000  3.897114e+000  0.000000e+000
      vertex -2.739426e+000  3.570090e+000  6.500000e+000
      vertex -2.250000e+000  3.897114e+000  6.500000e+000
    endloop
  endfacet
  facet normal -4.422887e-001  8.968728e-001  0.000000e+000
    outer loop
      vertex -2.250000e+000  3.897114e+000  0.000000e+000
      vertex -2.250000e+000  3.897114e+000  6.500000e+000
      vertex -1.722075e+000  4.157458e+000  0.000000e+000
    endloop
  endfacet
  facet normal -4.422887e-001  8.968728e-001  0.000000e+000
    outer loop
      vertex -1.722075e+000  4.157458e+000  0.000000e+000
      vertex -2.250000e+000  3.897114e+000  6.500000e+000
      vertex -1.722075e+000  4.157458e+000  6.500000e+000
    endloop
  endfacet
  facet normal -3.214397e-001  9.469300e-001  0.000000e+000
    outer loop
      vertex -1.722075e+000  4.157458e+000  0.000000e+000
      vertex -1.722075e+000  4.157458e+000  6.500000e+000
      vertex -1.164686e+000  4.346666e+000  0.000000e+000
    endloop
  endfacet
  facet normal -3.214397e-001  9.469300e-001  0.000000e+000
    outer loop
      vertex -1.164686e+000  4.346666e+000  0.000000e+000
      vertex -1.722075e+000  4.157458e+000  6.500000e+000
      vertex -1.164686e+000  4.346666e+000  6.500000e+000
    endloop
  endfacet
  facet normal -1.950905e-001  9.807853e-001  0.000000e+000
    outer loop
      vertex -1.164686e+000  4.346666e+000  0.000000e+000
      vertex -1.164686e+000  4.346666e+000  6.500000e+000
      vertex -5.873679e-001  4.461502e+000  0.000000e+000
    endloop
  endfacet
  facet normal -1.950905e-001  9.807853e-001  0.000000e+000
    outer loop
      vertex -5.873679e-001  4.461502e+000  0.000000e+000
      vertex -1.164686e+000  4.346666e+000  6.500000e+000
      vertex -5.873679e-001  4.461502e+000  6.500000e+000
    endloop
  endfacet
  facet normal -6.540279e-002  9.978589e-001  0.000000e+000
    outer loop
      vertex -5.873679e-001  4.461502e+000  0.000000e+000
      vertex -5.873679e-001  4.461502e+000  6.500000e+000
      vertex  0.000000e+000  4.500000e+000  0.000000e+000
    endloop
  endfacet
  facet normal -6.540279e-002  9.978589e-001  0.000000e+000
    outer loop
      vertex  0.000000e+000  4.500000e+000  0.000000e+000
      vertex -5.873679e-001  4.461502e+000  6.500000e+000
      vertex  0.000000e+000  4.500000e+000  6.500000e+000
    endloop
  endfacet
  facet normal  0.000000e+000  1.000000e+000  0.000000e+000
    outer loop
      vertex  2.000000e+000  4.500000e+000  0.000000e+000
      vertex  0.000000e+000  4.500000e+000  0.000000e+000
      vertex  2.000000e+000  4.500000e+000  6.500000e+000
    endloop
  endfacet
  facet normal  0.000000e+000  1.000000e+000  0.000000e+000
    outer loop
      vertex  2.000000e+000  4.500000e+000  6.500000e+000
      vertex  0.000000e+000  4.500000e+000  0.000000e+000
      vertex  0.000000e+000  4.500000e+000  6.500000e+000
    endloop
  endfacet
  facet normal  0.000000e+000 -1.000000e+000  0.000000e+000
    outer loop
      vertex  0.000000e+000 -4.500000e+000  0.000000e+000
      vertex  2.000000e+000 -4.500000e+000  0.000000e+000
      vertex  0.000000e+000 -4.500000e+000  6.500000e+000
    endloop
  endfacet
  facet normal  0.000000e+000 -1.000000e+000  0.000000e+000
    outer loop
      vertex  0.000000e+000 -4.500000e+000  6.500000e+000
      vertex  2.000000e+000 -4.500000e+000  0.000000e+000
      vertex  2.000000e+000 -4.500000e+000  6.500000e+000
    endloop
  endfacet
endsolid CATIA STL
