; NON-PLATED HOLES START AT T1
; THROUGH (PLATED) HOLES START AT T100
M48
INCH
T1C0.125984
T100C0.040000
T101C0.023622
T102C0.015748
%
T1
X071852Y007702
X105317Y040773
X047049Y015970
X047049Y032505
X096655Y040773
X096655Y049040
X071852Y040773
X039175Y015970
X055316Y015970
X047049Y049040
X071852Y015970
X039175Y007702
X055316Y064788
X071852Y064788
X039175Y032505
X022245Y015970
X055316Y049040
X055316Y007702
X030513Y049040
X022245Y040773
X055316Y032505
X088387Y007702
X080119Y057308
X030513Y024237
X080119Y007702
X030513Y007702
X014371Y024237
X088387Y024237
X096655Y007702
X014371Y064788
X039175Y040773
X030513Y015970
X039175Y049040
X014371Y032505
X088387Y064789
X047049Y064788
X014371Y007702
X047049Y024237
X105317Y064788
X080119Y015970
X071852Y057308
X047049Y007702
X096655Y024237
X039175Y064788
X096655Y057308
X030513Y040773
X014371Y049040
X022245Y007702
X047049Y040773
X014371Y015970
X071852Y032505
X071852Y049040
X005710Y064789
X005710Y015970
X022245Y064788
X055316Y024237
X030513Y032505
X005710Y024237
X005710Y007702
X096655Y064788
X105317Y007702
X055316Y040773
X096655Y015970
X039175Y024237
X022245Y049040
X080119Y040773
X071852Y024237
X014371Y040773
X080119Y064789
X088387Y015970
X080119Y024237
X022245Y024237
X096655Y032505
X105317Y049040
X080119Y032505
X080119Y049040
X030513Y064788
X105317Y057308
X022245Y032505
T100
X113585Y018332
X113485Y013332
X113585Y016332
X113485Y015332
X113485Y017332
X113585Y014332
T101
X063584Y064426
X004920Y031509
X064765Y064426
X063584Y062426
X062903Y007400
X006101Y031509
X065265Y007400
X087206Y028143
X064084Y007400
X062403Y064426
X089568Y028143
X087206Y030143
X064765Y062426
X062403Y062426
X088387Y029143
X062403Y063426
X087206Y029143
X007283Y032509
X065265Y005400
X062903Y006400
X088387Y030143
X064084Y006400
X063584Y063426
X004920Y030509
X006101Y030509
X006101Y032509
X064765Y063426
X089568Y029143
X007283Y030509
X007283Y031509
X088387Y028143
X062903Y005400
X089568Y030143
X064084Y005400
X004920Y032509
X065265Y006400
T102
X092324Y035655
X018702Y019119
X003348Y028962
X043899Y045103
X027364Y019513
X042718Y021481
X034844Y002584
X010434Y037623
X100592Y053765
X067521Y010851
X093899Y003371
X043112Y003765
X034844Y010851
X003348Y044710
X084057Y044710
X089568Y035261
X075789Y045497
X043899Y020300
X064765Y058883
X101380Y035655
X100199Y012820
X110434Y012426
X001379Y053371
X011222Y054159
X087994Y035261
X093899Y037229
X010434Y053371
X077364Y011639
X093112Y003371
X084844Y038017
X093899Y044710
X060828Y019907
X101773Y060851
X085238Y061639
X101380Y027387
X068308Y010851
X043112Y036836
X084057Y046284
X026970Y027387
X026576Y003765
X017521Y054159
X026183Y053765
X043505Y052190
X084057Y003371
X019096Y011245
X018309Y012033
X036419Y045497
X058860Y021088
X026183Y010851
X075789Y036442
X075789Y043922
X034450Y044316
X059253Y004158
X059647Y060851
X027364Y029355
X068702Y062426
X092718Y004552
X068308Y053765
X017915Y035655
X036025Y027780
X084057Y028174
X018309Y004552
X051773Y060458
X060041Y028174
X001773Y019907
X067915Y028568
X109647Y062033
X025395Y020694
X083663Y012820
X018702Y002584
X043505Y035655
X002954Y012820
X108860Y054552
X093505Y045103
X002560Y061245
X108072Y052977
X001773Y043922
X044293Y036442
X026183Y045497
X026183Y062820
X019096Y037623
X036025Y045891
X000986Y020694
X069096Y028962
X075395Y011245
X084844Y019119
X017127Y004159
X041931Y044710
X027757Y003371
X083663Y002977
X051379Y060851
X067915Y027780
X017521Y060852
X110434Y053765
X092324Y011639
X092324Y062820
X002167Y061639
X059253Y062033
X067915Y012032
X067521Y043922
X100199Y012033
X026576Y044316
X067127Y062426
X069096Y062032
X063982Y055723
X009253Y061245
X091930Y045891
X017521Y044316
X109253Y036048
X066734Y053765
X036025Y004552
X076970Y053371
X067521Y062820
X064315Y045815
X075789Y027387
X026576Y060851
X009647Y021088
X092718Y012820
X034057Y019907
X101773Y012033
X001379Y003765
X017127Y003371
X034057Y003371
X025395Y028962
X075395Y045891
X018309Y045891
X050986Y037229
X076576Y052977
X109647Y029749
X059253Y027387
X009647Y053371
X100986Y002977
X003348Y003371
X035238Y020300
X076183Y054159
X084844Y028962
X060434Y045891
X009647Y002977
X065265Y012518
X066734Y020694
X002167Y062426
X100986Y036836
X058860Y012032
X010434Y019513
X011616Y012426
X069096Y037229
X042718Y035655
X043112Y052584
X002954Y054159
X083269Y012426
X050198Y044710
X036025Y011245
X043505Y010851
X009253Y011639
X010041Y043922
X093505Y036048
X076970Y019513
X036419Y028174
X050592Y012032
X075395Y037623
X034844Y062820
X035631Y052190
X091537Y062032
X041931Y062033
X076576Y036442
X076576Y004946
X025789Y053371
X108466Y011245
X019490Y003371
X018309Y003765
X060041Y013214
X002954Y045891
X075395Y019513
X019096Y044316
X100592Y060458
X083269Y053765
X026183Y011639
X050198Y003371
X102167Y028962
X064765Y030930
X058860Y045891
X034844Y029749
X100592Y029749
X067521Y060458
X009647Y036048
X076970Y036048
X092324Y019907
X091930Y060851
X042718Y062820
X026183Y019119
X100199Y062426
X051773Y004946
X002167Y011245
X051773Y013214
X066734Y028962
X059253Y052190
X027364Y037623
X067521Y002584
X042718Y044710
X052167Y036048
X050198Y061245
X035631Y013214
X025789Y036048
X010828Y043922
X060434Y012820
X019490Y012426
X101773Y029355
X051379Y053371
X059647Y012820
X084057Y036442
X060434Y021088
X010828Y004158
X110041Y011245
X068702Y021088
X092324Y029749
X043899Y012820
X050986Y061245
X085238Y028568
X051379Y029355
X101380Y062033
X043505Y037229
X043112Y060851
X034450Y020300
X001379Y029355
X102167Y020694
X067127Y020300
X002167Y037623
X068702Y036836
X042718Y003371
X036419Y053765
X067521Y038017
X084844Y062820
X051773Y029749
X010041Y062032
X026183Y028174
X019096Y060852
X035631Y046284
X108466Y054159
X075789Y044710
X110041Y012820
X076183Y002977
X050592Y053371
X001773Y037229
X034450Y054159
X091537Y053765
X035631Y061245
X067521Y011639
X017521Y062426
X060041Y045497
X108860Y062820
X026970Y020694
X093505Y053371
X092324Y054552
X018702Y003371
X027364Y045891
X091537Y037229
X051773Y004158
X000986Y012426
X093112Y036442
X017521Y012820
X068308Y019907
X035631Y036442
X035238Y002977
X059253Y054552
X052167Y053371
X067915Y036836
X041931Y052977
X011222Y053371
X043899Y027780
X050986Y054552
X084844Y029749
X059253Y061245
X061305Y038792
X102167Y052978
X058466Y053765
X026183Y054552
X084450Y004552
X110434Y011639
X077364Y012426
X018702Y060458
X060828Y011639
X108860Y061245
X025789Y037623
X060041Y012426
X010041Y036442
X093112Y027387
X108072Y020694
X011222Y062426
X067915Y019513
X101773Y045891
X002167Y002977
X017521Y045103
X009647Y028568
X001379Y028568
X010041Y038017
X108466Y044316
X026183Y060458
X075395Y062426
X100199Y054159
X010828Y027387
X026576Y021088
X091930Y012032
X108466Y002977
X017521Y028568
X050592Y036048
X001379Y045103
X109253Y012032
X109253Y011245
X085238Y021088
X091537Y028962
X087206Y035261
X018702Y045497
X051379Y003765
X034450Y011245
X109647Y038017
X026576Y036836
X093112Y038017
X100592Y061245
X091930Y004552
X025395Y053765
X044293Y012426
X026183Y021481
X068308Y052190
X058466Y044710
X000986Y011639
X058860Y036836
X025789Y020300
X058466Y037229
X084844Y036442
X084057Y054552
X011616Y028962
X019096Y045103
X043899Y045891
X092324Y012426
X036025Y028568
X067915Y060851
X092718Y052584
X035631Y004158
X043899Y002977
X083269Y019907
X114372Y022662
X060434Y011245
X109647Y054552
X109253Y053371
X059647Y036048
X002560Y029749
X010041Y037229
X100199Y028568
X042324Y020300
X036025Y061639
X077364Y003371
X025789Y029355
X059253Y052977
X026970Y004158
X034450Y004552
X084844Y044710
X108466Y029355
X092324Y002584
X076576Y004158
X052167Y045891
X018309Y029355
X043112Y062426
X035631Y021481
X010434Y021088
X068702Y060851
X058860Y060851
X060041Y019907
X059253Y011639
X066734Y061245
X110041Y002977
X042718Y060458
X011222Y036048
X017127Y061245
X043505Y004158
X060041Y003371
X108072Y044710
X084057Y012426
X101380Y012426
X068308Y045497
X108860Y052977
X042718Y054552
X092718Y020300
X052560Y044710
X100986Y004552
X002560Y062820
X060434Y037623
X011616Y044710
X007283Y037627
X059647Y053371
X085238Y037623
X084450Y028568
X010434Y036836
X100199Y045891
X059253Y046284
X084844Y004946
X026970Y004946
X091537Y044710
X034844Y004946
X060041Y019119
X050986Y029749
X102167Y012426
X101380Y037229
X108466Y019513
X108860Y020694
X017127Y052978
X018702Y046285
X092324Y004946
X026576Y053371
X052167Y002977
X075789Y028962
X101380Y002584
X076183Y003765
X087994Y055733
X017915Y028962
X042718Y012426
X026970Y062033
X043112Y012820
X041931Y003371
X091930Y036836
X102167Y062033
X010434Y003765
X043505Y019119
X068702Y061639
X059647Y045103
X085631Y004158
X018702Y012426
X043899Y060851
X043899Y036836
X002954Y003765
X009253Y052977
X093505Y062426
X083269Y028962
X063690Y012518
X002167Y020300
X091930Y061639
X060041Y052190
X108466Y052584
X084450Y036836
X018309Y028568
X108860Y046284
X042718Y052190
X075395Y012820
X076183Y044316
X077364Y028962
X019490Y019907
X017127Y028962
X060434Y044316
X059253Y013214
X091930Y054159
X084057Y002584
X108860Y029749
X067521Y052977
X088105Y044961
X018702Y052190
X100986Y019513
X043505Y038017
X002560Y046284
X110041Y020300
X108072Y028962
X076183Y060851
X058466Y020694
X060828Y052977
X036025Y029355
X076576Y027387
X026970Y037229
X076970Y052584
X011222Y019513
X067521Y028174
X100592Y038017
X101380Y010851
X085631Y053765
X075789Y035655
X002954Y052584
X051379Y004552
X003348Y061245
X050986Y028962
X060828Y044710
X067127Y054159
X060041Y043922
X100592Y028962
X093505Y052584
X010041Y010851
X034844Y028174
X068308Y013214
X093112Y004158
X108072Y053765
X108860Y011639
X004920Y037627
X042324Y012032
X109647Y035655
X043112Y019513
X109647Y052190
X084450Y019513
X019096Y021088
X100986Y029355
X067521Y013214
X026970Y038017
X034844Y019119
X076970Y062426
X051773Y052190
X067521Y035655
X018309Y045103
X101773Y036048
X060434Y061639
X076970Y044316
X002954Y044316
X083663Y012032
X052167Y045103
X001773Y028962
X084450Y027780
X034450Y061639
X042718Y013214
X041931Y011639
X019490Y045497
X099805Y003371
X068702Y027780
X108860Y060458
X034844Y019907
X076183Y053371
X109253Y004552
X050592Y004552
X025395Y003371
X084057Y028962
X026970Y028174
X051773Y036442
X076576Y013214
X100592Y011639
X100592Y004946
X110041Y062426
X068702Y003765
X100592Y046285
X101380Y052978
X066734Y019907
X050986Y021481
X109647Y002584
X010828Y011639
X084057Y061245
X026970Y011639
X010828Y029749
X051773Y062820
X068702Y020300
X085631Y012426
X018702Y062033
X100199Y037623
X051773Y028962
X050592Y019513
X035238Y011245
X026576Y028568
X027364Y004552
X019096Y012033
X050198Y028174
X041931Y028962
X027364Y012032
X058466Y061245
X026183Y044710
X042324Y028568
X093505Y019513
X017915Y019119
X009647Y037623
X076970Y003765
X003348Y045497
X059253Y043922
X085238Y045103
X036419Y012426
X001379Y019513
X062012Y058076
X051773Y054552
X010041Y019907
X066734Y044710
X009647Y062426
X068308Y027387
X027757Y020694
X075001Y044710
X060828Y037229
X018702Y061245
X002560Y028174
X091930Y003765
X017521Y053371
X018702Y054552
X100592Y062820
X076576Y010851
X067521Y012426
X034844Y020694
X110041Y036048
X050592Y052584
X050198Y019907
X089962Y030930
X042718Y028962
X001379Y012032
X091930Y029355
X010434Y020300
X101380Y044710
X017915Y044710
X093899Y052977
X093505Y021088
X002560Y019119
X076970Y011245
X060434Y003765
X011222Y029355
X036025Y012032
X010828Y038017
X083663Y003765
X068702Y045891
X109647Y012426
X060041Y002584
X075789Y021481
X067521Y044710
X051773Y012426
X002560Y013214
X067521Y020694
X076970Y020300
X059253Y053765
X109647Y062820
X034057Y012426
X002560Y002584
X035631Y003371
X108860Y012426
X084844Y021481
X001773Y029749
X100986Y020300
X101380Y053765
X068308Y011639
X085631Y036442
X085631Y062033
X084450Y012820
X035631Y060458
X003348Y020694
X091537Y012426
X043505Y036442
X068308Y044710
X011616Y045497
X034450Y045891
X066734Y003371
X093112Y043922
X050986Y019119
X052167Y012032
X110041Y054159
X075001Y011639
X002954Y012032
X019490Y053765
X036419Y061245
X101773Y061639
X058466Y028174
X075395Y044316
X034057Y037229
X059647Y019513
X060828Y003371
X034057Y020694
X017915Y046285
X109647Y045497
X051773Y062033
X058860Y052584
X052560Y012426
X050986Y046284
X084844Y003371
X069096Y044710
X093112Y019907
X068702Y037623
X026576Y036048
X026970Y010851
X017127Y011639
X051773Y038017
X110041Y053371
X025395Y012426
X108466Y036048
X026183Y004946
X068308Y035655
X002560Y021481
X042324Y011245
X019096Y054159
X086419Y047859
X088781Y035261
X027757Y036442
X036419Y019907
X026576Y019513
X025789Y062426
X001379Y037623
X051773Y002584
X035238Y053371
X051773Y053765
X018702Y004159
X050592Y020300
X100592Y027387
X084844Y037229
X002560Y012426
X108860Y062033
X083269Y011639
X051379Y027780
X058466Y004158
X034450Y027780
X042718Y002584
X043505Y044710
X009647Y054159
X001773Y061245
X062787Y047855
X051773Y045497
X058466Y011639
X108860Y028174
X035238Y036836
X076970Y029355
X002954Y027780
X011222Y011245
X010828Y045497
X108072Y003371
X051379Y019513
X059253Y035655
X084844Y046284
X060434Y053371
X108466Y053371
X051773Y035655
X084057Y060458
X051379Y012820
X101380Y019907
X025789Y012820
X093899Y045497
X002167Y028568
X003348Y036442
X002560Y054552
X001379Y036836
X027757Y012426
X083663Y061639
X042718Y053765
X051379Y044316
X010434Y002977
X041931Y012426
X042718Y061245
X085238Y036836
X109647Y053765
X075789Y052977
X076576Y043922
X066734Y012426
X093505Y003765
X084450Y011245
X075395Y036048
X060041Y021481
X099805Y045497
X085631Y020694
X059647Y021088
X042718Y036442
X101380Y003371
X001773Y036442
X068702Y028568
X108466Y004552
X110434Y036442
X001379Y002977
X060041Y029749
X060041Y020694
X035238Y003765
X067127Y021088
X067915Y029355
X034844Y052190
X060041Y060458
X068308Y028962
X076183Y029355
X060434Y036048
X084057Y013214
X060041Y053765
X101773Y028568
X093899Y011639
X043899Y061639
X100986Y054159
X101773Y011245
X075789Y019907
X076183Y012032
X069096Y028174
X050986Y060458
X001773Y062033
X027364Y060851
X011222Y045103
X017521Y045891
X100199Y036836
X067915Y062426
X001773Y052977
X002560Y020694
X109253Y019513
X092718Y053371
X064478Y012518
X009253Y036442
X075395Y053371
X075001Y052977
X034057Y044710
X043112Y029355
X085631Y028962
X099805Y004159
X083269Y037229
X002560Y060458
X110041Y052584
X043899Y053371
X042324Y019513
X011616Y053765
X075001Y061245
X017127Y019907
X093112Y020694
X108072Y012426
X034844Y003371
X100986Y060851
X018309Y021088
X083663Y060851
X051773Y028174
X026576Y037623
X067521Y019907
X110041Y004552
X009253Y037229
X100199Y027781
X009253Y028962
X075789Y011639
X068702Y044316
X084057Y052190
X051773Y061245
X093899Y004158
X092718Y012032
X077364Y036442
X075395Y029355
X092718Y029355
X067127Y052584
X083663Y054159
X087995Y038809
X034057Y011639
X010828Y020694
X102167Y011639
X059647Y020300
X017915Y027387
X076576Y038017
X076183Y061639
X059647Y002977
X027757Y037229
X108860Y013214
X035631Y020694
X067915Y052584
X110434Y019907
X034450Y003765
X035238Y044316
X109647Y060458
X075789Y019119
X017521Y036048
X036419Y011639
X051379Y062426
X101380Y028174
X043505Y028962
X110041Y044316
X035238Y052584
X084844Y035655
X075395Y021088
X017915Y019907
X060434Y028568
X027364Y061639
X085856Y055828
X100986Y012033
X110434Y003371
X109253Y045891
X043899Y021088
X050198Y036442
X010828Y010851
X010041Y019119
X017915Y061245
X011222Y028568
X050986Y010851
X009253Y012426
X009647Y044316
X066734Y028174
X101773Y053371
X085631Y061245
X093112Y035655
X027364Y045103
X018702Y036442
X042718Y019119
X099805Y028174
X075789Y013214
X043505Y053765
X001379Y004552
X050592Y036836
X076183Y036048
X075789Y002584
X042324Y045103
X084450Y061639
X076183Y028568
X018702Y028962
X018702Y029749
X059647Y003765
X076576Y020694
X109253Y060851
X085631Y028174
X010041Y052190
X019490Y004159
X011222Y021088
X035238Y036048
X075395Y004552
X009647Y060851
X100199Y061639
X043899Y036048
X011616Y004158
X034844Y053765
X067521Y052190
X017915Y011639
X002167Y003765
X002167Y019513
X091930Y053371
X011616Y036442
X002167Y044316
X067521Y045497
X002954Y019513
X076183Y045103
X069096Y020694
X002167Y029355
X027364Y021088
X035631Y028174
X009253Y004158
X060041Y046284
X018309Y036048
X010828Y028174
X066734Y037229
X001379Y012820
X060434Y056521
X001773Y052190
X069096Y004158
X011616Y020694
X010434Y044316
X001773Y020694
X035631Y019119
X084844Y004158
X076576Y046284
X019096Y020300
X101773Y027781
X067127Y045891
X075395Y054159
X017521Y004552
X025395Y011639
X044293Y037229
X043112Y021088
X050592Y011245
X019490Y020694
X035238Y027780
X026576Y020300
X093112Y013214
X108072Y011639
X101380Y036442
X083269Y004158
X026576Y027780
X101380Y061245
X043112Y027780
X060041Y054552
X002167Y012032
X036419Y003371
X108860Y002584
X009647Y027780
X042718Y043922
X050198Y062033
X069096Y045497
X018702Y004946
X017915Y002584
X068702Y045103
X010828Y044710
X085631Y037229
X076576Y019907
X075789Y061245
X003348Y012426
X025395Y044710
X017915Y012426
X109647Y061245
X050592Y037623
X010434Y052584
X034844Y045497
X034844Y044710
X051379Y011245
X000986Y028962
X050198Y053765
X060434Y027780
X051773Y037229
X035631Y037229
X059253Y045497
X084450Y053371
X063595Y047085
X052560Y004158
X093505Y060851
X044293Y011639
X018702Y038017
X002954Y029355
X025789Y028568
X050986Y028174
X051379Y052584
X060041Y036442
X093899Y036442
X001773Y035655
X060041Y035655
X002167Y021088
X041931Y037229
X002560Y011639
X093505Y027780
X058860Y037623
X108860Y021481
X075001Y020694
X067127Y045103
X027757Y062033
X052167Y060851
X018702Y043922
X050592Y045891
X027757Y028962
X083663Y021088
X018309Y053371
X084450Y054159
X091930Y036048
X092324Y004158
X050986Y013214
X042718Y037229
X009647Y045103
X077364Y004158
X091537Y019907
X042324Y054159
X100199Y011245
X069096Y019907
X059253Y019907
X084057Y019119
X000986Y037229
X101773Y004552
X051379Y036836
X059647Y054159
X010434Y054159
X009647Y012820
X001773Y012426
X069096Y011639
X110041Y003765
X076183Y021088
X092718Y036048
X067127Y019513
X027364Y053371
X052560Y061245
X100986Y044316
X001773Y002584
X018309Y002977
X043505Y003371
X100592Y012426
X076576Y052190
X017915Y028174
X034450Y060851
X052167Y021088
X018702Y013214
X109253Y037623
X026183Y037229
X026183Y027387
X011222Y027780
X017127Y020694
X075789Y062820
X050592Y029355
X052167Y052584
X058466Y019907
X100592Y019119
X075001Y019907
X002954Y002977
X019096Y045891
X017521Y002977
X025789Y036836
X059253Y019119
X059253Y028962
X100592Y002584
X110041Y019513
X085631Y052977
X035631Y053765
X001773Y044710
X091537Y061245
X010041Y061245
X035238Y054159
X084450Y062426
X002560Y045497
X068308Y019119
X093899Y053765
X085238Y045891
X005708Y037627
X092718Y002977
X076576Y035655
X010828Y002584
X051773Y020694
X068308Y062032
X002560Y062033
X108860Y052190
X034844Y013214
X018702Y044710
X051379Y054159
X108466Y062426
X018309Y020300
X110041Y027780
X051773Y019907
X060041Y037229
X084450Y002977
X001379Y020300
X085631Y045497
X085238Y011245
X059253Y010851
X099805Y020694
X067127Y011245
X027364Y002977
X017915Y003371
X009647Y052584
X067915Y021088
X058860Y054159
X001773Y021481
X050986Y043922
X108466Y012820
X059647Y045891
X068702Y036048
X101380Y004946
X092324Y053765
X009647Y036836
X067915Y012820
X017521Y036836
X076970Y054159
X075789Y004946
X101773Y019513
X017915Y052978
X114372Y021875
X085238Y054159
X067127Y012032
X093112Y062032
X092718Y061639
X003348Y037229
X027757Y004158
X011222Y036836
X026970Y019907
X101380Y020694
X109647Y037229
X084844Y045497
X084844Y043922
X067127Y003765
X026183Y003371
X083663Y044316
X051773Y052977
X007676Y033296
X102167Y004159
X035238Y060851
X058466Y028962
X018702Y028174
X058860Y011245
X091930Y044316
X027364Y028568
X025789Y054159
X093505Y045891
X075789Y038017
X010828Y004946
X109253Y012820
X100986Y028568
X108466Y060851
X010434Y012032
X084057Y053765
X109647Y004158
X100986Y021088
X099805Y036442
X002954Y060851
X069096Y061245
X100592Y052978
X091537Y011639
X010041Y011639
X092324Y061245
X050592Y045103
X010041Y045497
X101773Y020300
X101380Y046285
X110041Y036836
X099805Y044710
X043505Y011639
X108072Y037229
X036419Y044710
X091930Y020300
X108466Y027780
X092718Y045103
X050986Y027387
X092324Y019119
X036025Y037623
X017915Y013214
X092324Y003371
X034844Y061245
X099805Y028962
X101380Y054552
X058466Y052977
X067915Y004552
X035238Y019513
X011616Y003371
X044293Y003371
X010828Y052977
X092718Y060851
X043505Y054552
X034450Y012032
X019490Y044710
X017915Y062820
X113978Y021088
X026576Y012032
X050592Y027780
X010828Y003371
X084057Y043922
X050198Y045497
X027757Y011639
X058860Y020300
X109647Y004946
X035238Y045891
X101773Y037623
X067127Y044316
X025789Y044316
X100199Y036048
X108860Y038017
X109647Y019119
X083269Y003371
X109253Y002977
X052560Y019907
X083269Y028174
X034450Y052584
X058860Y003765
X002167Y054159
X101773Y054159
X035238Y037623
X010041Y004946
X058860Y044316
X099805Y062033
X084844Y062033
X059253Y002584
X010434Y045103
X060434Y029355
X060041Y062033
X060434Y036836
X001773Y060458
X009647Y012032
X100592Y044710
X052560Y036442
X051773Y021481
X110041Y061639
X093112Y052190
X050592Y028568
X034450Y045103
X001379Y011245
X067521Y036442
X050592Y003765
X043899Y003765
X093899Y019907
X085238Y044316
X075789Y012426
X025789Y011245
X085238Y003765
X018309Y060852
X100199Y020300
X102167Y003371
X035238Y029355
X084450Y036048
X042718Y020694
X027757Y061245
X027364Y036048
X108466Y061639
X035238Y004552
X043899Y019513
X075395Y061639
X009647Y003765
X026970Y044710
X044293Y045497
X075395Y027780
X083269Y045497
X017521Y019513
X085631Y019907
X086419Y047072
X050986Y011639
X092324Y037229
X018309Y061639
X001773Y013214
X044293Y062033
X084450Y029355
X034450Y036836
X026183Y004158
X019096Y028568
X001773Y053765
X084844Y020694
X076970Y021088
X084057Y038017
X067521Y053765
X068702Y054159
X067127Y061639
X092324Y028174
X060041Y010851
X100199Y029355
X084450Y044316
X076576Y029749
X042718Y029749
X059253Y029749
X002167Y027780
X110041Y060851
X010828Y046284
X042718Y038017
X059253Y036442
X092324Y020694
X060041Y028962
X002167Y060851
X059647Y052584
X035631Y004946
X043899Y052584
X026576Y052584
X067521Y061245
X084057Y027387
X011616Y037229
X026970Y021481
X042324Y045891
X101773Y062426
X075001Y036442
X011222Y004552
X068308Y029749
X051379Y037623
X084844Y060458
X075395Y060851
X052560Y020694
X034450Y012820
X043505Y060458
X108860Y036442
X091930Y021088
X002560Y037229
X100592Y045497
X068308Y020694
X026576Y011245
X076576Y044710
X109253Y036836
X052167Y019513
X067915Y003765
X091537Y052977
X100592Y003371
X017915Y004946
X019490Y036442
X083663Y036048
X000986Y028174
X034844Y062032
X027364Y012820
X058860Y029355
X010828Y036442
X068308Y046284
X034844Y035655
X093112Y029749
X076183Y062426
X025395Y037229
X109253Y052584
X017521Y052584
X068702Y029355
X084450Y052584
X066734Y011639
X019490Y061245
X017915Y038017
X035631Y027387
X051379Y045891
X100592Y019907
X044293Y052977
X084450Y045103
X002954Y021088
X010828Y012426
X068702Y012032
X019096Y012820
X010041Y029749
X050986Y044710
X075395Y020300
X067521Y046284
X010041Y028174
X093505Y028568
X011222Y060851
X108860Y043922
X017521Y012033
X034450Y037623
X035631Y054552
X084844Y010851
X109253Y062426
X067127Y002977
X075001Y003371
X043112Y028568
X084057Y004158
X001773Y038017
X084057Y045497
X042324Y036836
X043899Y012032
X018702Y052978
X084057Y019907
X018702Y053765
X077364Y062033
X093505Y029355
X034844Y011639
X042324Y044316
X077364Y061245
X084450Y037623
X050986Y062033
X083663Y053371
X092324Y036442
X042718Y045497
X109647Y028174
X018702Y021481
X000986Y004158
X043505Y061245
X092718Y054159
X092718Y021088
X076970Y045891
X050986Y004946
X002560Y027387
X026970Y046284
X101773Y012820
X026183Y062033
X002167Y052584
X002954Y028568
X050986Y002584
X052167Y003765
X050986Y004158
X059647Y044316
X059647Y012032
X026183Y043922
X075789Y062033
X068308Y036442
X025789Y061639
X042324Y037623
X052167Y004552
X051773Y044710
X093505Y020300
X026183Y046284
X044293Y028174
X108860Y028962
X052167Y027780
X035631Y011639
X025789Y027780
X093112Y011639
X051773Y003371
X108466Y020300
X100199Y053371
X083663Y045891
X100592Y028174
X109253Y061639
X050198Y012426
X067127Y027780
X010434Y061639
X010041Y062820
X060041Y004158
X092718Y045891
X077364Y053765
X027757Y052977
X001379Y027780
X100986Y053371
X001773Y062820
X026970Y052977
X093112Y046284
X010434Y045891
X075789Y028174
X034057Y045497
X035631Y062820
X091930Y062426
X091930Y052584
X067521Y028962
X050198Y052977
X050986Y012426
X026970Y054552
X058860Y028568
X042324Y036048
X101773Y044316
X100592Y052190
X075001Y004158
X110434Y061245
X075395Y028568
X017521Y061639
X026576Y061639
X060434Y002977
X067915Y045103
X067915Y045891
X108466Y045103
X002560Y038017
X025789Y003765
X010828Y035655
X068308Y004946
X067521Y029749
X043505Y052977
X003348Y011639
X075789Y054552
X109253Y020300
X109647Y003371
X011222Y012032
X108466Y028568
X100986Y027781
X085238Y012032
X010828Y061245
X025395Y062033
X067521Y021481
X076970Y012032
X084057Y037229
X050986Y062820
X101380Y021481
X099805Y037229
X108860Y004158
X009253Y028174
X001773Y045497
X043112Y054159
X003348Y004158
X019096Y019513
X093505Y012032
X075395Y045103
X068308Y004158
X092324Y021481
X060434Y020300
X109647Y052977
X017127Y028174
X050198Y020694
X100986Y045891
X110041Y021088
X093112Y061245
X011222Y002977
X036419Y052977
X050592Y002977
X060828Y036442
X084844Y052190
X062403Y057308
X026576Y045103
X077364Y020694
X069096Y052977
X010828Y054552
X052560Y028174
X110434Y020694
X050592Y062426
X010828Y019119
X026183Y061245
X068308Y052977
X085631Y003371
X068702Y053371
X042718Y019907
X091930Y027780
X100986Y036048
X010434Y011245
X041931Y028174
X026970Y062820
X091537Y028174
X042718Y004158
X017127Y037229
X093899Y028174
X009647Y045891
X027364Y027780
X011222Y044316
X060828Y004158
X059253Y004946
X027364Y020300
X108466Y021088
X076183Y052584
X019490Y062033
X002167Y053371
X083663Y052584
X075001Y053765
X025395Y028174
X010828Y013214
X036025Y012820
X099805Y053765
X035631Y002584
X001379Y062426
X034450Y036048
X085238Y029355
X093899Y062032
X093112Y044710
X093112Y019119
X003348Y052977
X068702Y004552
X100592Y013214
X110041Y029355
X060434Y060851
X092718Y027780
X017915Y053765
X009647Y004552
X003348Y019907
X092324Y052977
X084450Y060851
X076576Y019119
X010828Y021481
X035631Y019907
X102167Y045497
X044293Y053765
X002560Y010851
X100592Y036442
X019096Y036048
X019490Y028962
X044293Y019907
X060434Y012032
X009647Y061639
X059253Y044710
X034057Y028174
X084844Y028174
X108072Y028174
X018702Y011639
X026970Y036442
X084844Y019907
X059253Y012426
X051379Y020300
X036025Y053371
X011616Y028174
X077364Y019907
X083269Y062033
X042324Y002977
X109647Y036442
X058860Y045103
X091537Y020694
X010828Y062820
X017127Y036442
X086625Y026014
X062903Y012518
X034450Y053371
X083269Y061245
X042324Y052584
X075789Y060458
X001773Y010851
X110041Y012032
X075789Y046284
X017127Y012426
X011222Y003765
X050592Y044316
X050592Y012820
X035238Y045103
X052560Y037229
X043112Y045891
X076970Y037623
X077364Y037229
X100986Y003765
X041931Y036442
X009253Y020694
X002560Y004946
X018702Y037229
X066734Y045497
X041931Y020694
X011616Y062032
X085238Y019513
X010041Y002584
X036025Y036048
X019490Y028174
X026183Y019907
X059253Y021481
X002560Y053765
X018309Y036836
X026970Y003371
X050198Y011639
X110041Y045891
X084057Y020694
X068308Y061245
X000986Y003371
X059647Y061639
X025395Y036442
X084844Y002584
X042324Y060851
X109647Y043922
X041931Y061245
X101380Y019119
X002167Y045891
X067521Y062032
X018702Y027387
X002167Y036048
X085238Y052584
X058860Y004552
X093899Y020694
X034450Y021088
X043112Y011245
X052167Y028568
X058466Y045497
X026183Y052190
X102167Y044710
X092324Y060458
X009647Y011245
X001379Y045891
X002560Y043922
X052560Y062033
X034057Y062032
X109253Y021088
X019096Y002977
X101773Y052584
X042718Y027387
X084057Y062033
X000986Y061245
X001773Y019119
X026183Y020694
X036025Y036836
X108860Y010851
X108860Y035655
X010434Y028568
X108860Y045497
X084844Y012426
X010041Y046284
X076576Y002584
X092718Y037623
X093505Y002977
X051379Y021088
X109647Y021481
X026576Y002977
X083663Y062426
X051379Y012032
X092718Y028568
X026970Y028962
X050592Y021088
X050986Y038017
X093899Y061245
X025789Y052584
X060828Y061245
X076576Y028174
X091537Y003371
X099805Y052978
X059647Y011245
X017521Y027781
X026183Y036442
X108860Y003371
X034844Y043922
X017127Y044710
X010041Y012426
X068308Y002584
X063190Y057308
X084844Y052977
X010434Y027780
X042324Y061639
X093112Y062820
X068702Y011245
X101773Y021088
X009253Y019907
X025395Y052977
X025395Y045497
X076970Y036836
X035238Y028568
X075789Y003371
X092324Y046284
X109253Y028568
X076576Y054552
X034450Y019513
X036419Y020694
X068308Y012426
X001773Y027387
X101380Y043922
X011222Y045891
X062009Y061639
X042718Y062033
X091930Y011245
X017915Y037229
X027757Y053765
X017521Y021088
X000986Y019907
X060041Y027387
X059647Y004552
X068702Y052584
X083269Y036442
X067521Y027387
X027364Y062426
X018702Y020694
X067521Y037229
X109647Y044710
X100199Y045103
X044293Y020694
X068308Y060458
X077364Y045497
X027364Y054159
X084844Y054552
X100592Y020694
X091930Y002977
X100592Y004159
X027757Y044710
X075001Y028962
X067915Y053371
X043112Y061639
X092324Y028962
X100592Y054552
X067915Y002977
X069096Y053765
X036025Y060851
X042324Y012820
X017521Y037623
X085631Y011639
X067521Y004158
X085631Y044710
X036025Y019513
X043505Y012426
X109647Y046284
X000986Y053765
X075395Y012032
X059253Y020694
X075395Y036836
X076970Y004552
X035631Y038017
X010041Y020694
X060828Y028174
X042718Y011639
X075001Y062033
X034844Y028962
X011222Y061639
X084057Y029749
X058860Y012820
X052560Y053765
X010828Y060458
X083663Y020300
X084450Y003765
X026970Y013214
X101773Y036836
X052167Y036836
X092718Y003765
X102167Y028174
X102167Y037229
X018309Y037623
X002954Y020300
X035631Y012426
X083663Y037623
X076576Y062820
X085238Y002977
X109253Y027780
X100592Y035655
X043505Y013214
X067521Y054552
X083663Y036836
X010041Y052977
X092324Y043922
X042324Y003765
X091930Y019513
X102167Y061245
X060434Y019513
X044293Y028962
X034844Y052977
X043112Y037623
X083663Y045103
X059647Y028568
X076576Y011639
X068308Y028174
X027364Y003765
X017915Y036442
X100199Y019513
X093112Y054552
X010041Y027387
X085238Y036048
X034450Y002977
X069096Y012426
X018309Y027781
X050986Y020694
X017915Y029749
X100986Y052584
X019096Y053371
X109647Y020694
X043505Y004946
X043112Y012032
X058860Y019513
X042718Y004946
X017127Y053765
X002954Y037623
X017127Y045497
X000986Y044710
X108072Y062033
X042324Y053371
X035631Y044710
X019096Y036836
X001379Y021088
X017915Y062033
X108072Y004158
X109253Y054159
X018309Y052584
X043505Y046284
X035631Y045497
X010434Y004552
X018702Y019907
X100986Y037623
X083663Y004552
X026576Y029355
X052167Y012820
X042324Y021088
X011222Y020300
X108860Y037229
X108466Y036836
X068308Y054552
X060828Y062033
X100199Y060851
X093112Y028962
X043505Y045497
X035238Y061639
X108466Y037623
X076183Y011245
X067915Y011245
X067127Y004552
X036025Y045103
X034450Y062426
X026970Y061245
X076183Y020300
X026970Y060458
X076970Y028568
X001379Y060851
X100199Y021088
X101773Y003765
X017915Y052190
X109253Y045103
X025789Y004552
X027364Y044316
X052560Y028962
X035238Y021088
X050986Y003371
X043505Y062820
X041931Y019907
X099805Y012426
X002167Y012820
X099805Y019907
X092718Y044316
X035631Y035655
X050198Y004158
X075789Y052190
X043505Y043922
X091537Y004158
X027364Y011245
X011222Y052584
X100199Y002977
X067521Y019119
X026970Y035655
X002167Y045103
X036419Y037229
X000986Y036442
X018309Y012820
X077364Y052977
X026576Y012820
X017521Y020300
X101380Y045497
X059647Y029355
X092718Y062426
X085238Y053371
X084057Y011639
X101380Y060458
X068308Y021481
X010434Y062426
X010041Y013214
X002560Y052190
X027364Y052584
X035238Y012032
X036025Y054159
X050592Y054159
X010041Y053765
X059647Y027780
X044293Y061245
X036025Y021088
X043112Y020300
X001773Y028174
X092324Y013214
X010828Y062032
X010828Y053765
X077364Y044710
X076970Y061639
X060434Y054159
X018702Y062820
X051379Y061639
X060828Y053765
X017915Y060458
X076970Y002977
X059647Y062426
X035631Y062032
X093505Y011245
X026183Y013214
X043899Y044316
X091930Y012820
X067915Y044316
X050592Y061639
X034057Y061245
X101773Y045103
X058466Y012426
X076576Y061245
X109647Y010851
X109253Y029355
X109647Y028962
X036025Y052584
X063978Y057308
X060041Y044710
X010434Y029355
X017915Y054552
X110041Y045103
X043505Y062033
X010041Y003371
X044293Y004158
X026183Y028962
X091930Y037623
X108072Y061245
X060041Y038017
X025789Y019513
X085238Y012820
X067915Y054159
X109647Y019907
X017915Y004159
X036025Y002977
X001773Y003371
X043899Y029355
X084057Y004946
X067915Y036048
X083269Y020694
X092718Y036836
X101380Y029749
X052560Y011639
X065659Y008187
X100592Y062033
X051773Y019119
X002560Y003371
X026183Y012426
X034844Y036442
X050986Y053765
X076576Y062033
X083663Y011245
X067127Y028568
X026970Y019119
X026183Y035655
X058466Y003371
X093112Y053765
X050986Y052977
X034844Y004158
X084057Y052977
X075001Y037229
X052167Y044316
X018309Y044316
X052167Y061639
X026970Y002584
X060041Y052977
X075789Y004158
X002560Y019907
X002167Y004552
X009647Y029355
X108860Y019907
X026183Y052977
X010434Y012820
X036419Y036442
X067915Y061639
X010041Y035655
X076970Y060851
X034057Y036442
X052167Y054159
X009253Y003371
X035631Y010851
X036025Y020300
X026183Y002584
X076576Y053765
X059253Y062820
X042718Y052977
X050198Y028962
X108072Y045497
X034057Y053765
X043505Y002584
X026183Y029749
X100986Y012820
X108860Y019119
X091537Y045497
X035631Y029749
X026576Y045891
X092324Y052190
X109647Y013214
X085238Y027780
X034844Y027387
X000986Y062033
X043112Y002977
X002560Y036442
X010041Y021481
X034844Y012426
X068308Y037229
X011222Y037623
X002954Y036048
X026970Y012426
X083663Y027780
X001773Y011639
X068308Y003371
X101773Y002977
X076576Y012426
X093899Y012426
X068702Y012820
X041931Y045497
X084844Y061245
X066734Y036442
X009647Y020300
X092718Y019513
X010041Y044710
X042324Y062426
X083663Y029355
X043899Y004552
X036025Y044316
X060828Y045497
X010828Y028962
X067521Y004946
X043505Y027387
X085238Y060851
X083663Y019513
X043505Y020694
X102167Y036442
X059647Y036836
X067915Y020300
X011616Y061245
X036025Y062426
X009253Y053765
X093112Y028174
X100592Y021481
X018702Y035655
X101380Y052190
X093505Y004552
X027364Y036836
X068702Y019513
X025395Y061245
X075789Y037229
X075001Y045497
X034844Y046284
X108072Y019907
X027757Y045497
X068308Y043922
X002954Y053371
X110434Y045497
X043899Y037623
X017127Y062033
X069096Y003371
X026970Y045497
X026970Y043922
X092324Y010851
X058860Y027780
X002560Y044710
X052167Y062426
X075789Y020694
X043112Y044316
X052560Y052977
X067127Y053371
X100199Y004552
X076970Y045103
X108466Y003765
X001773Y004158
X091537Y036442
X091930Y028568
X036025Y003765
X110434Y052977
X058860Y062426
X017915Y045497
X093505Y012820
X110041Y037623
X009647Y019513
X052167Y011245
X019490Y037229
X042324Y004552
X043505Y029749
X075789Y010851
X058860Y036048
X066734Y052977
X084844Y013214
X060041Y011639
X100986Y062426
X051773Y011639
X018309Y054159
X041931Y053765
X100986Y011245
X001773Y004946
X017915Y043922
X019096Y062426
X076183Y004552
X093112Y021481
X003348Y053765
X066734Y062032
X093112Y060458
X093505Y036836
X083269Y044710
X010041Y060458
X075395Y003765
X076183Y037623
X076183Y027780
X010828Y019907
X026970Y052190
X099805Y061245
X059647Y037623
X050986Y052190
X025789Y045103
X058466Y036442
X000986Y052977
X001773Y054552
X025789Y002977
X076183Y045891
X017915Y010851
X058860Y061639
X010434Y036048
X011222Y012820
X043112Y004552
X034844Y054552
X093112Y045497
X017915Y020694
X076576Y060458
X010828Y037229
X011616Y019907
X052560Y003371
X101380Y013214
X083663Y028568
X093505Y061639
X011616Y011639
X060041Y062820
X001379Y036048
X100592Y037229
X042718Y010851
X067127Y036836
X036419Y028962
X034057Y052977
X076576Y003371
X059253Y037229
X075395Y052584
X060828Y012426
X001379Y061639
X076183Y012820
X092718Y011245
X019096Y029355
X102167Y019907
X026183Y038017
X043505Y021481
X076183Y019513
X093112Y002584
X067127Y036048
X093899Y028962
X060828Y028962
X017521Y029355
X027757Y019907
X093112Y012426
X076576Y028962
X041931Y004158
X034844Y037229
X084450Y045891
X006497Y037623
X002954Y004552
X043899Y011245
X092324Y062032
X058860Y053371
X034450Y029355
X110434Y037229
X068308Y062820
X050986Y019907
X003348Y028174
X075001Y028174
X110434Y028174
X009253Y062032
X076970Y027780
X110041Y028568
X042718Y028174
X035238Y012820
X036419Y062032
X059253Y038017
X102167Y053765
X043505Y019907
X019096Y027781
X035631Y028962
X042324Y029355
X025395Y019907
X100592Y010851
X101380Y038017
X060828Y020694
X034844Y060458
X109647Y011639
X101380Y028962
X009253Y044710
X051379Y028568
X043899Y054159
X050986Y036442
X019096Y061639
X075789Y053765
X002560Y004158
X051773Y010851
X043112Y036048
X084844Y011639
X051773Y027387
X092324Y044710
X109647Y027387
X109253Y044316
X025789Y012032
X002954Y061639
X034844Y038017
X067127Y029355
X043899Y028568
X018309Y019513
X093505Y037623
X084057Y010851
X051379Y036048
X051379Y045103
X059253Y060458
X084450Y020300
X002954Y045103
X010041Y054552
X085238Y004552
X091930Y045103
X042718Y046284
X083269Y052977
X009253Y045497
X019096Y004552
X076183Y036836
X069096Y036442
X044293Y044710
X076576Y037229
X011616Y052977
X084450Y012032
X108466Y045891
X067127Y060851
X001379Y052584
X060041Y004946
X110434Y004158
X068702Y002977
X034057Y004158
X002560Y052977
X019096Y052584
X010434Y060851
X050986Y035655
X067521Y003371
X002560Y035655
X017521Y003765
X025395Y004158
X043505Y028174
X052560Y045497
X060434Y062426
X017915Y021481
X025789Y060851
X084057Y035655
X043112Y053371
X059253Y003371
X035631Y043922
X060434Y052584
X077364Y028174
X035238Y062426
X085238Y020300
X042324Y027780
X019096Y003765
X043899Y062426
X001379Y044316
X051773Y046284
X058860Y002977
X002954Y036836
X084450Y021088
X067127Y012820
X010041Y028962
X100986Y061639
X034057Y028962
X101380Y011639
X093112Y052977
X076970Y012820
X051773Y043922
X067127Y037623
X075001Y012426
X108860Y027387
X090752Y014015
X068308Y038017
X002954Y011245
X067915Y037623
X026576Y004552
X092324Y045497
X108072Y036442
X092324Y038017
X100199Y052584
X108860Y004946
X060041Y061245
X002954Y062426
X060434Y055733
X059253Y028174
X110434Y062033
X085238Y062426
X050198Y037229
X109253Y003765
X018309Y011245
X058466Y062033
X019490Y052978
X027757Y028174
X002167Y036836
X026970Y053765
X084844Y053765
X025789Y045891
X110434Y044710
X018309Y062426
X010041Y004158
X110434Y028962
X108466Y012032
X052167Y029355
X093112Y037229
X000986Y045497
X018702Y010851
X034844Y021481
X099805Y011639
X076576Y045497
X100592Y043922
X050986Y045497
X043112Y045103
X093505Y054159
X075789Y029749
X026970Y029749
X093112Y004946
X025789Y021088
X035631Y052977
X001773Y046284
X093505Y044316
X092324Y027387
X051379Y002977
X101380Y062820
X060434Y004552
X108860Y044710
X108860Y053765
X084057Y021481
X052167Y037623
X003348Y062033
X001379Y054159
X036419Y004158
X052167Y020300
X066734Y004158
X100199Y044316
X076576Y021481
X026576Y062426
X064020Y027630
X075395Y002977
X100199Y003765
X060434Y045103
X019490Y011639
X026576Y054159
X084844Y027387
X093112Y010851
X100986Y045103
X002560Y028962
X050592Y060851
X010828Y052190
X084057Y062820
X017521Y011245
X101380Y004159
X034450Y028568
T00
M30
