G04 MADE WITH FRITZING*
G04 WWW.FRITZING.ORG*
G04 DOUBLE SIDED*
G04 HOLES PLATED*
G04 CONTOUR ON CENTER OF CONTOUR VECTOR*
%ASAXBY*%
%FSLAX23Y23*%
%MOIN*%
%OFA0B0*%
%SFA1.0B1.0*%
%ADD10C,0.039370*%
%ADD11C,0.063622*%
%ADD12C,0.074000*%
%ADD13C,0.024000*%
%LNCOPPER0*%
G90*
G70*
G54D10*
X7579Y2975D03*
X6673Y1243D03*
X5847Y2069D03*
X5925Y2817D03*
X7658Y5298D03*
X5020Y6203D03*
X6870Y455D03*
X5886Y5416D03*
X7736Y1164D03*
X6043Y1951D03*
X4311Y298D03*
X5138Y2778D03*
X5177Y495D03*
X5965Y4510D03*
X6004Y4550D03*
X4232Y6243D03*
X5020Y1164D03*
X6831Y1912D03*
X5886Y377D03*
X7697Y4589D03*
X6004Y6046D03*
X5256Y6203D03*
X5925Y5219D03*
X4193Y1243D03*
X4351Y5377D03*
X4351Y2069D03*
X7658Y5455D03*
X7618Y4432D03*
X6713Y3762D03*
X7579Y1243D03*
X6004Y258D03*
X5177Y3723D03*
X5020Y4550D03*
X6083Y6125D03*
X5138Y2109D03*
X5177Y1912D03*
X6792Y2778D03*
X5099Y1321D03*
X7500Y1164D03*
X6713Y6085D03*
X6792Y5337D03*
X7579Y3566D03*
X4351Y3644D03*
X4272Y3802D03*
X7540Y377D03*
X5847Y3644D03*
X5965Y6164D03*
X5177Y2975D03*
X6004Y1164D03*
X6792Y4510D03*
X6083Y4471D03*
X4311Y1282D03*
X4272Y6203D03*
X5886Y6085D03*
X6752Y2975D03*
X6870Y6085D03*
X4232Y4589D03*
X7579Y6282D03*
X6673Y416D03*
X7697Y2936D03*
X7540Y3762D03*
X4232Y2936D03*
X5925Y1321D03*
X4429Y416D03*
X7618Y1951D03*
X5020Y337D03*
X7736Y337D03*
X7736Y5377D03*
X5217Y2857D03*
X6752Y5219D03*
X4272Y4628D03*
X6831Y1321D03*
X5886Y1125D03*
X5886Y2030D03*
X7658Y337D03*
X5138Y2936D03*
X4193Y3723D03*
X6673Y6203D03*
X6083Y3644D03*
X4232Y5337D03*
X4272Y1243D03*
X7697Y2030D03*
X6870Y1203D03*
X6792Y2030D03*
X6083Y337D03*
X6043Y6085D03*
X6673Y2896D03*
X4351Y6046D03*
X5099Y2148D03*
X5138Y5337D03*
X4390Y3605D03*
X4232Y2109D03*
X5256Y3723D03*
X5020Y2817D03*
X6752Y258D03*
X5099Y258D03*
X6792Y2109D03*
X5138Y1203D03*
X4232Y1203D03*
X5059Y1203D03*
X7658Y2148D03*
X5925Y3566D03*
X6792Y5416D03*
X5177Y3566D03*
X5059Y6243D03*
X4390Y1282D03*
X4390Y2109D03*
X5217Y5258D03*
X5256Y1164D03*
X5965Y1203D03*
X4429Y2069D03*
X6713Y2857D03*
X5177Y4550D03*
X6752Y1243D03*
X6043Y5416D03*
X6043Y298D03*
X7618Y6243D03*
X6752Y2069D03*
X5177Y2896D03*
X5099Y6046D03*
X7736Y4550D03*
X4272Y4392D03*
X4232Y3684D03*
X5138Y5416D03*
X4351Y2739D03*
X5177Y258D03*
X7658Y5377D03*
X5925Y495D03*
X5059Y4589D03*
X5059Y3762D03*
X5177Y5377D03*
X7540Y5416D03*
X4390Y5416D03*
X7500Y4550D03*
X5020Y5377D03*
X7579Y2817D03*
X7579Y1991D03*
X5965Y1951D03*
X6831Y4392D03*
X6792Y4589D03*
X5020Y3723D03*
X5886Y3762D03*
X5217Y1951D03*
X5886Y298D03*
X5138Y2030D03*
X5020Y6125D03*
X4272Y2817D03*
X5847Y416D03*
X6792Y1125D03*
X7540Y2778D03*
X5138Y6243D03*
X7579Y258D03*
X4429Y5298D03*
X7736Y6203D03*
X7697Y298D03*
X4272Y1085D03*
X7579Y3723D03*
X6043Y2778D03*
X6831Y2975D03*
X7579Y3644D03*
X7618Y3605D03*
X6752Y4392D03*
X6004Y495D03*
X6910Y337D03*
X5847Y1243D03*
X7658Y1085D03*
X6713Y377D03*
X5965Y5337D03*
X7500Y1243D03*
X4351Y1243D03*
X6752Y1991D03*
X6043Y3605D03*
X6043Y2109D03*
X6831Y4471D03*
X6004Y3566D03*
X6752Y495D03*
X4193Y4471D03*
X6713Y2936D03*
X7500Y2069D03*
X6043Y1282D03*
X6792Y298D03*
X7697Y455D03*
X6752Y5377D03*
X6870Y6243D03*
X5138Y3684D03*
X7540Y1282D03*
X7658Y3723D03*
X4390Y2936D03*
X7540Y1125D03*
X7736Y6125D03*
X5177Y6282D03*
X5886Y455D03*
X6004Y6203D03*
X7540Y4432D03*
X7579Y5455D03*
X7579Y4392D03*
X4351Y6282D03*
X6910Y2896D03*
X5217Y4510D03*
X5177Y337D03*
X5925Y3644D03*
X5059Y1282D03*
X7697Y5337D03*
X5847Y6125D03*
X4311Y5416D03*
X4232Y377D03*
X4193Y1164D03*
X7697Y2109D03*
X6004Y6282D03*
X5217Y5337D03*
X4390Y3684D03*
X4272Y1991D03*
X4193Y416D03*
X5217Y6243D03*
X7658Y4550D03*
X5217Y3605D03*
X4429Y1164D03*
X6752Y4628D03*
X7736Y3723D03*
X6752Y1085D03*
X6004Y1321D03*
X6792Y1951D03*
X4390Y1951D03*
X7500Y4471D03*
X4390Y2030D03*
X4193Y2896D03*
X4311Y3684D03*
X6870Y3762D03*
X7540Y3605D03*
X6831Y6125D03*
X4351Y258D03*
X7540Y2030D03*
X4351Y5298D03*
X7579Y5377D03*
X5886Y3605D03*
X6713Y1125D03*
X7500Y6203D03*
X6831Y1243D03*
X6673Y5377D03*
X6870Y1951D03*
X4193Y4550D03*
X7697Y2778D03*
X7540Y2936D03*
X6870Y6164D03*
X4272Y258D03*
X6752Y1912D03*
X5965Y2778D03*
X6792Y4432D03*
X5138Y455D03*
X7579Y2069D03*
X4272Y416D03*
X5059Y5337D03*
X7540Y1951D03*
X6713Y4510D03*
X4390Y6243D03*
X7658Y2817D03*
X5059Y1125D03*
X6831Y2069D03*
X5138Y1951D03*
X5020Y4471D03*
X4429Y5377D03*
X7697Y6164D03*
X5217Y6085D03*
X6910Y5377D03*
X4351Y2148D03*
X7540Y2109D03*
X5217Y1282D03*
X4351Y5455D03*
X5217Y455D03*
X4390Y4510D03*
X6004Y416D03*
X5138Y1282D03*
X6910Y3723D03*
X5020Y3644D03*
X6870Y2109D03*
X6083Y1991D03*
X4311Y1125D03*
X6752Y3802D03*
X7618Y2778D03*
X6713Y3605D03*
X7579Y495D03*
X6713Y2778D03*
X4390Y4432D03*
X4232Y1951D03*
X7500Y1991D03*
X5965Y2109D03*
X5177Y1085D03*
X4429Y6203D03*
X7658Y2069D03*
X7618Y1203D03*
X5886Y3684D03*
X5217Y2778D03*
X4272Y3723D03*
X7697Y4432D03*
X4351Y6203D03*
X7540Y5258D03*
X7658Y1243D03*
X5099Y1243D03*
X4429Y2817D03*
X5177Y416D03*
X7540Y3684D03*
X6083Y1164D03*
X5217Y3684D03*
X7618Y4510D03*
X4351Y1321D03*
X5177Y1243D03*
X7697Y5258D03*
X6870Y4510D03*
X7579Y6125D03*
X7658Y4392D03*
X4272Y2148D03*
X6713Y298D03*
X6831Y3802D03*
X6004Y2739D03*
X6043Y4510D03*
X7579Y2148D03*
X6870Y298D03*
X6043Y3684D03*
X5138Y4510D03*
X5177Y6125D03*
X5177Y6203D03*
X5099Y2896D03*
X6870Y5337D03*
X6004Y1085D03*
X6831Y5455D03*
X4429Y1243D03*
X6910Y416D03*
X7540Y6164D03*
X7736Y416D03*
X7658Y495D03*
X4351Y2817D03*
X6752Y1321D03*
X4193Y5298D03*
X4390Y5337D03*
X7540Y1203D03*
X7697Y6085D03*
X5059Y377D03*
X7500Y2896D03*
X6910Y6125D03*
X6831Y4550D03*
X5965Y6085D03*
X4272Y3566D03*
X5217Y298D03*
X7658Y2896D03*
X7658Y258D03*
X6004Y5298D03*
X6673Y2069D03*
X5925Y1912D03*
X7500Y3644D03*
X6831Y3723D03*
X5886Y4432D03*
X5099Y4392D03*
X7540Y298D03*
X5059Y6085D03*
X4272Y2069D03*
X5886Y2778D03*
X4272Y337D03*
X7658Y3802D03*
X5177Y5219D03*
X7500Y337D03*
X4232Y4510D03*
X6673Y4550D03*
X5847Y1991D03*
X6910Y2817D03*
X6752Y337D03*
X5059Y5258D03*
X5965Y1125D03*
X5217Y4589D03*
X6792Y1203D03*
X6673Y3644D03*
X4390Y5258D03*
X5099Y5298D03*
X7658Y1912D03*
X5099Y4471D03*
X5925Y6203D03*
X6043Y5258D03*
X7736Y4471D03*
X5020Y1991D03*
X4311Y6085D03*
X6004Y6125D03*
X5177Y2739D03*
X5965Y4432D03*
X7658Y1321D03*
X4351Y416D03*
X5256Y5298D03*
X5059Y6164D03*
X6870Y4589D03*
X7540Y6085D03*
X6910Y1243D03*
X5177Y5455D03*
X6004Y4471D03*
X7579Y416D03*
X5256Y2817D03*
X5099Y2069D03*
X6713Y5258D03*
X6713Y1203D03*
X6910Y4550D03*
X7500Y3723D03*
X4351Y3723D03*
X5965Y455D03*
X7697Y6243D03*
X5925Y2975D03*
X4311Y2109D03*
X5217Y2936D03*
X7697Y4510D03*
X5138Y1125D03*
X4390Y2857D03*
X7658Y5219D03*
X5965Y298D03*
X5847Y337D03*
X4232Y6085D03*
X7658Y6282D03*
X5020Y5298D03*
X5925Y5298D03*
X5099Y3802D03*
X5099Y5219D03*
X6870Y377D03*
X5217Y4432D03*
X5099Y6203D03*
X6831Y5377D03*
X5886Y1951D03*
X5099Y2739D03*
X4272Y6282D03*
X4351Y1164D03*
X5256Y3644D03*
X7697Y1125D03*
X7658Y1164D03*
X5099Y4550D03*
X7500Y2817D03*
X5217Y6164D03*
X5965Y3684D03*
X6004Y1991D03*
X4232Y1282D03*
X5099Y4628D03*
X5059Y3605D03*
X5925Y2896D03*
X5886Y2857D03*
X6004Y337D03*
X4429Y337D03*
X6673Y6125D03*
X6870Y1282D03*
X5177Y4628D03*
X4272Y2896D03*
X6673Y3723D03*
X5256Y5377D03*
X7618Y4589D03*
X6713Y4432D03*
X4390Y4589D03*
X6673Y2817D03*
X4351Y4392D03*
X6004Y1912D03*
X6752Y2148D03*
X6831Y2739D03*
X5925Y3723D03*
X4193Y2069D03*
X7540Y4510D03*
X6043Y4589D03*
X5965Y5416D03*
X6043Y6243D03*
X5099Y2817D03*
X6043Y377D03*
X5059Y3684D03*
X6831Y6282D03*
X7658Y2739D03*
X7697Y1282D03*
X6831Y2148D03*
X4311Y4589D03*
X5847Y3723D03*
X5059Y298D03*
X4272Y6125D03*
X4311Y4510D03*
X4390Y377D03*
X4193Y6203D03*
X6083Y2069D03*
X7736Y2896D03*
X4272Y495D03*
X4311Y3762D03*
X4193Y3644D03*
X6910Y4471D03*
X4232Y5258D03*
X5099Y5377D03*
X6831Y2896D03*
X6792Y2857D03*
X6083Y1243D03*
X5138Y4589D03*
X5886Y5337D03*
X7618Y2109D03*
X4232Y5416D03*
X5020Y2896D03*
X5059Y2030D03*
X5256Y416D03*
X5099Y495D03*
X6043Y455D03*
X7618Y1125D03*
X5059Y4510D03*
X6752Y3566D03*
X4311Y2936D03*
X7500Y5298D03*
X5256Y1991D03*
X6043Y6164D03*
X5256Y4471D03*
X6831Y258D03*
X4351Y3802D03*
X7736Y1991D03*
X4351Y6125D03*
X5177Y1991D03*
X5177Y1164D03*
X6004Y3802D03*
X5099Y6125D03*
X4272Y2739D03*
X4232Y298D03*
X6870Y1125D03*
X5059Y2778D03*
X5177Y4471D03*
X6752Y6203D03*
X6004Y5455D03*
X5925Y5455D03*
X6910Y6203D03*
X6752Y6125D03*
X7579Y1164D03*
X5965Y5258D03*
X5138Y4432D03*
X6713Y455D03*
X6752Y5455D03*
X4390Y298D03*
X6870Y2030D03*
X5965Y6243D03*
X6792Y3762D03*
X4232Y2778D03*
X6910Y5298D03*
X5886Y4589D03*
X6004Y4392D03*
X5256Y337D03*
X4311Y1951D03*
X7618Y6164D03*
X5847Y4471D03*
X5177Y6046D03*
X6083Y5298D03*
X6870Y5416D03*
X6792Y455D03*
X5138Y2857D03*
X6792Y6085D03*
X4272Y5377D03*
X4232Y3762D03*
X5099Y6282D03*
X7658Y6125D03*
X7579Y4550D03*
X5925Y2148D03*
X5138Y6164D03*
X6083Y5377D03*
X6713Y4589D03*
X5217Y5416D03*
X7658Y4628D03*
X6831Y5298D03*
X5925Y6125D03*
X5217Y2109D03*
X4272Y4471D03*
X6004Y2896D03*
X7658Y6046D03*
X5099Y5455D03*
X4193Y5377D03*
X4311Y2030D03*
X7618Y2030D03*
X7618Y377D03*
X5059Y2936D03*
X5965Y2030D03*
X6831Y1991D03*
X4351Y2975D03*
X4390Y3762D03*
X5059Y2109D03*
X5886Y2936D03*
X7579Y2896D03*
X7579Y5219D03*
X6713Y2030D03*
X6083Y3723D03*
X6752Y3723D03*
X5886Y5258D03*
X6792Y6164D03*
X7618Y2857D03*
X5099Y3566D03*
X7618Y6085D03*
X5886Y6164D03*
X6713Y1951D03*
X5847Y5298D03*
X5847Y4550D03*
X6713Y5337D03*
X5138Y3762D03*
X6004Y4628D03*
X6792Y1282D03*
X4311Y6243D03*
X4311Y3605D03*
X7618Y298D03*
X5925Y2739D03*
X6043Y2857D03*
X4232Y6164D03*
X5925Y1164D03*
X4351Y1085D03*
X5059Y1951D03*
X6043Y5337D03*
X6831Y1164D03*
X4311Y6164D03*
X6752Y2739D03*
X6752Y6282D03*
X6043Y1125D03*
X7736Y2069D03*
X4232Y4432D03*
X5925Y1085D03*
X5099Y2975D03*
X7736Y3644D03*
X6792Y2936D03*
X6043Y1203D03*
X4351Y3566D03*
X5138Y6085D03*
X7658Y416D03*
X6004Y2148D03*
X4272Y6046D03*
X6713Y3684D03*
X4390Y6085D03*
X5925Y258D03*
X5059Y455D03*
X7540Y6243D03*
X7579Y337D03*
X6870Y2936D03*
X6910Y1164D03*
X4429Y6125D03*
X5138Y5258D03*
X4272Y1912D03*
X5177Y2069D03*
X4311Y5258D03*
X7618Y2936D03*
X4311Y4432D03*
X4429Y1991D03*
X7697Y3762D03*
X5847Y5377D03*
X6004Y2069D03*
X5177Y3802D03*
X6004Y3644D03*
X7579Y1085D03*
X7658Y1991D03*
X4193Y6125D03*
X7697Y2857D03*
X6910Y3644D03*
X6831Y495D03*
X5965Y2857D03*
X6752Y6046D03*
X4311Y5337D03*
X5886Y2109D03*
X6713Y6164D03*
X6831Y1085D03*
X6713Y6243D03*
X7579Y1321D03*
X6752Y2896D03*
X6792Y377D03*
X7736Y2817D03*
X6713Y5416D03*
X7697Y3605D03*
X7618Y5258D03*
X5925Y416D03*
X5886Y4510D03*
X5217Y2030D03*
X4311Y377D03*
X7697Y377D03*
X7658Y3566D03*
X4193Y1991D03*
X5925Y4471D03*
X6910Y1991D03*
X5925Y4392D03*
X5217Y377D03*
X5256Y2896D03*
X7658Y2975D03*
X6004Y5377D03*
X4232Y1125D03*
X5925Y2069D03*
X6831Y6203D03*
X4351Y4471D03*
X7658Y3644D03*
X4311Y455D03*
X7618Y455D03*
X6870Y4432D03*
X7618Y1282D03*
X5099Y3644D03*
X5925Y6046D03*
X6752Y4471D03*
X5847Y1164D03*
X5138Y377D03*
X4351Y2896D03*
X5847Y2896D03*
X5217Y1125D03*
X7736Y5298D03*
X5925Y5377D03*
X6673Y1164D03*
X7736Y1243D03*
X4272Y5298D03*
X5020Y2069D03*
X5925Y3802D03*
X6004Y2817D03*
X6004Y5219D03*
X5925Y4628D03*
X5965Y2936D03*
X7579Y4471D03*
X6831Y3566D03*
X7618Y3762D03*
X7579Y2739D03*
X6083Y2896D03*
X7579Y4628D03*
X5059Y2857D03*
X5965Y3762D03*
X5886Y1282D03*
X6870Y2857D03*
X5965Y377D03*
X5177Y3644D03*
X4429Y4471D03*
X5099Y1912D03*
X6831Y2817D03*
X6910Y2069D03*
X7579Y6046D03*
X5020Y1243D03*
X4429Y3723D03*
X7540Y455D03*
X5965Y4589D03*
X6752Y1164D03*
X6752Y416D03*
X7658Y4471D03*
X5177Y5298D03*
X7540Y5337D03*
X4390Y2778D03*
X7579Y1912D03*
X7697Y3684D03*
X5217Y3762D03*
X4311Y2778D03*
X5256Y2069D03*
X5925Y1991D03*
X6004Y1243D03*
X4351Y1912D03*
X5099Y3723D03*
X7697Y1951D03*
X6831Y6046D03*
X5256Y6125D03*
X6870Y2778D03*
X4311Y2857D03*
X6831Y416D03*
X6083Y416D03*
X6043Y2030D03*
X6752Y3644D03*
X7579Y6203D03*
X4272Y1164D03*
X6831Y4628D03*
X5256Y1243D03*
X5099Y1991D03*
X5847Y2817D03*
X6043Y4432D03*
X5177Y1321D03*
X6083Y4550D03*
X4429Y4550D03*
X6673Y5298D03*
X4351Y495D03*
X4193Y2817D03*
X6673Y4471D03*
X5177Y2148D03*
X5099Y1164D03*
X4232Y3605D03*
X4311Y1203D03*
X5177Y2817D03*
X5138Y298D03*
X5059Y5416D03*
X4390Y455D03*
X5099Y416D03*
X6673Y1991D03*
X5177Y4392D03*
X5099Y337D03*
X4351Y4550D03*
X6083Y6203D03*
X4351Y5219D03*
X7540Y4589D03*
X7500Y5377D03*
X4232Y2857D03*
X6831Y5219D03*
X5925Y4550D03*
X6792Y5258D03*
X5217Y1203D03*
X4193Y337D03*
X6752Y4550D03*
X7540Y2857D03*
X7618Y5416D03*
X5925Y337D03*
X4272Y4550D03*
X4232Y455D03*
X5256Y4550D03*
X4272Y2975D03*
X6792Y3605D03*
X6752Y2817D03*
X5886Y6243D03*
X4272Y3644D03*
X7579Y5298D03*
X4272Y5455D03*
X5020Y416D03*
X6713Y1282D03*
X4390Y1125D03*
X5965Y3605D03*
X6792Y6243D03*
X4390Y6164D03*
X7697Y5416D03*
X6752Y5298D03*
X6004Y2975D03*
X7579Y3802D03*
X4429Y3644D03*
X6870Y5258D03*
X7500Y416D03*
X5965Y1282D03*
X6043Y2936D03*
X5925Y1243D03*
X5138Y3605D03*
X6004Y3723D03*
X5099Y1085D03*
X6870Y3605D03*
X4351Y1991D03*
X6792Y3684D03*
X5886Y1203D03*
X6043Y3762D03*
X4351Y337D03*
X7618Y5337D03*
X7658Y6203D03*
X6083Y2817D03*
X6831Y3644D03*
X7618Y3684D03*
X6870Y3684D03*
X7500Y6125D03*
X6673Y337D03*
X4351Y4628D03*
X5847Y6203D03*
X4272Y1321D03*
X6713Y2109D03*
X4272Y5219D03*
X6831Y337D03*
X5925Y6282D03*
X4429Y2896D03*
X4232Y2030D03*
X4390Y1203D03*
X5059Y4432D03*
X7697Y1203D03*
X8327Y6203D03*
X10138Y416D03*
X8366Y2857D03*
X9311Y5377D03*
X9981Y337D03*
X9311Y258D03*
X11004Y5258D03*
X11004Y3762D03*
X10965Y3802D03*
X10020Y3762D03*
X9311Y2148D03*
X11043Y1243D03*
X9390Y2817D03*
X10965Y1321D03*
X10807Y6203D03*
X10807Y1164D03*
X8563Y416D03*
X10217Y4550D03*
X8484Y337D03*
X10020Y298D03*
X10020Y377D03*
X8366Y4589D03*
X9272Y2030D03*
X8445Y1951D03*
X8366Y6164D03*
X10965Y6046D03*
X9193Y1203D03*
X10886Y2739D03*
X10807Y1991D03*
X8366Y3605D03*
X9981Y1164D03*
X9311Y2975D03*
X9272Y6164D03*
X10965Y2739D03*
X10020Y2109D03*
X8563Y4471D03*
X10886Y1085D03*
X9351Y6085D03*
X10847Y2857D03*
X8406Y6046D03*
X9232Y1164D03*
X10020Y6164D03*
X8484Y6046D03*
X11043Y1164D03*
X10059Y5219D03*
X10177Y455D03*
X8524Y6085D03*
X9311Y2896D03*
X10099Y2936D03*
X10177Y1951D03*
X8484Y3566D03*
X9193Y3605D03*
X10059Y1243D03*
X10925Y4510D03*
X9351Y455D03*
X8327Y2896D03*
X10059Y5377D03*
X10886Y337D03*
X8366Y4432D03*
X9193Y2857D03*
X10020Y5258D03*
X8445Y4432D03*
X9232Y5455D03*
X11004Y377D03*
X9154Y2069D03*
X10177Y2109D03*
X8366Y5258D03*
X9311Y1912D03*
X10177Y4510D03*
X11004Y5337D03*
X11004Y1951D03*
X10177Y1282D03*
X10099Y5337D03*
X8366Y377D03*
X10925Y6164D03*
X9351Y2936D03*
X9154Y416D03*
X8406Y3566D03*
X9311Y1991D03*
X11004Y5416D03*
X9390Y5298D03*
X10138Y1243D03*
X10847Y3762D03*
X10177Y6164D03*
X10059Y2148D03*
X11004Y1282D03*
X8484Y6203D03*
X10925Y2857D03*
X10099Y4589D03*
X9981Y3644D03*
X9311Y6046D03*
X9272Y4432D03*
X10138Y5455D03*
X9311Y6125D03*
X10965Y258D03*
X8445Y377D03*
X10217Y6125D03*
X9311Y3566D03*
X9232Y6125D03*
X8524Y3762D03*
X9390Y5377D03*
X9232Y4550D03*
X8484Y2148D03*
X9311Y337D03*
X9351Y2030D03*
X8327Y4471D03*
X10965Y5298D03*
X9390Y1164D03*
X11043Y416D03*
X9351Y4432D03*
X9311Y495D03*
X9272Y4589D03*
X10099Y1282D03*
X8406Y337D03*
X10847Y1282D03*
X8406Y6282D03*
X9193Y1951D03*
X10886Y4628D03*
X10217Y1164D03*
X8445Y6243D03*
X11004Y1203D03*
X8563Y2817D03*
X9154Y1164D03*
X10965Y4392D03*
X10138Y2817D03*
X10020Y2778D03*
X10138Y4629D03*
X8524Y1203D03*
X9272Y1203D03*
X9351Y1951D03*
X8445Y4589D03*
X10020Y1951D03*
X8406Y1991D03*
X8445Y5258D03*
X8406Y2817D03*
X9981Y1991D03*
X9311Y2739D03*
X10059Y4629D03*
X8445Y1203D03*
X8445Y2778D03*
X10059Y258D03*
X8445Y3684D03*
X10965Y3723D03*
X8406Y5455D03*
X8484Y2069D03*
X9193Y5337D03*
X10177Y1203D03*
X9232Y1991D03*
X10059Y2975D03*
X10965Y2896D03*
X8524Y298D03*
X10138Y1164D03*
X9272Y2857D03*
X10886Y6125D03*
X10217Y5377D03*
X9232Y3723D03*
X10020Y4589D03*
X8563Y2896D03*
X10925Y1951D03*
X10886Y416D03*
X10059Y4471D03*
X9311Y6203D03*
X11004Y4510D03*
X8484Y3802D03*
X10965Y6125D03*
X10099Y6085D03*
X8327Y3723D03*
X9311Y4550D03*
X9272Y3605D03*
X9232Y4628D03*
X9232Y3566D03*
X9351Y5337D03*
X10807Y3723D03*
X9232Y4392D03*
X10138Y2975D03*
X10059Y2739D03*
X9193Y2778D03*
X8406Y3723D03*
X9154Y5377D03*
X10020Y2936D03*
X9154Y3723D03*
X10217Y2817D03*
X8524Y2030D03*
X8524Y1125D03*
X10138Y1912D03*
X10138Y1085D03*
X10886Y2896D03*
X9311Y1243D03*
X8366Y1951D03*
X10059Y2069D03*
X8406Y1321D03*
X9311Y5219D03*
X10886Y5298D03*
X9351Y1282D03*
X9981Y416D03*
X8524Y377D03*
X8366Y1125D03*
X8366Y3684D03*
X9351Y5258D03*
X8484Y1912D03*
X10020Y5416D03*
X9351Y2778D03*
X10886Y3566D03*
X9351Y298D03*
X10138Y2148D03*
X8524Y6164D03*
X8445Y1282D03*
X8524Y1951D03*
X10099Y5258D03*
X10020Y4432D03*
X8406Y5219D03*
X11004Y6243D03*
X10217Y6203D03*
X10177Y4432D03*
X10138Y3802D03*
X9981Y2896D03*
X10807Y2817D03*
X10059Y1321D03*
X10965Y3644D03*
X10886Y6282D03*
X8406Y258D03*
X10020Y1203D03*
X8524Y2778D03*
X9154Y1991D03*
X11004Y2778D03*
X9232Y1912D03*
X10925Y5258D03*
X9390Y6203D03*
X10099Y1203D03*
X10059Y1164D03*
X10020Y2030D03*
X10886Y3723D03*
X10807Y2896D03*
X10886Y1991D03*
X9272Y1125D03*
X8484Y5298D03*
X8484Y416D03*
X9311Y2817D03*
X10925Y2109D03*
X9232Y5298D03*
X10925Y5416D03*
X9390Y2069D03*
X10059Y337D03*
X8524Y5416D03*
X8563Y5377D03*
X10138Y4471D03*
X9981Y4471D03*
X10177Y377D03*
X9981Y4550D03*
X11004Y6085D03*
X9272Y6085D03*
X9272Y5337D03*
X10138Y3723D03*
X9390Y1243D03*
X10925Y4589D03*
X8524Y3684D03*
X10807Y337D03*
X10847Y1125D03*
X9272Y1951D03*
X9272Y2936D03*
X8366Y455D03*
X8563Y337D03*
X10217Y3723D03*
X9193Y298D03*
X10020Y6085D03*
X9232Y2817D03*
X8366Y1203D03*
X10965Y416D03*
X10177Y2857D03*
X9390Y3723D03*
X10807Y5298D03*
X9272Y6243D03*
X9981Y5298D03*
X9272Y2778D03*
X10847Y4589D03*
X8406Y6203D03*
X9232Y2975D03*
X10059Y4392D03*
X9390Y416D03*
X8484Y3644D03*
X11043Y5377D03*
X10138Y5219D03*
X9981Y5377D03*
X10099Y2109D03*
X10925Y4432D03*
X9193Y5258D03*
X10059Y6046D03*
X10886Y5377D03*
X10847Y1203D03*
X9311Y4392D03*
X8327Y5377D03*
X9154Y1243D03*
X8484Y5377D03*
X10925Y298D03*
X10847Y6243D03*
X11043Y3723D03*
X10925Y3605D03*
X10059Y1991D03*
X11004Y298D03*
X10059Y5455D03*
X8445Y2857D03*
X10925Y455D03*
X9154Y4471D03*
X10847Y2936D03*
X9351Y2109D03*
X8445Y5416D03*
X10099Y298D03*
X10965Y5219D03*
X8366Y1282D03*
X8524Y2936D03*
X11043Y2896D03*
X10965Y337D03*
X10099Y3684D03*
X10138Y6282D03*
X10965Y2148D03*
X8406Y4392D03*
X9193Y3684D03*
X10217Y3644D03*
X10965Y2975D03*
X10177Y6243D03*
X10886Y2975D03*
X10138Y2896D03*
X9193Y4589D03*
X8366Y2030D03*
X10965Y1243D03*
X8406Y2975D03*
X9981Y2817D03*
X10099Y2030D03*
X8406Y416D03*
X10886Y1912D03*
X10847Y5258D03*
X10177Y4589D03*
X9311Y1321D03*
X10886Y1243D03*
X8327Y4550D03*
X10177Y5337D03*
X9390Y6125D03*
X10965Y495D03*
X9154Y5298D03*
X10177Y6085D03*
X10059Y4550D03*
X9311Y2069D03*
X8445Y3605D03*
X10886Y1164D03*
X9272Y298D03*
X10020Y1282D03*
X9232Y1243D03*
X9232Y258D03*
X8524Y5258D03*
X9351Y3684D03*
X10059Y3802D03*
X8484Y1243D03*
X9232Y5377D03*
X8406Y5377D03*
X10099Y377D03*
X10138Y4392D03*
X9193Y455D03*
X8327Y416D03*
X10886Y495D03*
X10177Y2778D03*
X10059Y2817D03*
X9232Y495D03*
X10059Y416D03*
X8524Y5337D03*
X9390Y2896D03*
X9311Y1164D03*
X10177Y5416D03*
X10807Y4550D03*
X10138Y337D03*
X11043Y2817D03*
X9981Y6125D03*
X10138Y495D03*
X9390Y3644D03*
X9351Y6164D03*
X10138Y1991D03*
X8406Y3644D03*
X11004Y3605D03*
X10965Y1164D03*
X8484Y6282D03*
X11043Y1991D03*
X8524Y4510D03*
X9351Y3605D03*
X11004Y4432D03*
X10020Y3605D03*
X10925Y1282D03*
X8406Y4628D03*
X10847Y3605D03*
X11004Y3684D03*
X9311Y5298D03*
X8524Y6243D03*
X8327Y2817D03*
X10886Y5455D03*
X10138Y4550D03*
X9193Y1125D03*
X10099Y1951D03*
X10965Y2817D03*
X10059Y1912D03*
X9272Y377D03*
X10886Y2069D03*
X8327Y2069D03*
X10059Y3723D03*
X8484Y495D03*
X10177Y298D03*
X10925Y6085D03*
X9154Y337D03*
X10886Y258D03*
X9272Y455D03*
X8406Y1243D03*
X8366Y2936D03*
X10099Y6243D03*
X10847Y3684D03*
X9351Y1203D03*
X9232Y2069D03*
X10059Y6203D03*
X9390Y4550D03*
X8445Y5337D03*
X10177Y5258D03*
X10965Y4628D03*
X10886Y2148D03*
X8366Y6243D03*
X9232Y337D03*
X10965Y5377D03*
X10807Y1243D03*
X10099Y455D03*
X10925Y5337D03*
X8484Y258D03*
X8524Y2109D03*
X11004Y1125D03*
X9351Y4510D03*
X8406Y2069D03*
X8484Y4628D03*
X11004Y2030D03*
X10020Y3684D03*
X10807Y6125D03*
X8445Y4510D03*
X10847Y5416D03*
X9272Y5416D03*
X9193Y6085D03*
X9351Y2857D03*
X10886Y1321D03*
X8327Y1991D03*
X10807Y416D03*
X9193Y2109D03*
X10886Y2817D03*
X8327Y1164D03*
X8445Y455D03*
X10847Y455D03*
X8484Y5455D03*
X10138Y3644D03*
X8445Y6164D03*
X10138Y3566D03*
X10965Y6282D03*
X10886Y4392D03*
X8484Y1321D03*
X10020Y2857D03*
X8366Y2778D03*
X9193Y4432D03*
X9311Y3802D03*
X8524Y2857D03*
X10177Y3684D03*
X9154Y6125D03*
X10177Y2936D03*
X9232Y2739D03*
X9981Y6203D03*
X10217Y2896D03*
X8484Y1991D03*
X8484Y2896D03*
X10847Y4510D03*
X8563Y4550D03*
X10807Y5377D03*
X8366Y5337D03*
X10217Y416D03*
X9193Y6164D03*
X10059Y3566D03*
X11004Y2109D03*
X10807Y4471D03*
X8524Y4589D03*
X9311Y4628D03*
X10138Y6203D03*
X10099Y2778D03*
X8406Y2739D03*
X9193Y6243D03*
X8406Y4550D03*
X10807Y2069D03*
X9272Y3762D03*
X10138Y6046D03*
X10886Y3644D03*
X11004Y2936D03*
X8484Y5219D03*
X10020Y455D03*
X10965Y1991D03*
X10099Y2857D03*
X10807Y3644D03*
X9351Y1125D03*
X8445Y3762D03*
X8445Y2109D03*
X8484Y4471D03*
X9311Y1085D03*
X9232Y6282D03*
X10925Y3762D03*
X8484Y1164D03*
X10886Y3802D03*
X9311Y3723D03*
X10965Y4471D03*
X8563Y3723D03*
X10847Y6164D03*
X8366Y6085D03*
X9193Y377D03*
X9232Y5219D03*
X9311Y3644D03*
X9390Y1991D03*
X10217Y337D03*
X11043Y337D03*
X10847Y2030D03*
X8445Y6085D03*
X10138Y258D03*
X10886Y4550D03*
X9193Y3762D03*
X8445Y1125D03*
X10138Y2739D03*
X8484Y2975D03*
X10099Y4432D03*
X10965Y1085D03*
X9232Y416D03*
X10059Y5298D03*
X10886Y4471D03*
X11043Y5298D03*
X8563Y6203D03*
X11043Y4471D03*
X10138Y2069D03*
X8406Y1912D03*
X10847Y4432D03*
X10847Y1951D03*
X9981Y2069D03*
X8484Y2817D03*
X10965Y1912D03*
X9193Y1282D03*
X10059Y6125D03*
X9232Y1321D03*
X10965Y3566D03*
X9193Y2030D03*
X9193Y4510D03*
X10925Y2030D03*
X9232Y4471D03*
X9311Y6282D03*
X8406Y1085D03*
X9232Y3802D03*
X11043Y4550D03*
X10925Y377D03*
X8406Y3802D03*
X9351Y3762D03*
X10886Y6203D03*
X10020Y4510D03*
X10099Y3605D03*
X8563Y1164D03*
X9232Y6203D03*
X11004Y4589D03*
X10059Y6282D03*
X10138Y1321D03*
X10925Y3684D03*
X10965Y2069D03*
X10099Y3762D03*
X8406Y1164D03*
X9311Y5455D03*
X8445Y2030D03*
X8406Y2896D03*
X11043Y6203D03*
X9981Y3723D03*
X8366Y2109D03*
X9272Y2109D03*
X8327Y1243D03*
X8366Y298D03*
X11043Y3644D03*
X8484Y4550D03*
X8563Y2069D03*
X9272Y5258D03*
X11004Y2857D03*
X8563Y1243D03*
X10217Y1991D03*
X8445Y298D03*
X8484Y2739D03*
X9232Y2896D03*
X10020Y5337D03*
X10847Y6085D03*
X9390Y337D03*
X10886Y6046D03*
X10925Y2936D03*
X10217Y2069D03*
X8484Y4392D03*
X10925Y2778D03*
X8445Y2936D03*
X8366Y4510D03*
X8366Y5416D03*
X10925Y1203D03*
X9193Y2936D03*
X10965Y6203D03*
X10965Y4550D03*
X10847Y377D03*
X9351Y5416D03*
X8406Y2148D03*
X10099Y6164D03*
X10847Y2778D03*
X10138Y6125D03*
X8524Y455D03*
X9154Y2896D03*
X8327Y3644D03*
X11043Y2069D03*
X8327Y337D03*
X9232Y2148D03*
X10099Y4510D03*
X11004Y455D03*
X8563Y6125D03*
X10059Y1085D03*
X10217Y1243D03*
X8366Y3762D03*
X10020Y6243D03*
X9154Y4550D03*
X8406Y5298D03*
X10217Y5298D03*
X10847Y2109D03*
X8524Y1282D03*
X9351Y6243D03*
X10020Y1125D03*
X9232Y1085D03*
X8406Y4471D03*
X10059Y3644D03*
X8563Y1991D03*
X8524Y4432D03*
X10177Y2030D03*
X8327Y6125D03*
X10099Y1125D03*
X11043Y6125D03*
X10886Y5219D03*
X8406Y6125D03*
X10965Y5455D03*
X10099Y5416D03*
X10847Y298D03*
X8327Y5298D03*
X9154Y3644D03*
X10059Y2896D03*
X9311Y416D03*
X10177Y3605D03*
X8484Y1085D03*
X8563Y5298D03*
X10138Y5298D03*
X10177Y3762D03*
X9272Y4510D03*
X9272Y1282D03*
X9351Y4589D03*
X9351Y377D03*
X9232Y3644D03*
X11004Y6164D03*
X10059Y495D03*
X9154Y2817D03*
X10925Y6243D03*
X9272Y3684D03*
X9311Y4471D03*
X8406Y495D03*
X8563Y3644D03*
X10925Y1125D03*
X8484Y3723D03*
X9390Y4471D03*
X10177Y1125D03*
X8524Y3605D03*
X10847Y5337D03*
X10138Y5377D03*
X8484Y6125D03*
X10217Y4471D03*
X9981Y1243D03*
X9193Y5416D03*
X9232Y6046D03*
X9154Y6203D03*
X3524Y298D03*
X3524Y5337D03*
X3484Y3802D03*
X3563Y3566D03*
X3603Y2936D03*
X3642Y1164D03*
X3563Y4471D03*
X3563Y1164D03*
X3445Y5337D03*
X3484Y258D03*
X3406Y5377D03*
X3524Y6164D03*
X3484Y3644D03*
X3603Y298D03*
X3484Y1991D03*
X3603Y3762D03*
X3642Y2069D03*
X3406Y337D03*
X3563Y2739D03*
X3642Y337D03*
X3484Y3723D03*
X3445Y3762D03*
X3563Y3802D03*
X3484Y2739D03*
X3642Y6203D03*
X3484Y2817D03*
X3642Y1243D03*
X3445Y2778D03*
X3445Y4510D03*
X3642Y3723D03*
X3563Y6282D03*
X3524Y455D03*
X3642Y4471D03*
X3524Y2936D03*
X3603Y2857D03*
X3406Y2817D03*
X3524Y3762D03*
X3563Y495D03*
X3484Y4550D03*
X3603Y5337D03*
X3445Y1951D03*
X3603Y3684D03*
X3563Y2975D03*
X3524Y1282D03*
X3406Y6203D03*
X3563Y4628D03*
X3563Y4392D03*
X3563Y3644D03*
X3524Y4510D03*
X3484Y4628D03*
X3642Y2817D03*
X3563Y2069D03*
X3406Y2896D03*
X3484Y2975D03*
X3445Y2857D03*
X3642Y5377D03*
X3563Y258D03*
X3524Y6085D03*
X3406Y2069D03*
X3445Y1203D03*
X3603Y455D03*
X3603Y3605D03*
X3524Y2030D03*
X3406Y3723D03*
X3484Y3566D03*
X3524Y4432D03*
X3603Y4510D03*
X3524Y5258D03*
X3445Y2109D03*
X3524Y5416D03*
X3524Y377D03*
X3563Y1085D03*
X3563Y5455D03*
X3445Y1125D03*
X3642Y1991D03*
X3603Y2109D03*
X3524Y2857D03*
X3603Y6164D03*
X3524Y2109D03*
X3406Y4550D03*
X3484Y1085D03*
X3406Y5298D03*
X3445Y6243D03*
X3603Y1282D03*
X3524Y1125D03*
X3563Y2896D03*
X3484Y1164D03*
X3406Y416D03*
X3484Y4392D03*
X3406Y1243D03*
X3642Y416D03*
X3563Y1243D03*
X3563Y1991D03*
X3603Y5416D03*
X3406Y4471D03*
X3406Y6125D03*
X3445Y1282D03*
X3406Y1991D03*
X3563Y1321D03*
X3445Y6164D03*
X3484Y416D03*
X3603Y377D03*
X3563Y5298D03*
X3524Y4589D03*
X3406Y3644D03*
X3563Y6125D03*
X3445Y3684D03*
X3484Y6203D03*
X3445Y3605D03*
X3563Y416D03*
X3642Y3644D03*
X3445Y377D03*
X3642Y4550D03*
X3603Y5258D03*
X3603Y4589D03*
X3484Y1912D03*
X3445Y298D03*
X3642Y2896D03*
X3563Y2817D03*
X3603Y6085D03*
X3484Y1321D03*
X3445Y4589D03*
X3484Y5298D03*
X3603Y4432D03*
X3603Y1203D03*
X3484Y6125D03*
X3642Y6125D03*
X3445Y4432D03*
X3484Y6282D03*
X3603Y6243D03*
X3563Y2148D03*
X3524Y3605D03*
X3484Y1243D03*
X3484Y337D03*
X3445Y2030D03*
X3563Y3723D03*
X3563Y5377D03*
X3524Y6243D03*
X3484Y495D03*
X3484Y4471D03*
X3603Y1951D03*
X3524Y1951D03*
X3563Y6046D03*
X3563Y1912D03*
X3524Y1203D03*
X3484Y2069D03*
X3524Y3684D03*
X3603Y2778D03*
X3484Y5377D03*
X3445Y5416D03*
X3524Y2778D03*
X3406Y1164D03*
X3563Y6203D03*
X3603Y2030D03*
X3603Y1125D03*
X3563Y4550D03*
X3445Y6085D03*
X3563Y5219D03*
X3484Y2896D03*
X3445Y455D03*
X3563Y337D03*
X3484Y6046D03*
X3484Y5219D03*
X3484Y5455D03*
X3445Y2936D03*
X3445Y5258D03*
X3642Y5298D03*
X3484Y2148D03*
X2658Y298D03*
X2658Y5337D03*
X2618Y3802D03*
X2697Y3566D03*
X2736Y2936D03*
X2776Y1164D03*
X2697Y4471D03*
X2697Y1164D03*
X2579Y5337D03*
X2618Y258D03*
X2540Y5377D03*
X2658Y6164D03*
X2618Y3644D03*
X2736Y298D03*
X2618Y1991D03*
X2736Y3762D03*
X2776Y2069D03*
X2540Y337D03*
X2697Y2739D03*
X2776Y337D03*
X2618Y3723D03*
X2579Y3762D03*
X2697Y3802D03*
X2618Y2739D03*
X2776Y6203D03*
X2618Y2817D03*
X2776Y1243D03*
X2579Y2778D03*
X2579Y4510D03*
X2776Y3723D03*
X2697Y6282D03*
X2658Y455D03*
X2776Y4471D03*
X2658Y2936D03*
X2736Y2857D03*
X2540Y2817D03*
X2658Y3762D03*
X2697Y495D03*
X2618Y4550D03*
X2736Y5337D03*
X2579Y1951D03*
X2736Y3684D03*
X2697Y2975D03*
X2658Y1282D03*
X2540Y6203D03*
X2697Y4628D03*
X2697Y4392D03*
X2697Y3644D03*
X2658Y4510D03*
X2618Y4628D03*
X2776Y2817D03*
X2697Y2069D03*
X2540Y2896D03*
X2618Y2975D03*
X2579Y2857D03*
X2776Y5377D03*
X2697Y258D03*
X2658Y6085D03*
X2540Y2069D03*
X2579Y1203D03*
X2736Y455D03*
X2736Y3605D03*
X2658Y2030D03*
X2540Y3723D03*
X2618Y3566D03*
X2658Y4432D03*
X2736Y4510D03*
X2658Y5258D03*
X2579Y2109D03*
X2658Y5416D03*
X2658Y377D03*
X2697Y1085D03*
X2697Y5455D03*
X2579Y1125D03*
X2776Y1991D03*
X2736Y2109D03*
X2658Y2857D03*
X2736Y6164D03*
X2658Y2109D03*
X2540Y4550D03*
X2618Y1085D03*
X2540Y5298D03*
X2579Y6243D03*
X2736Y1282D03*
X2658Y1125D03*
X2697Y2896D03*
X2618Y1164D03*
X2540Y416D03*
X2618Y4392D03*
X2540Y1243D03*
X2776Y416D03*
X2697Y1243D03*
X2697Y1991D03*
X2736Y5416D03*
X2540Y4471D03*
X2540Y6125D03*
X2579Y1282D03*
X2540Y1991D03*
X2697Y1321D03*
X2579Y6164D03*
X2618Y416D03*
X2736Y377D03*
X2697Y5298D03*
X2658Y4589D03*
X2540Y3644D03*
X2697Y6125D03*
X2579Y3684D03*
X2618Y6203D03*
X2579Y3605D03*
X2697Y416D03*
X2776Y3644D03*
X2579Y377D03*
X2776Y4550D03*
X2736Y5258D03*
X2736Y4589D03*
X2618Y1912D03*
X2579Y298D03*
X2776Y2896D03*
X2697Y2817D03*
X2736Y6085D03*
X2618Y1321D03*
X2579Y4589D03*
X2618Y5298D03*
X2736Y4432D03*
X2736Y1203D03*
X2618Y6125D03*
X2776Y6125D03*
X2579Y4432D03*
X2618Y6282D03*
X2736Y6243D03*
X2697Y2148D03*
X2658Y3605D03*
X2618Y1243D03*
X2618Y337D03*
X2579Y2030D03*
X2697Y3723D03*
X2697Y5377D03*
X2658Y6243D03*
X2618Y495D03*
X2618Y4471D03*
X2736Y1951D03*
X2658Y1951D03*
X2697Y6046D03*
X2697Y1912D03*
X2658Y1203D03*
X2618Y2069D03*
X2658Y3684D03*
X2736Y2778D03*
X2618Y5377D03*
X2579Y5416D03*
X2658Y2778D03*
X2540Y1164D03*
X2697Y6203D03*
X2736Y2030D03*
X2736Y1125D03*
X2697Y4550D03*
X2579Y6085D03*
X2697Y5219D03*
X2618Y2896D03*
X2579Y455D03*
X2697Y337D03*
X2618Y6046D03*
X2618Y5219D03*
X2618Y5455D03*
X2579Y2936D03*
X2579Y5258D03*
X2776Y5298D03*
X2618Y2148D03*
X1831Y298D03*
X1831Y5337D03*
X1792Y3802D03*
X1870Y3566D03*
X1910Y2936D03*
X1949Y1164D03*
X1870Y4471D03*
X1870Y1164D03*
X1752Y5337D03*
X1792Y258D03*
X1713Y5377D03*
X1831Y6164D03*
X1792Y3644D03*
X1910Y298D03*
X1792Y1991D03*
X1910Y3762D03*
X1949Y2069D03*
X1713Y337D03*
X1870Y2739D03*
X1949Y337D03*
X1792Y3723D03*
X1752Y3762D03*
X1870Y3802D03*
X1792Y2739D03*
X1949Y6203D03*
X1792Y2817D03*
X1949Y1243D03*
X1752Y2778D03*
X1752Y4510D03*
X1949Y3723D03*
X1870Y6282D03*
X1831Y455D03*
X1949Y4471D03*
X1831Y2936D03*
X1910Y2857D03*
X1713Y2817D03*
X1831Y3762D03*
X1870Y495D03*
X1792Y4550D03*
X1910Y5337D03*
X1752Y1951D03*
X1910Y3684D03*
X1870Y2975D03*
X1831Y1282D03*
X1713Y6203D03*
X1870Y4629D03*
X1870Y4392D03*
X1870Y3644D03*
X1831Y4510D03*
X1792Y4629D03*
X1949Y2817D03*
X1870Y2069D03*
X1713Y2896D03*
X1792Y2975D03*
X1752Y2857D03*
X1949Y5377D03*
X1870Y258D03*
X1831Y6085D03*
X1713Y2069D03*
X1752Y1203D03*
X1910Y455D03*
X1910Y3605D03*
X1831Y2030D03*
X1713Y3723D03*
X1792Y3566D03*
X1831Y4432D03*
X1910Y4510D03*
X1831Y5258D03*
X1752Y2109D03*
X1831Y5416D03*
X1831Y377D03*
X1870Y1085D03*
X1870Y5455D03*
X1752Y1125D03*
X1949Y1991D03*
X1910Y2109D03*
X1831Y2857D03*
X1910Y6164D03*
X1831Y2109D03*
X1713Y4550D03*
X1792Y1085D03*
X1713Y5298D03*
X1752Y6243D03*
X1910Y1282D03*
X1831Y1125D03*
X1870Y2896D03*
X1792Y1164D03*
X1713Y416D03*
X1792Y4392D03*
X1713Y1243D03*
X1949Y416D03*
X1870Y1243D03*
X1870Y1991D03*
X1910Y5416D03*
X1713Y4471D03*
X1713Y6125D03*
X1752Y1282D03*
X1713Y1991D03*
X1870Y1321D03*
X1752Y6164D03*
X1792Y416D03*
X1910Y377D03*
X1870Y5298D03*
X1831Y4589D03*
X1713Y3644D03*
X1870Y6125D03*
X1752Y3684D03*
X1792Y6203D03*
X1752Y3605D03*
X1870Y416D03*
X1949Y3644D03*
X1752Y377D03*
X1949Y4550D03*
X1910Y5258D03*
X1910Y4589D03*
X1792Y1912D03*
X1752Y298D03*
X1949Y2896D03*
X1870Y2817D03*
X1910Y6085D03*
X1792Y1321D03*
X1752Y4589D03*
X1792Y5298D03*
X1910Y4432D03*
X1910Y1203D03*
X1792Y6125D03*
X1949Y6125D03*
X1752Y4432D03*
X1792Y6282D03*
X1910Y6243D03*
X1870Y2148D03*
X1831Y3605D03*
X1792Y1243D03*
X1792Y337D03*
X1752Y2030D03*
X1870Y3723D03*
X1870Y5377D03*
X1831Y6243D03*
X1792Y495D03*
X1792Y4471D03*
X1910Y1951D03*
X1831Y1951D03*
X1870Y6046D03*
X1870Y1912D03*
X1831Y1203D03*
X1792Y2069D03*
X1831Y3684D03*
X1910Y2778D03*
X1792Y5377D03*
X1752Y5416D03*
X1831Y2778D03*
X1713Y1164D03*
X1870Y6203D03*
X1910Y2030D03*
X1910Y1125D03*
X1870Y4550D03*
X1752Y6085D03*
X1870Y5219D03*
X1792Y2896D03*
X1752Y455D03*
X1870Y337D03*
X1792Y6046D03*
X1792Y5219D03*
X1792Y5455D03*
X1752Y2936D03*
X1752Y5258D03*
X1949Y5298D03*
X1792Y2148D03*
X1043Y298D03*
X1043Y5337D03*
X1004Y3802D03*
X1083Y3566D03*
X1122Y2936D03*
X1162Y1164D03*
X1083Y4471D03*
X1083Y1164D03*
X965Y5337D03*
X1004Y258D03*
X925Y5377D03*
X1043Y6164D03*
X1004Y3644D03*
X1122Y298D03*
X1004Y1991D03*
X1122Y3762D03*
X1162Y2069D03*
X925Y337D03*
X1083Y2739D03*
X1162Y337D03*
X1004Y3723D03*
X965Y3762D03*
X1083Y3802D03*
X1004Y2739D03*
X1162Y6203D03*
X1004Y2817D03*
X1162Y1243D03*
X965Y2778D03*
X965Y4510D03*
X1162Y3723D03*
X1083Y6282D03*
X1043Y455D03*
X1162Y4471D03*
X1043Y2936D03*
X1122Y2857D03*
X925Y2817D03*
X1043Y3762D03*
X1083Y495D03*
X1004Y4550D03*
X1122Y5337D03*
X965Y1951D03*
X1122Y3684D03*
X1083Y2975D03*
X1043Y1282D03*
X925Y6203D03*
X1083Y4628D03*
X1083Y4392D03*
X1083Y3644D03*
X1043Y4510D03*
X1004Y4628D03*
X1162Y2817D03*
X1083Y2069D03*
X925Y2896D03*
X1004Y2975D03*
X965Y2857D03*
X1162Y5377D03*
X1083Y258D03*
X1043Y6085D03*
X925Y2069D03*
X965Y1203D03*
X1122Y455D03*
X1122Y3605D03*
X1043Y2030D03*
X925Y3723D03*
X1004Y3566D03*
X1043Y4432D03*
X1122Y4510D03*
X1043Y5258D03*
X965Y2109D03*
X1043Y5416D03*
X1043Y377D03*
X1083Y1085D03*
X1083Y5455D03*
X965Y1125D03*
X1162Y1991D03*
X1122Y2109D03*
X1043Y2857D03*
X1122Y6164D03*
X1043Y2109D03*
X925Y4550D03*
X1004Y1085D03*
X925Y5298D03*
X965Y6243D03*
X1122Y1282D03*
X1043Y1125D03*
X1083Y2896D03*
X1004Y1164D03*
X925Y416D03*
X1004Y4392D03*
X925Y1243D03*
X1162Y416D03*
X1083Y1243D03*
X1083Y1991D03*
X1122Y5416D03*
X925Y4471D03*
X925Y6125D03*
X965Y1282D03*
X925Y1991D03*
X1083Y1321D03*
X965Y6164D03*
X1004Y416D03*
X1122Y377D03*
X1083Y5298D03*
X1043Y4589D03*
X925Y3644D03*
X1083Y6125D03*
X965Y3684D03*
X1004Y6203D03*
X965Y3605D03*
X1083Y416D03*
X1162Y3644D03*
X965Y377D03*
X1162Y4550D03*
X1122Y5258D03*
X1122Y4589D03*
X1004Y1912D03*
X965Y298D03*
X1162Y2896D03*
X1083Y2817D03*
X1122Y6085D03*
X1004Y1321D03*
X965Y4589D03*
X1004Y5298D03*
X1122Y4432D03*
X1122Y1203D03*
X1004Y6125D03*
X1162Y6125D03*
X965Y4432D03*
X1004Y6282D03*
X1122Y6243D03*
X1083Y2148D03*
X1043Y3605D03*
X1004Y1243D03*
X1004Y337D03*
X965Y2030D03*
X1083Y3723D03*
X1083Y5377D03*
X1043Y6243D03*
X1004Y495D03*
X1004Y4471D03*
X1122Y1951D03*
X1043Y1951D03*
X1083Y6046D03*
X1083Y1912D03*
X1043Y1203D03*
X1004Y2069D03*
X1043Y3684D03*
X1122Y2778D03*
X1004Y5377D03*
X965Y5416D03*
X1043Y2778D03*
X925Y1164D03*
X1083Y6203D03*
X1122Y2030D03*
X1122Y1125D03*
X1083Y4550D03*
X965Y6085D03*
X1083Y5219D03*
X1004Y2896D03*
X965Y455D03*
X1083Y337D03*
X1004Y6046D03*
X1004Y5219D03*
X1004Y5455D03*
X965Y2936D03*
X965Y5258D03*
X1162Y5298D03*
X1004Y2148D03*
X177Y1085D03*
X256Y1321D03*
X99Y1243D03*
X256Y337D03*
X177Y337D03*
X217Y1125D03*
X256Y495D03*
X256Y258D03*
X335Y337D03*
X217Y1203D03*
X177Y495D03*
X138Y1203D03*
X217Y1282D03*
X256Y1243D03*
X295Y298D03*
X177Y1243D03*
X335Y1164D03*
X138Y455D03*
X99Y1164D03*
X217Y298D03*
X217Y377D03*
X177Y416D03*
X217Y455D03*
X177Y258D03*
X295Y1203D03*
X256Y416D03*
X99Y416D03*
X335Y416D03*
X138Y377D03*
X295Y1282D03*
X138Y1282D03*
X138Y1125D03*
X177Y1164D03*
X256Y1164D03*
X138Y298D03*
X177Y1321D03*
X295Y377D03*
X335Y1243D03*
X99Y337D03*
X256Y1085D03*
X295Y455D03*
X295Y1125D03*
X177Y2739D03*
X256Y2975D03*
X99Y2896D03*
X256Y1991D03*
X177Y1991D03*
X217Y2778D03*
X256Y2148D03*
X256Y1912D03*
X335Y1991D03*
X217Y2857D03*
X177Y2148D03*
X138Y2857D03*
X217Y2936D03*
X256Y2896D03*
X295Y1951D03*
X177Y2896D03*
X335Y2817D03*
X138Y2109D03*
X99Y2817D03*
X217Y1951D03*
X217Y2030D03*
X177Y2069D03*
X217Y2109D03*
X177Y1912D03*
X295Y2857D03*
X256Y2069D03*
X99Y2069D03*
X335Y2069D03*
X138Y2030D03*
X295Y2936D03*
X138Y2936D03*
X138Y2778D03*
X177Y2817D03*
X256Y2817D03*
X138Y1951D03*
X177Y2975D03*
X295Y2030D03*
X335Y2896D03*
X99Y1991D03*
X256Y2739D03*
X295Y2109D03*
X295Y2778D03*
X99Y3723D03*
X177Y3723D03*
X295Y3605D03*
X177Y3802D03*
X295Y3762D03*
X177Y3644D03*
X217Y3684D03*
X256Y3723D03*
X295Y3684D03*
X256Y3566D03*
X138Y3605D03*
X335Y3644D03*
X138Y3762D03*
X99Y3644D03*
X138Y3684D03*
X256Y3802D03*
X256Y3644D03*
X335Y3723D03*
X217Y3605D03*
X177Y3566D03*
X217Y3762D03*
X99Y4550D03*
X177Y4550D03*
X295Y4432D03*
X177Y4628D03*
X295Y4589D03*
X177Y4471D03*
X217Y4510D03*
X256Y4550D03*
X295Y4510D03*
X256Y4392D03*
X138Y4432D03*
X335Y4471D03*
X138Y4589D03*
X99Y4471D03*
X138Y4510D03*
X256Y4628D03*
X256Y4471D03*
X335Y4550D03*
X217Y4432D03*
X177Y4392D03*
X217Y4589D03*
X295Y5258D03*
X217Y5337D03*
X99Y5377D03*
X177Y5219D03*
X217Y5258D03*
X256Y5219D03*
X256Y5455D03*
X177Y5377D03*
X138Y5337D03*
X256Y5298D03*
X335Y5377D03*
X177Y5298D03*
X295Y5337D03*
X138Y5258D03*
X335Y5298D03*
X99Y5298D03*
X177Y5455D03*
X217Y5416D03*
X295Y5416D03*
X256Y5377D03*
X138Y5416D03*
X256Y6282D03*
X177Y6282D03*
X256Y6046D03*
X177Y6046D03*
X295Y6085D03*
X217Y6085D03*
X138Y6085D03*
X335Y6125D03*
X256Y6125D03*
X295Y6164D03*
X177Y6125D03*
X99Y6125D03*
X217Y6164D03*
X138Y6164D03*
X335Y6203D03*
X99Y6203D03*
X177Y6203D03*
X256Y6203D03*
X138Y6243D03*
X217Y6243D03*
X295Y6243D03*
G54D11*
X8839Y3014D03*
X8839Y2914D03*
X8839Y2814D03*
X6240Y6243D03*
X6240Y6343D03*
X6240Y6443D03*
X492Y3251D03*
X492Y3151D03*
X492Y3051D03*
X728Y3251D03*
X728Y3151D03*
X728Y3051D03*
X6358Y6243D03*
X6358Y6343D03*
X6358Y6443D03*
X610Y3251D03*
X610Y3151D03*
X610Y3051D03*
X8721Y3014D03*
X8721Y2914D03*
X8721Y2814D03*
X8957Y3014D03*
X8957Y2914D03*
X8957Y2814D03*
X6408Y740D03*
X6408Y640D03*
X6408Y540D03*
X6477Y6243D03*
X6477Y6343D03*
X6477Y6443D03*
X6290Y740D03*
X6290Y640D03*
X6290Y540D03*
X6527Y740D03*
X6527Y640D03*
X6527Y540D03*
G54D10*
X8996Y3093D03*
X6398Y5731D03*
X6319Y5731D03*
X6201Y6164D03*
X728Y3763D03*
X492Y3763D03*
X768Y3330D03*
X6477Y5888D03*
X571Y3763D03*
X6240Y5731D03*
X8721Y3526D03*
X8799Y3526D03*
X8957Y3526D03*
X8878Y3526D03*
X6448Y1252D03*
X6369Y1252D03*
X6527Y1252D03*
X6566Y819D03*
X6290Y1252D03*
G54D12*
X11349Y1333D03*
X11359Y1433D03*
X11349Y1533D03*
X11359Y1633D03*
X11349Y1733D03*
X11359Y1833D03*
G54D10*
X11437Y2188D03*
X11437Y2266D03*
X11398Y2109D03*
X8586Y5583D03*
X8642Y4707D03*
X8799Y5573D03*
X6360Y4709D03*
X8663Y2601D03*
X8642Y4786D03*
X8811Y4496D03*
X8800Y3881D03*
X9075Y1402D03*
X6279Y4786D03*
X6398Y5572D03*
X6477Y3093D03*
X6432Y4582D03*
X6131Y3879D03*
X650Y3762D03*
X6043Y5573D03*
X6201Y5808D03*
X6043Y5652D03*
X6402Y2763D03*
G54D13*
X8721Y3026D02*
X8721Y3518D01*
D02*
X492Y3263D02*
X492Y3755D01*
D02*
X6477Y6231D02*
X6477Y5896D01*
D02*
X6290Y752D02*
X6290Y1244D01*
D02*
X8721Y2826D02*
X8721Y2903D01*
D02*
X492Y3063D02*
X492Y3139D01*
D02*
X6477Y6431D02*
X6477Y6354D01*
D02*
X6290Y552D02*
X6290Y628D01*
D02*
X8721Y2926D02*
X8721Y3003D01*
D02*
X492Y3163D02*
X492Y3239D01*
D02*
X6477Y6331D02*
X6477Y6254D01*
D02*
X6290Y652D02*
X6290Y728D01*
D02*
X8993Y3086D02*
X8962Y3025D01*
D02*
X6205Y6171D02*
X6235Y6232D01*
D02*
X6562Y812D02*
X6532Y751D01*
D02*
X764Y3323D02*
X734Y3261D01*
D02*
X8957Y3003D02*
X8957Y2926D01*
D02*
X6240Y6254D02*
X6240Y6331D01*
D02*
X728Y3239D02*
X728Y3163D01*
D02*
X6527Y728D02*
X6527Y652D01*
D02*
X8957Y2903D02*
X8957Y2826D01*
D02*
X728Y3139D02*
X728Y3063D01*
D02*
X6527Y628D02*
X6527Y552D01*
D02*
X6240Y6354D02*
X6240Y6431D01*
D02*
X11438Y2180D02*
X11476Y1557D01*
D02*
X11476Y1557D02*
X11368Y1537D01*
D02*
X11515Y2227D02*
X11516Y1480D01*
D02*
X11516Y1480D02*
X11378Y1439D01*
D02*
X11444Y2263D02*
X11515Y2227D01*
D02*
X11043Y1401D02*
X11329Y1338D01*
D02*
X9075Y3092D02*
X9075Y1409D01*
D02*
X9083Y1402D02*
X11043Y1401D01*
D02*
X9004Y3093D02*
X9075Y3092D01*
D02*
X10688Y1834D02*
X11339Y1833D01*
D02*
X10688Y3957D02*
X10688Y1834D01*
D02*
X8721Y3975D02*
X10688Y3957D01*
D02*
X8721Y3534D02*
X8721Y3975D01*
D02*
X9154Y3133D02*
X9508Y3133D01*
D02*
X9034Y3525D02*
X9154Y3133D01*
D02*
X9508Y3133D02*
X9509Y1479D01*
D02*
X9863Y1558D02*
X11329Y1534D01*
D02*
X8965Y3526D02*
X9034Y3525D01*
D02*
X9154Y3447D02*
X9863Y3447D01*
D02*
X9863Y3447D02*
X9863Y1558D01*
D02*
X9075Y3603D02*
X9154Y3447D01*
D02*
X8878Y3603D02*
X9075Y3603D01*
D02*
X9509Y1479D02*
X11082Y1479D01*
D02*
X8878Y3534D02*
X8878Y3603D01*
D02*
X11082Y1479D02*
X11339Y1436D01*
D02*
X11438Y1636D02*
X11378Y1634D01*
D02*
X11399Y2101D02*
X11438Y1636D01*
D02*
X10611Y1635D02*
X11339Y1633D01*
D02*
X10611Y3881D02*
X10611Y1635D01*
D02*
X8807Y3881D02*
X10611Y3881D01*
D02*
X8799Y3534D02*
X8800Y3873D01*
D02*
X8721Y5887D02*
X8721Y3975D01*
D02*
X6634Y5889D02*
X8721Y5887D01*
D02*
X6484Y5888D02*
X6634Y5889D01*
D02*
X8578Y5583D02*
X6406Y5572D01*
D02*
X8810Y4504D02*
X8799Y5566D01*
D02*
X6200Y3369D02*
X6122Y5887D01*
D02*
X6200Y2618D02*
X6200Y3369D01*
D02*
X6122Y5887D02*
X6199Y6156D01*
D02*
X8655Y2601D02*
X6208Y2618D01*
D02*
X8634Y4707D02*
X6367Y4709D01*
D02*
X6287Y4786D02*
X8634Y4786D01*
D02*
X6241Y5723D02*
X6278Y4793D01*
D02*
X6594Y928D02*
X6568Y826D01*
D02*
X9075Y928D02*
X6594Y928D01*
D02*
X9075Y1394D02*
X9075Y928D01*
D02*
X6280Y2543D02*
X6290Y1260D01*
D02*
X8721Y2803D02*
X8721Y2502D01*
D02*
X8721Y2502D02*
X6280Y2543D01*
D02*
X6402Y2771D02*
X6360Y4701D01*
D02*
X6476Y3101D02*
X6432Y4574D01*
D02*
X6478Y6677D02*
X411Y6639D01*
D02*
X411Y3956D02*
X489Y3770D01*
D02*
X411Y6639D02*
X411Y3956D01*
D02*
X6477Y6454D02*
X6478Y6677D01*
D02*
X775Y3332D02*
X929Y3369D01*
D02*
X929Y3369D02*
X6200Y3369D01*
D02*
X6123Y3879D02*
X770Y3882D01*
D02*
X770Y3882D02*
X731Y3770D01*
D02*
X730Y5533D02*
X730Y3997D01*
D02*
X730Y3997D02*
X652Y3770D01*
D02*
X6036Y5573D02*
X730Y5533D01*
D02*
X6396Y5808D02*
X6209Y5808D01*
D02*
X6398Y5739D02*
X6396Y5808D01*
D02*
X6036Y5652D02*
X570Y5653D01*
D02*
X570Y5653D02*
X571Y3771D01*
G04 End of Copper0*
M02*