<?xml version="1.0" encoding="utf-8"?>
<!-- Generator: Adobe Illustrator 16.0.0, SVG Export Plug-In . SVG Version: 6.00 Build 0)  -->
<!DOCTYPE svg PUBLIC "-//W3C//DTD SVG 1.1//EN" "http://www.w3.org/Graphics/SVG/1.1/DTD/svg11.dtd">
<svg version="1.1" id="Layer_1" xmlns="http://www.w3.org/2000/svg" xmlns:xlink="http://www.w3.org/1999/xlink" x="0px" y="0px"
	 width="135.803px" height="39.914px" viewBox="0 0 135.803 39.914" enable-background="new 0 0 135.803 39.914"
	 xml:space="preserve">
<g>
	<path fill-rule="evenodd" clip-rule="evenodd" d="M28.986,19.897c0,1.587-0.008,3.174,0.008,4.761
		c0.003,0.292-0.096,0.441-0.344,0.582c-2.799,1.597-5.593,3.203-8.384,4.814c-0.2,0.115-0.346,0.113-0.545-0.003
		c-2.767-1.604-5.536-3.202-8.312-4.79c-0.251-0.144-0.335-0.299-0.334-0.586c0.014-3.198,0.017-6.397,0.009-9.596
		c0-0.264,0.091-0.403,0.309-0.528c2.816-1.617,5.627-3.243,8.446-4.856c0.089-0.051,0.263-0.042,0.356,0.011
		c2.839,1.628,5.671,3.268,8.511,4.895c0.214,0.123,0.287,0.253,0.285,0.497C28.981,16.699,28.986,18.298,28.986,19.897z
		 M27.721,15.048c-0.147-0.102-0.232-0.169-0.326-0.223c-2.336-1.347-4.677-2.687-7.007-4.047c-0.292-0.171-0.499-0.155-0.78,0.009
		c-2.298,1.338-4.606,2.662-6.909,3.992c-0.089,0.051-0.167,0.12-0.298,0.216c1.857,1.085,3.656,2.135,5.522,3.226
		c0-0.229-0.016-0.354,0.003-0.475c0.062-0.411-0.094-0.647-0.473-0.85c-0.991-0.529-1.952-1.114-2.924-1.678
		c-0.109-0.063-0.211-0.139-0.333-0.22c0.075-0.064,0.1-0.092,0.131-0.11c1.836-1.064,3.67-2.133,5.516-3.182
		c0.125-0.071,0.367-0.051,0.498,0.024c1.786,1.028,3.561,2.073,5.338,3.115c0.072,0.042,0.136,0.1,0.231,0.169
		c-0.118,0.077-0.208,0.141-0.302,0.196c-0.949,0.554-1.9,1.105-2.849,1.659c-0.57,0.333-0.669,0.607-0.455,1.31
		C24.099,17.142,25.885,16.109,27.721,15.048z M12.844,17.261c0.175,0.093,0.285,0.149,0.392,0.21
		c0.989,0.561,1.977,1.123,2.965,1.685c0.52,0.295,0.77,0.248,1.218-0.249c-1.808-1.056-3.61-2.109-5.463-3.192
		c-0.016,0.181-0.031,0.277-0.032,0.373c-0.008,2.712-0.01,5.424-0.027,8.136c-0.002,0.267,0.1,0.398,0.319,0.524
		c2.364,1.353,4.721,2.716,7.081,4.075c0.093,0.054,0.193,0.096,0.326,0.161c0-2.129,0-4.21,0-6.337
		c-0.146,0.077-0.238,0.142-0.34,0.178c-0.431,0.153-0.54,0.451-0.526,0.898c0.035,1.099,0.012,2.199,0.012,3.299
		c0,0.132,0,0.265,0,0.45c-0.153-0.067-0.244-0.098-0.326-0.145c-1.788-1.027-3.572-2.06-5.363-3.079
		c-0.225-0.128-0.262-0.291-0.261-0.521c0.006-2.012,0.003-4.024,0.004-6.036C12.823,17.572,12.834,17.452,12.844,17.261z
		 M20.534,22.639c0,2.126,0,4.173,0,6.253c0.114-0.052,0.184-0.077,0.247-0.113c2.362-1.356,4.72-2.717,7.087-4.065
		c0.233-0.133,0.249-0.306,0.248-0.527c-0.003-2.648-0.001-5.298-0.003-7.947c0-0.115-0.018-0.231-0.033-0.419
		c-1.825,1.056-3.583,2.073-5.373,3.108c0.714,0.525,0.714,0.525,1.374,0.147c0.943-0.541,1.885-1.082,2.829-1.622
		c0.104-0.06,0.214-0.11,0.344-0.178c0.019,0.086,0.037,0.131,0.037,0.177c0.002,2.137,0.007,4.274-0.007,6.411
		c0,0.124-0.125,0.297-0.241,0.365c-1.768,1.036-3.543,2.059-5.317,3.082c-0.1,0.058-0.21,0.095-0.362,0.161
		c0-0.895,0.011-1.718-0.006-2.541c-0.005-0.263,0.087-0.413,0.313-0.533c0.301-0.16,0.586-0.352,0.932-0.563
		C21.881,23.416,21.237,23.045,20.534,22.639z M19.655,12.779c-1.314,0.763-2.534,1.47-3.802,2.206
		c0.188,0.119,0.31,0.182,0.416,0.266c0.272,0.216,0.524,0.199,0.811,0.005c0.319-0.217,0.666-0.394,1.003-0.584
		c0.209-0.118,0.422-0.229,0.662-0.357c0.017,0.116,0.03,0.164,0.03,0.211c0.001,1.474,0.008,2.948-0.01,4.421
		c-0.002,0.134-0.136,0.318-0.26,0.391c-1.217,0.713-2.445,1.409-3.671,2.107c-0.07,0.04-0.149,0.064-0.279,0.119
		c0-0.646,0-1.241,0-1.836c0-0.571-0.238-0.832-0.867-0.93c0,1.419,0,2.835,0,4.313c0.158-0.08,0.278-0.135,0.391-0.2
		c1.74-1.008,3.475-2.023,5.22-3.021c0.258-0.148,0.367-0.302,0.365-0.61c-0.015-2.011-0.008-4.022-0.008-6.033
		C19.655,13.126,19.655,13.004,19.655,12.779z M20.552,12.82c-0.036,0.092-0.052,0.115-0.052,0.137
		c-0.001,2.161-0.007,4.322,0.009,6.483c0.001,0.133,0.135,0.318,0.259,0.391c1.776,1.044,3.562,2.073,5.346,3.104
		c0.088,0.051,0.187,0.082,0.291,0.127c0-1.464,0-2.873,0-4.298c-0.813,0.312-0.83,0.336-0.831,1.102c0,0.25,0,0.5,0,0.75
		c0,0.303,0,0.605,0,0.93c-0.104-0.024-0.143-0.024-0.173-0.041c-1.274-0.739-2.552-1.474-3.816-2.23
		c-0.114-0.068-0.198-0.281-0.2-0.428c-0.015-1.411-0.01-2.823-0.009-4.234c0-0.081,0.019-0.162,0.033-0.279
		c0.121,0.06,0.21,0.097,0.293,0.145c0.497,0.289,0.988,0.587,1.489,0.866c0.106,0.059,0.271,0.104,0.371,0.063
		c0.224-0.091,0.425-0.241,0.702-0.407C22.995,14.253,21.787,13.544,20.552,12.82z M25.975,23.875
		c-0.106-0.084-0.158-0.136-0.219-0.171c-1.827-1.058-3.652-2.118-5.487-3.161c-0.114-0.064-0.34-0.034-0.465,0.037
		c-1.769,1.009-3.529,2.032-5.291,3.054c-0.109,0.063-0.209,0.141-0.367,0.247c1.281,0.736,2.492,1.431,3.719,2.136
		c0.15-0.645,0.05-1.068-0.555-1.335c-0.493-0.216-0.934-0.551-1.404-0.837c0.05-0.061,0.062-0.086,0.082-0.098
		c1.298-0.749,2.593-1.503,3.9-2.237c0.107-0.061,0.316-0.033,0.434,0.033c0.808,0.448,1.605,0.917,2.405,1.381
		c0.491,0.285,0.981,0.574,1.538,0.9c-0.554,0.334-1.042,0.627-1.53,0.922c-0.583,0.353-0.651,0.533-0.447,1.262
		C23.509,25.301,24.722,24.6,25.975,23.875z"/>
	<path fill-rule="evenodd" clip-rule="evenodd" d="M48.721,29.625c-0.256,0-0.479,0-0.701,0c-0.963,0.001-1.925-0.008-2.887,0.008
		c-0.278,0.005-0.366-0.077-0.364-0.359c0.013-1.437-0.002-2.874,0.015-4.312c0.004-0.333-0.072-0.451-0.43-0.445
		c-1.387,0.021-2.774,0.016-4.162,0.003c-0.291-0.003-0.388,0.074-0.385,0.377c0.015,1.412,0.007,2.824,0.007,4.237
		c0,0.146,0,0.294,0,0.467c-1.26,0-2.479,0-3.735,0c-0.007-0.104-0.02-0.212-0.02-0.319c-0.001-3.111-0.003-6.224,0.002-9.336
		c0-0.139,0.023-0.322,0.111-0.41c1.192-1.191,2.398-2.369,3.642-3.592c0,0.134,0,0.261,0,0.387c0,1.487,0.008,2.975-0.007,4.462
		c-0.003,0.31,0.082,0.406,0.396,0.402c1.4-0.016,2.799-0.006,4.199-0.008c0.11,0,0.219-0.014,0.361-0.022c0-1.768,0-3.513,0-5.294
		c1.335,0,2.636,0,3.956,0C48.721,20.446,48.721,25.004,48.721,29.625z"/>
	<path fill-rule="evenodd" clip-rule="evenodd" d="M118.008,29.557c0-0.928,0-1.883,0-2.893c0.598,0,1.181,0.002,1.763,0
		c0.212-0.001,0.427,0.008,0.636-0.021c0.435-0.061,0.717-0.397,0.691-0.793c-0.025-0.399-0.294-0.638-0.769-0.646
		c-0.662-0.011-1.324-0.015-1.986,0.003c-0.277,0.008-0.371-0.075-0.365-0.358c0.017-0.808,0.006-1.617,0.006-2.531
		c0.72,0,1.391,0.003,2.062-0.002c0.161-0.001,0.327-0.011,0.482-0.049c0.38-0.095,0.596-0.397,0.571-0.77
		c-0.023-0.354-0.267-0.639-0.655-0.647c-1.084-0.022-2.169-0.008-3.303-0.008c0,2.93,0,5.831,0,8.759c-1.092,0-2.135,0-3.228,0
		c0-0.13,0-0.25,0-0.371c0.001-2.598,0.004-5.196-0.005-7.795c-0.001-0.245,0.071-0.416,0.245-0.586
		c0.926-0.911,1.834-1.841,2.765-2.746c0.134-0.13,0.359-0.229,0.543-0.231c1.136-0.01,2.274-0.024,3.408,0.031
		c2.031,0.099,3.28,1.437,3.316,3.467c0.013,0.753-0.12,1.459-0.501,2.12c-0.058,0.101-0.019,0.302,0.044,0.42
		c0.725,1.34,0.773,3.769-0.994,4.992c-0.447,0.309-1.004,0.577-1.531,0.626C120.154,29.625,119.09,29.557,118.008,29.557z"/>
	<path fill-rule="evenodd" clip-rule="evenodd" d="M36.529,31.241c-0.635,0.765-1.236,1.562-1.911,2.29
		c-2.302,2.486-5.076,4.252-8.284,5.344c-0.315,0.107-0.5,0.043-0.716-0.179c-2.033-2.081-4.07-4.157-6.115-6.227
		c-0.463-0.469-0.958-0.907-1.438-1.36c0.025-0.052,0.051-0.104,0.076-0.154c6.101,0.053,12.202,0.105,18.303,0.158
		C36.474,31.156,36.501,31.198,36.529,31.241z"/>
	<path fill-rule="evenodd" clip-rule="evenodd" d="M10.731,26.36c4.347,4.419,8.627,8.771,12.983,13.199
		c-0.589,0.087-1.083,0.175-1.582,0.23c-3.909,0.441-7.601-0.314-11.124-2.018c-0.3-0.146-0.409-0.315-0.405-0.656
		c0.042-3.461,0.065-6.922,0.095-10.383C10.699,26.639,10.714,26.544,10.731,26.36z"/>
	<path fill-rule="evenodd" clip-rule="evenodd" d="M8.801,17.969c-0.053,6.166-0.105,12.229-0.159,18.408
		c-0.507-0.389-0.938-0.696-1.345-1.035c-2.996-2.491-5.09-5.596-6.313-9.294c-0.073-0.222-0.068-0.374,0.12-0.558
		c2.466-2.408,4.922-4.827,7.381-7.243C8.563,18.172,8.648,18.104,8.801,17.969z"/>
	<path fill-rule="evenodd" clip-rule="evenodd" d="M31.042,21.708c0.053-6.107,0.105-12.132,0.158-18.212
		c0.122,0.06,0.212,0.09,0.285,0.142c3.552,2.527,6.034,5.853,7.449,9.978c0.076,0.222,0.047,0.36-0.121,0.523
		c-2.5,2.446-4.995,4.897-7.491,7.347C31.263,21.544,31.191,21.59,31.042,21.708z"/>
	<path fill-rule="evenodd" clip-rule="evenodd" d="M16.445,0.288c0.891-0.093,1.779-0.235,2.673-0.271
		c3.397-0.135,6.628,0.557,9.697,2.024c0.314,0.15,0.421,0.333,0.417,0.687c-0.044,3.336-0.067,6.674-0.096,10.011
		c-0.001,0.156,0,0.313,0,0.47c-0.034,0.013-0.068,0.026-0.102,0.039C24.826,8.969,20.618,4.691,16.41,0.414
		C16.422,0.372,16.434,0.33,16.445,0.288z"/>
	<path fill-rule="evenodd" clip-rule="evenodd" d="M13.388,10.674C9.013,14.97,4.713,19.192,0.354,23.474
		c-0.059-0.377-0.101-0.671-0.15-0.964c-0.417-2.471-0.149-4.903,0.416-7.317c0.343-1.467,0.89-2.859,1.54-4.214
		c0.144-0.301,0.313-0.438,0.677-0.433c3.386,0.047,6.773,0.069,10.16,0.1C13.091,10.646,13.187,10.659,13.388,10.674z"/>
	<path fill-rule="evenodd" clip-rule="evenodd" d="M3.615,8.461c0.679-0.794,1.32-1.625,2.044-2.375
		c2.271-2.351,4.97-4.037,8.074-5.073c0.249-0.083,0.427-0.088,0.631,0.121c2.357,2.413,4.724,4.816,7.087,7.223
		c0.094,0.096,0.18,0.198,0.352,0.388C15.697,8.69,9.7,8.638,3.703,8.585C3.674,8.544,3.645,8.502,3.615,8.461z"/>
	<path fill-rule="evenodd" clip-rule="evenodd" d="M63.88,20.87c0,2.916,0,5.81,0,8.729c-1.076,0-2.119,0-3.217,0
		c0-0.15,0-0.296,0-0.441c0-2.562,0.004-5.123-0.005-7.685c-0.001-0.258,0.065-0.443,0.25-0.625c0.935-0.92,1.856-1.854,2.791-2.776
		c0.098-0.097,0.246-0.2,0.372-0.202c1.124-0.011,2.253-0.062,3.372,0.019c2.505,0.181,4.152,1.892,3.977,4.809
		c-0.128,2.131-2.152,4-4.306,3.93c-0.771-0.025-1.545-0.005-2.344-0.005c0-0.935,0-1.84,0-2.8c0.217-0.021,0.434-0.046,0.652-0.062
		c0.374-0.025,0.752-0.019,1.121-0.073c0.709-0.106,1.118-0.6,1.134-1.317c0.017-0.797-0.4-1.427-1.122-1.484
		C65.688,20.816,64.813,20.87,63.88,20.87z"/>
	<path fill-rule="evenodd" clip-rule="evenodd" d="M84.988,23.395c0.683,0,1.273,0.053,1.852-0.012
		c0.917-0.104,1.403-1.045,1.025-1.888c-0.156-0.349-0.438-0.534-0.806-0.597c-0.159-0.027-0.321-0.059-0.481-0.061
		c-0.772-0.006-1.544-0.002-2.369-0.002c0,1.481,0,2.927,0,4.371c0,1.449,0,2.897,0,4.383c-1.07,0-2.122,0-3.196,0
		c-0.009-0.101-0.023-0.197-0.023-0.293c-0.001-2.612,0.003-5.225-0.007-7.836c0-0.26,0.078-0.439,0.261-0.62
		c0.927-0.911,1.836-1.839,2.761-2.752c0.105-0.104,0.268-0.216,0.403-0.216c1.224-0.003,2.453-0.044,3.671,0.049
		c1.34,0.103,2.444,0.698,2.928,2.041c0.536,1.487,0.355,3.327-1.078,4.463c-0.027,0.022-0.046,0.057-0.175,0.199
		c0.418,0.371,0.84,0.738,1.252,1.115c0.076,0.07,0.164,0.182,0.165,0.273c0.011,1.183,0.007,2.365,0.007,3.524
		C89.141,27.517,87.11,25.501,84.988,23.395z"/>
	<path fill-rule="evenodd" clip-rule="evenodd" d="M104.787,15.896c-1.131,1.151-2.229,2.277-3.341,3.389
		c-0.087,0.087-0.267,0.107-0.405,0.114c-0.772,0.034-1.565-0.049-2.313,0.101c-1.354,0.271-2.339,1.1-2.727,2.449
		c-0.396,1.374-0.021,2.594,1.043,3.569c0.506,0.464,1.113,0.706,1.805,0.714c0.523,0.006,1.047,0.001,1.602,0.001
		c0,1.147,0,2.273,0,3.4c-3.826,0.431-6.843-1.042-7.92-4.782c-1.325-4.601,2.007-7.946,5.268-8.731
		c0.578-0.139,1.184-0.214,1.777-0.225c1.661-0.029,3.323-0.01,4.984-0.009C104.632,15.885,104.703,15.892,104.787,15.896z"/>
	<path fill-rule="evenodd" clip-rule="evenodd" d="M135.803,17.897c-0.422,0.416-0.801,0.789-1.179,1.162
		c-0.525,0.517-1.042,1.044-1.584,1.542c-0.138,0.126-0.362,0.221-0.548,0.224c-1.272,0.019-2.546,0.01-3.853,0.01
		c0,0.49,0,0.956,0,1.466c1.378,0,2.759,0,4.165,0c0,0.974,0,1.903,0,2.887c-1.381,0-2.759,0-4.168,0c0,0.506,0,0.96,0,1.462
		c1.375,0,2.754,0,4.164,0c0,1.002,0,1.956,0,2.945c-2.451,0-4.906,0-7.419,0c0-0.114,0-0.233,0-0.353
		c-0.001-2.611-0.005-5.223,0.008-7.833c0.001-0.174,0.09-0.389,0.211-0.513c0.932-0.958,1.88-1.901,2.831-2.84
		c0.096-0.095,0.25-0.186,0.377-0.187c2.262-0.011,4.523-0.008,6.784-0.007C135.639,17.863,135.684,17.877,135.803,17.897z"/>
	<path fill-rule="evenodd" clip-rule="evenodd" d="M72.206,29.57c0-0.116,0-0.227,0-0.338c0-2.6-0.004-5.199,0.011-7.799
		c0-0.187,0.09-0.417,0.219-0.549c0.906-0.932,1.824-1.852,2.76-2.753c0.15-0.146,0.404-0.257,0.61-0.259
		c2.112-0.021,4.226-0.015,6.338-0.017c0.134,0,0.269,0,0.468,0c-0.086,0.113-0.126,0.183-0.181,0.236
		c-0.863,0.851-1.724,1.706-2.601,2.542c-0.118,0.113-0.322,0.189-0.488,0.191c-1.15,0.017-2.301,0.009-3.45,0.01
		c-0.135,0-0.27,0-0.459,0c0,0.457-0.016,0.877,0.015,1.295c0.005,0.068,0.208,0.176,0.32,0.177
		c1.137,0.013,2.274,0.008,3.412,0.008c0.136,0,0.271,0,0.44,0c0,0.956,0,1.886,0,2.881c-1.376,0-2.766,0-4.171,0
		c0,0.511,0,0.957,0,1.452c1.388,0,2.768,0,4.204,0c0,0.268,0,0.487,0,0.707c0.001,0.65,0,1.3,0.001,1.95
		c0,0.168,0.014,0.323-0.239,0.322c-2.374-0.011-4.749-0.015-7.123-0.021C72.28,29.607,72.27,29.598,72.206,29.57z"/>
	<path fill-rule="evenodd" clip-rule="evenodd" d="M106.406,17.927c0,0.357,0,0.604,0,0.85c0,2.162-0.003,4.325,0,6.487
		c0.002,0.741,0.553,1.37,1.283,1.483c0.759,0.118,1.505-0.311,1.724-1.008c0.055-0.174,0.065-0.368,0.065-0.553
		c0.004-2.275,0.003-4.55,0.003-6.825c0-0.135,0-0.271,0-0.429c1.06,0,2.091,0,3.166,0c0.009,0.11,0.026,0.229,0.026,0.347
		c0,2.299,0.006,4.6-0.005,6.9c-0.011,2.287-1.503,4.114-3.744,4.608c-2.528,0.557-5.046-1.002-5.627-3.491
		c-0.062-0.266-0.106-0.543-0.108-0.815c-0.012-1.374-0.009-2.75-0.003-4.124c0.001-0.102,0.037-0.23,0.104-0.299
		C104.299,20.037,105.314,19.022,106.406,17.927z"/>
	<path fill-rule="evenodd" clip-rule="evenodd" d="M62.41,17.861c-0.982,1.003-1.889,1.931-2.795,2.857
		c-1.939,1.981-3.881,3.961-5.812,5.951c-0.113,0.117-0.184,0.322-0.188,0.488c-0.019,0.809-0.009,1.617-0.009,2.446
		c-1.088,0-2.131,0-3.203,0c-0.007-0.119-0.019-0.228-0.019-0.336c-0.001-2.611-0.005-5.222,0.009-7.833
		c0.001-0.186,0.09-0.415,0.217-0.547c0.913-0.941,1.846-1.863,2.774-2.79c0.049-0.049,0.106-0.09,0.212-0.178
		c0,1.553,0,3.044,0,4.64c0.165-0.153,0.261-0.238,0.351-0.328c1.379-1.377,2.76-2.752,4.132-4.135
		c0.171-0.171,0.341-0.245,0.588-0.242C59.876,17.869,61.085,17.861,62.41,17.861z"/>
	<path fill-rule="evenodd" clip-rule="evenodd" d="M119.711,37.473c-0.183-0.515-0.357-1.005-0.531-1.495
		c-0.027-0.001-0.054-0.001-0.081-0.001c-0.06,0.279-0.129,0.558-0.177,0.839c-0.119,0.703-0.115,0.704-0.826,0.652
		c-0.036-0.003-0.071-0.021-0.158-0.046c0.08-0.396,0.158-0.795,0.238-1.192c0.149-0.746,0.29-1.494,0.458-2.236
		c0.022-0.101,0.181-0.173,0.278-0.254c0.016-0.013,0.049-0.003,0.074-0.003c0.775-0.02,0.773-0.019,0.934,0.744
		c0.045,0.215,0.107,0.426,0.236,0.645c0.103-0.451,0.205-0.902,0.312-1.368c0.259,0,0.503,0,0.816,0
		c-0.089,0.441-0.173,0.851-0.254,1.261c-0.135,0.685-0.285,1.367-0.396,2.056c-0.053,0.326-0.196,0.448-0.516,0.401
		C119.996,37.457,119.87,37.473,119.711,37.473z"/>
	<path fill-rule="evenodd" clip-rule="evenodd" d="M123.378,35.917c-0.295-0.017-0.479-0.027-0.716-0.041
		c0.062-0.338,0.117-0.651,0.178-0.986c0.508,0,1.001,0,1.541,0c-0.168,0.857-0.334,1.706-0.505,2.583
		c-0.66,0-1.296,0.008-1.932-0.01c-0.087-0.002-0.221-0.111-0.249-0.198c-0.179-0.545-0.344-1.095-0.486-1.649
		c-0.028-0.109,0.026-0.272,0.099-0.371c0.33-0.454,0.676-0.897,1.027-1.336c0.063-0.078,0.179-0.159,0.271-0.161
		c0.66-0.014,1.32-0.007,2.016-0.007c-0.06,0.283-0.11,0.524-0.171,0.807c-0.357,0-0.719,0.021-1.076-0.007
		c-0.321-0.024-0.558,0.063-0.722,0.345c-0.043,0.074-0.11,0.135-0.167,0.2c-0.281,0.323-0.355,0.968-0.059,1.247
		c0.142,0.132,0.472,0.122,0.696,0.078C123.225,36.39,123.277,36.126,123.378,35.917z"/>
	<path fill-rule="evenodd" clip-rule="evenodd" d="M83.695,37.039c0.024,0.33-0.078,0.47-0.397,0.462
		c-0.837-0.022-1.674-0.013-2.51-0.026c-0.368-0.006-0.734-0.508-0.644-0.863c0.106-0.411,0.213-0.821,0.326-1.229
		c0.107-0.395,0.763-0.91,1.171-0.913c0.774-0.007,1.549-0.007,2.323-0.001c0.384,0.003,0.764,0.503,0.679,0.877
		c-0.193,0.858-0.193,0.859-1.072,0.858c-0.774,0-1.55,0.018-2.323-0.014c-0.363-0.015-0.395,0.228-0.402,0.445
		c-0.009,0.244,0.138,0.408,0.425,0.405c0.675-0.008,1.349-0.002,2.023-0.002C83.429,37.039,83.563,37.039,83.695,37.039z
		 M81.139,35.758c0.81,0,1.596-0.019,2.381,0.009c0.354,0.013,0.398-0.205,0.416-0.44c0.02-0.272-0.146-0.403-0.419-0.403
		c-0.538,0-1.075-0.006-1.612-0.005C81.377,34.918,81.158,35.145,81.139,35.758z"/>
	<path fill-rule="evenodd" clip-rule="evenodd" d="M90.84,37.479c-0.324,0-0.647,0.003-0.972-0.001
		c-0.696-0.008-1.004-0.43-0.812-1.107c0.071-0.252,0.149-0.503,0.195-0.76c0.064-0.351,0.252-0.596,0.527-0.818
		c0.299-0.24,0.601-0.354,0.988-0.337c0.672,0.028,1.346,0.006,2.02,0.013c0.428,0.005,0.801,0.507,0.691,0.916
		c-0.1,0.373-0.176,0.754-0.305,1.115c-0.07,0.197-0.212,0.378-0.353,0.539c-0.345,0.397-0.791,0.523-1.309,0.462
		c-0.222-0.026-0.448-0.005-0.673-0.005C90.84,37.49,90.84,37.484,90.84,37.479z M90.965,37.035c0,0.001,0,0.002,0,0.002
		c0.288,0,0.575,0.006,0.862-0.001c0.322-0.008,0.54-0.174,0.632-0.479c0.111-0.37,0.212-0.744,0.303-1.119
		c0.08-0.336-0.05-0.508-0.384-0.514c-0.574-0.008-1.149-0.004-1.724-0.004c-0.35-0.001-0.556,0.191-0.648,0.51
		c-0.104,0.359-0.195,0.722-0.286,1.084c-0.077,0.309,0.071,0.512,0.384,0.521C90.391,37.042,90.678,37.035,90.965,37.035z"/>
	<path fill-rule="evenodd" clip-rule="evenodd" d="M109.495,37.553c-0.312,0-0.626-0.027-0.935,0.007
		c-0.371,0.04-0.638-0.081-0.783-0.414c-0.066-0.153-0.107-0.343-0.087-0.506c0.034-0.257,0.16-0.501,0.193-0.757
		c0.064-0.507,0.298-0.891,0.744-1.127c0.188-0.1,0.403-0.198,0.608-0.205c0.723-0.026,1.447-0.014,2.171-0.012
		c0.501,0.001,0.866,0.488,0.736,0.978c-0.09,0.336-0.157,0.682-0.285,1.003c-0.09,0.229-0.245,0.44-0.407,0.629
		c-0.314,0.366-0.729,0.483-1.209,0.428c-0.246-0.028-0.498-0.005-0.747-0.005C109.495,37.565,109.495,37.559,109.495,37.553z
		 M109.641,37.111c0,0.002,0,0.003,0,0.004c0.263,0,0.524-0.002,0.787,0c0.389,0.004,0.631-0.175,0.728-0.557
		c0.086-0.339,0.19-0.672,0.276-1.01c0.093-0.365-0.041-0.544-0.418-0.55c-0.55-0.009-1.1-0.001-1.648-0.008
		c-0.365-0.005-0.585,0.183-0.683,0.515c-0.106,0.358-0.196,0.721-0.285,1.084c-0.077,0.312,0.066,0.51,0.381,0.52
		C109.065,37.119,109.354,37.111,109.641,37.111z"/>
	<path fill-rule="evenodd" clip-rule="evenodd" d="M128.811,35.531c0.053-0.226,0.11-0.449,0.155-0.676
		c0.116-0.583,0.132-0.596,0.756-0.464c-0.187,0.95-0.366,1.901-0.567,2.849c-0.02,0.092-0.166,0.22-0.256,0.222
		c-0.187,0.005-0.432,0.115-0.526-0.196c-0.104-0.34-0.241-0.668-0.442-0.99c-0.083,0.385-0.166,0.771-0.253,1.175
		c-0.216,0-0.421,0-0.681,0c0.121-0.649,0.234-1.271,0.353-1.89c0.059-0.306,0.161-0.607,0.181-0.914
		c0.024-0.385,0.283-0.308,0.505-0.307c0.22,0,0.483-0.088,0.515,0.299c0.024,0.302,0.126,0.598,0.193,0.896
		C128.766,35.533,128.788,35.532,128.811,35.531z"/>
	<path fill-rule="evenodd" clip-rule="evenodd" d="M111.874,37.494c0.268-0.994,0.535-1.986,0.796-2.953
		c1.087,0,2.133-0.003,3.18,0.001c0.479,0.002,0.85,0.499,0.724,0.954c-0.142,0.517-0.285,1.033-0.423,1.55
		c-0.153,0.573-0.156,0.577-0.819,0.479c0.162-0.611,0.324-1.218,0.483-1.825c0.154-0.582,0.066-0.699-0.523-0.702
		c-0.574-0.004-1.149,0.006-1.724-0.01c-0.237-0.007-0.358,0.061-0.416,0.305c-0.14,0.595-0.306,1.183-0.463,1.772
		C112.545,37.605,112.496,37.632,111.874,37.494z"/>
	<path fill-rule="evenodd" clip-rule="evenodd" d="M102.565,34.584c-0.201,0.742-0.345,1.481-0.61,2.174
		c-0.162,0.426-0.572,0.765-1.045,0.795c-0.82,0.052-1.647,0.008-2.471-0.005c-0.258-0.004-0.683-0.516-0.62-0.761
		c0.192-0.758,0.403-1.512,0.61-2.275c0.225,0.018,0.42,0.032,0.673,0.053c-0.154,0.59-0.304,1.16-0.454,1.73
		c-0.028,0.107-0.068,0.213-0.092,0.322c-0.06,0.278,0.1,0.49,0.388,0.494c0.587,0.008,1.174,0.01,1.761-0.004
		c0.322-0.008,0.526-0.196,0.613-0.505c0.146-0.515,0.289-1.031,0.431-1.548C101.904,34.491,101.903,34.491,102.565,34.584z"/>
	<path fill-rule="evenodd" clip-rule="evenodd" d="M106.443,36.51c-0.104,0.513-0.727,1.057-1.19,1.058
		c-0.786,0.003-1.573-0.005-2.359-0.017c-0.333-0.005-0.713-0.517-0.629-0.844c0.144-0.555,0.297-1.106,0.446-1.66
		c0.15-0.56,0.15-0.56,0.791-0.467c-0.028,0.176-0.057,0.353-0.093,0.574c1.001,0,1.98,0,2.958,0
		c0.015,0.384-0.159,0.48-0.484,0.472c-0.762-0.019-1.524,0.004-2.285-0.011c-0.258-0.005-0.392,0.078-0.439,0.335
		c-0.044,0.231-0.135,0.454-0.178,0.687c-0.053,0.28,0.065,0.468,0.367,0.473c0.6,0.01,1.2,0.028,1.797-0.01
		c0.183-0.012,0.455-0.156,0.511-0.306C105.819,36.35,106.13,36.512,106.443,36.51z"/>
	<path fill-rule="evenodd" clip-rule="evenodd" d="M85.157,34.435c0.229,0.019,0.426,0.034,0.672,0.054
		c-0.097,0.361-0.163,0.711-0.285,1.04c-0.147,0.394-0.048,0.687,0.186,1.024c0.267,0.387,0.563,0.572,1.019,0.482
		c0.128-0.025,0.252-0.083,0.374-0.133c0.044-0.019,0.076-0.066,0.119-0.09c0.729-0.398,1.1-1.02,1.24-1.832
		c0.101-0.585,0.153-0.584,0.802-0.463c-0.143,0.525-0.277,1.051-0.432,1.569c-0.029,0.096-0.123,0.183-0.206,0.251
		c-0.259,0.214-0.567,0.382-0.786,0.63c-0.582,0.664-1.339,0.538-2.076,0.519c-0.086-0.002-0.195-0.063-0.249-0.133
		c-0.267-0.345-0.527-0.695-0.771-1.057c-0.051-0.077-0.047-0.216-0.021-0.314C84.869,35.477,85.011,34.975,85.157,34.435z"/>
	<path fill-rule="evenodd" clip-rule="evenodd" d="M126.648,36.582c-0.063,0.323-0.115,0.589-0.171,0.871c-0.608,0-1.202,0-1.879,0
		c0.137-0.717,0.271-1.413,0.404-2.116c0.642,0,1.246,0,1.875,0c-0.033,0.222-0.039,0.425-0.104,0.607
		c-0.028,0.081-0.173,0.162-0.271,0.169c-0.309,0.021-0.618,0.008-0.943,0.008c-0.024,0.167-0.044,0.296-0.068,0.461
		C125.879,36.582,126.236,36.582,126.648,36.582z"/>
	<path fill-rule="evenodd" clip-rule="evenodd" d="M94.003,34.437c0.228,0.018,0.434,0.033,0.676,0.052
		c-0.18,0.686-0.354,1.343-0.522,2.002c-0.09,0.35,0.059,0.544,0.424,0.547c0.811,0.005,1.621,0.001,2.432,0.001
		c0.135,0,0.27,0,0.4,0c0.027,0.351-0.113,0.472-0.437,0.465c-0.96-0.021-1.921-0.014-2.881-0.026
		c-0.411-0.005-0.774-0.505-0.668-0.902C93.617,35.867,93.809,35.16,94.003,34.437z"/>
	<path fill-rule="evenodd" clip-rule="evenodd" d="M107.954,34.581c-0.253,0.944-0.479,1.873-0.772,2.78
		c-0.046,0.141-0.408,0.177-0.624,0.262c-0.026-0.039-0.054-0.078-0.08-0.116c0.162-0.618,0.323-1.235,0.486-1.853
		c0.051-0.192,0.108-0.383,0.161-0.574C107.288,34.488,107.288,34.488,107.954,34.581z"/>
	<path fill-rule="evenodd" clip-rule="evenodd" d="M125.185,34.404c0.636-0.029,1.238-0.057,1.821-0.084
		c0.035,0.06,0.059,0.08,0.057,0.099c-0.075,0.653-0.076,0.653-0.723,0.653c-0.408,0-0.815,0-1.268,0
		C125.111,34.841,125.144,34.65,125.185,34.404z"/>
</g>
</svg>
